<svg width="15" height="14" viewBox="0 0 15 14" fill="none" xmlns="http://www.w3.org/2000/svg">
<path d="M12.75 3.5H11C11 2.57174 10.6313 1.6815 9.97487 1.02513C9.3185 0.368749 8.42826 0 7.5 0C6.57174 0 5.6815 0.368749 5.02513 1.02513C4.36875 1.6815 4 2.57174 4 3.5H2.25C1.78587 3.5 1.34075 3.68437 1.01256 4.01256C0.684374 4.34075 0.5 4.78587 0.5 5.25L0.5 11.0833C0.500926 11.8566 0.808514 12.5979 1.35529 13.1447C1.90208 13.6915 2.6434 13.9991 3.41667 14H11.5833C12.3566 13.9991 13.0979 13.6915 13.6447 13.1447C14.1915 12.5979 14.4991 11.8566 14.5 11.0833V5.25C14.5 4.78587 14.3156 4.34075 13.9874 4.01256C13.6592 3.68437 13.2141 3.5 12.75 3.5ZM7.5 1.16667C8.11884 1.16667 8.71233 1.4125 9.14992 1.85008C9.5875 2.28767 9.83333 2.88116 9.83333 3.5H5.16667C5.16667 2.88116 5.4125 2.28767 5.85008 1.85008C6.28767 1.4125 6.88116 1.16667 7.5 1.16667ZM13.3333 11.0833C13.3333 11.5475 13.149 11.9926 12.8208 12.3208C12.4926 12.649 12.0475 12.8333 11.5833 12.8333H3.41667C2.95254 12.8333 2.50742 12.649 2.17923 12.3208C1.85104 11.9926 1.66667 11.5475 1.66667 11.0833V5.25C1.66667 5.09529 1.72812 4.94692 1.83752 4.83752C1.94692 4.72812 2.09529 4.66667 2.25 4.66667H4V5.83333C4 5.98804 4.06146 6.13642 4.17085 6.24581C4.28025 6.35521 4.42862 6.41667 4.58333 6.41667C4.73804 6.41667 4.88642 6.35521 4.99581 6.24581C5.10521 6.13642 5.16667 5.98804 5.16667 5.83333V4.66667H9.83333V5.83333C9.83333 5.98804 9.89479 6.13642 10.0042 6.24581C10.1136 6.35521 10.262 6.41667 10.4167 6.41667C10.5714 6.41667 10.7197 6.35521 10.8291 6.24581C10.9385 6.13642 11 5.98804 11 5.83333V4.66667H12.75C12.9047 4.66667 13.0531 4.72812 13.1625 4.83752C13.2719 4.94692 13.3333 5.09529 13.3333 5.25V11.0833Z" fill="#0C1416"/>
</svg>
