<svg width="1036" height="189" viewBox="0 0 1036 189" fill="none" xmlns="http://www.w3.org/2000/svg">
<path d="M103.68 188.84C83.2 188.84 65.2 184.92 49.68 177.08C34.16 169.08 22.08 157.96 13.44 143.72C4.8 129.48 0.48 113 0.48 94.28C0.48 75.56 4.8 59.16 13.44 45.08C22.08 31 34.16 20.04 49.68 12.2C65.2 4.19999 83.2 0.19999 103.68 0.19999C112.32 0.19999 120.48 0.99999 128.16 2.59999C135.84 4.19999 141.44 5.55999 144.96 6.67999L157.44 8.6C160.32 9.07999 162.4 9.71999 163.68 10.52C165.12 11.32 166.08 12.92 166.56 15.32C167.2 17.72 167.68 21.56 168 26.84L170.16 69.32C170.48 70.76 169.76 71.64 168 71.96L155.28 73.4C153.68 73.72 152.56 73.08 151.92 71.48L141.84 50.12C140.4 46.92 139.2 44.68 138.24 43.4C137.44 41.96 136.24 40.28 134.64 38.36C130.8 34.52 126.48 31.72 121.68 29.96C117.04 28.04 111.92 27.08 106.32 27.08C95.92 27.08 87.04 29.72 79.68 35C72.32 40.12 66.72 47.72 62.88 57.8C59.04 67.88 57.12 80.12 57.12 94.52C57.12 108.6 58.96 120.68 62.64 130.76C66.32 140.84 71.6 148.6 78.48 154.04C85.52 159.32 93.84 161.96 103.44 161.96C109.52 161.96 115.04 161.08 120 159.32C125.12 157.56 129.68 154.84 133.68 151.16C136.08 148.44 137.68 146.44 138.48 145.16C139.44 143.88 140.4 142.12 141.36 139.88L151.92 117.56C152.56 115.96 153.68 115.32 155.28 115.64L168 117.08C169.76 117.4 170.48 118.28 170.16 119.72L167.52 168.68C167.36 171.56 166.96 173.8 166.32 175.4C165.68 176.84 164.16 177.96 161.76 178.76C159.52 179.56 155.84 180.44 150.72 181.4L144.96 182.36C141.44 183.48 135.84 184.84 128.16 186.44C120.48 188.04 112.32 188.84 103.68 188.84ZM256.669 188.84C242.749 188.84 230.429 186.12 219.709 180.68C209.149 175.24 200.829 167.72 194.749 158.12C188.829 148.52 185.869 137.4 185.869 124.76C185.869 112.28 188.829 101.32 194.749 91.88C200.829 82.28 209.149 74.76 219.709 69.32C230.429 63.88 242.749 61.16 256.669 61.16C270.749 61.16 283.149 63.88 293.869 69.32C304.589 74.6 312.909 82.04 318.829 91.64C324.909 101.08 327.949 112.12 327.949 124.76C327.949 137.4 324.909 148.6 318.829 158.36C312.909 167.96 304.589 175.48 293.869 180.92C283.309 186.2 270.909 188.84 256.669 188.84ZM257.629 162.44C263.709 162.44 268.509 159.64 272.029 154.04C275.709 148.44 277.549 139.4 277.549 126.92C277.549 117.8 276.589 110.36 274.669 104.6C272.909 98.84 270.349 94.6 266.989 91.88C263.789 89 260.109 87.56 255.949 87.56C249.869 87.56 245.069 90.36 241.549 95.96C238.029 101.56 236.269 110.84 236.269 123.8C236.269 136.92 238.269 146.68 242.269 153.08C246.429 159.32 251.549 162.44 257.629 162.44ZM402.431 188.84C389.791 188.84 378.591 186.12 368.831 180.68C359.071 175.24 351.391 167.72 345.791 158.12C340.351 148.52 337.631 137.4 337.631 124.76C337.631 112.28 340.591 101.32 346.511 91.88C352.431 82.28 360.671 74.76 371.231 69.32C381.791 63.88 394.031 61.16 407.951 61.16C414.511 61.16 421.311 61.88 428.351 63.32C435.391 64.6 442.431 66.6 449.471 69.32C450.911 70.28 451.551 71.4 451.391 72.68L446.591 113.96C446.271 115.56 445.391 116.36 443.951 116.36H432.191C430.751 116.36 429.711 115.64 429.071 114.2L417.791 83L431.711 89.96C429.471 89.64 426.831 89.4 423.791 89.24C420.911 88.92 417.871 88.76 414.671 88.76C405.551 88.76 398.911 91.32 394.751 96.44C390.591 101.4 388.511 109.4 388.511 120.44C388.511 129.08 389.631 136.36 391.871 142.28C394.111 148.04 397.471 152.44 401.951 155.48C406.431 158.36 411.951 159.8 418.511 159.8C423.311 159.8 427.711 159.32 431.711 158.36C435.871 157.24 439.951 155.4 443.951 152.84C445.231 152.04 446.271 152.36 447.071 153.8L451.631 162.92C452.431 164.2 452.351 165.56 451.391 167C445.151 174.04 437.791 179.48 429.311 183.32C420.991 187 412.031 188.84 402.431 188.84ZM534.647 188.84C520.727 188.84 508.407 186.12 497.687 180.68C487.127 175.24 478.807 167.72 472.727 158.12C466.807 148.52 463.847 137.4 463.847 124.76C463.847 112.28 466.807 101.32 472.727 91.88C478.807 82.28 487.127 74.76 497.687 69.32C508.407 63.88 520.727 61.16 534.647 61.16C548.727 61.16 561.127 63.88 571.847 69.32C582.567 74.6 590.887 82.04 596.807 91.64C602.887 101.08 605.927 112.12 605.927 124.76C605.927 137.4 602.887 148.6 596.807 158.36C590.887 167.96 582.567 175.48 571.847 180.92C561.287 186.2 548.887 188.84 534.647 188.84ZM535.607 162.44C541.687 162.44 546.487 159.64 550.007 154.04C553.687 148.44 555.527 139.4 555.527 126.92C555.527 117.8 554.567 110.36 552.647 104.6C550.887 98.84 548.327 94.6 544.967 91.88C541.767 89 538.087 87.56 533.927 87.56C527.847 87.56 523.047 90.36 519.527 95.96C516.007 101.56 514.247 110.84 514.247 123.8C514.247 136.92 516.247 146.68 520.247 153.08C524.407 159.32 529.527 162.44 535.607 162.44ZM712.569 112.76C712.569 107.96 710.969 104.28 707.769 101.72C704.729 99 700.409 97.64 694.809 97.64C691.929 97.64 688.809 98.2 685.449 99.32C682.089 100.28 678.569 101.64 674.889 103.4L670.329 96.92C673.369 89.88 677.529 83.72 682.809 78.44C688.249 73 694.489 68.76 701.529 65.72C708.729 62.68 716.329 61.16 724.329 61.16C738.089 61.16 747.769 64.68 753.369 71.72C759.129 78.6 762.009 89.88 762.009 105.56V185H712.569V112.76ZM628.329 185V111.08H677.769V185H628.329ZM619.689 185C618.089 185 617.289 184.2 617.289 182.6V176.6C617.289 175 618.009 173.88 619.449 173.24L621.609 172.28C624.809 170.68 626.729 169.48 627.369 168.68C628.009 167.72 628.329 165.72 628.329 162.68V141.8H677.769V161.72C677.769 165.24 678.009 167.48 678.489 168.44C679.129 169.24 680.889 170.2 683.769 171.32L689.529 173.48C690.969 174.12 691.689 175.16 691.689 176.6V182.6C691.689 184.2 690.889 185 689.289 185H619.689ZM703.929 185C702.329 185 701.529 184.2 701.529 182.6V176.6C701.529 175 702.249 173.88 703.689 173.24L705.849 172.28C709.049 170.68 710.969 169.48 711.609 168.68C712.249 167.72 712.569 165.72 712.569 162.68V141.8H762.009V161.72C762.009 165.24 762.249 167.48 762.729 168.44C763.369 169.24 765.129 170.2 768.009 171.32L773.769 173.48C775.209 174.12 775.929 175.16 775.929 176.6V182.6C775.929 184.2 775.129 185 773.529 185H703.929ZM628.329 111.08V74.12L633.129 87.32L616.329 82.76C614.729 82.28 613.929 81.24 613.929 79.64V72.44C613.929 70.84 614.729 69.88 616.329 69.56L666.969 61.64C669.849 61.16 671.849 61.32 672.969 62.12C674.249 62.76 674.889 64.28 674.889 66.68V95.48L677.769 99.08V111.08H628.329ZM923.023 146.12V171.8L918.463 162.68L935.743 170.36C937.183 171 937.903 172.12 937.903 173.72V179.96C937.903 181.4 937.103 182.28 935.503 182.6L883.183 188.36C880.623 188.68 878.863 188.52 877.903 187.88C876.943 187.4 876.463 186.36 876.463 184.76V155.24L873.583 151.16V146.12H923.023ZM828.463 188.84C815.023 188.84 805.343 185.4 799.423 178.52C793.663 171.64 790.783 160.28 790.783 144.44V111.08H840.223V137.24C840.223 147.8 845.583 153.08 856.303 153.08C862.863 153.08 870.063 150.84 877.903 146.36L882.223 153.08C879.663 159.32 875.823 165.16 870.703 170.6C865.583 176.04 859.423 180.44 852.223 183.8C845.183 187.16 837.263 188.84 828.463 188.84ZM873.583 146.12V111.08H923.023V146.12H873.583ZM790.783 111.08V74.12L795.583 87.32L778.783 82.76C777.183 82.28 776.383 81.24 776.383 79.64V72.44C776.383 70.68 777.183 69.8 778.783 69.8L832.303 61.64C835.183 61.16 837.183 61.32 838.303 62.12C839.583 62.76 840.223 64.28 840.223 66.68V111.08H790.783ZM873.583 111.08V74.12L878.383 87.32L861.583 82.76C859.983 82.28 859.183 81.24 859.183 79.64V72.44C859.183 70.68 859.983 69.8 861.583 69.8L915.103 61.64C917.983 61.16 919.983 61.32 921.103 62.12C922.383 62.76 923.023 64.28 923.023 66.68V111.08H873.583ZM989.338 188.84C975.898 188.84 966.298 185.4 960.538 178.52C954.778 171.64 951.898 160.2 951.898 144.2V77.24L954.058 65V40.76C954.058 39.16 954.858 38.12 956.458 37.64C959.818 36.68 964.138 35.8 969.418 35C974.858 34.04 980.218 33.24 985.498 32.6C990.938 31.96 995.418 31.72 998.938 31.88C1000.54 32.2 1001.34 33.08 1001.34 34.52V143C1001.34 149.08 1002.78 153.32 1005.66 155.72C1008.54 158.12 1013.66 159.32 1021.02 159.32C1022.3 159.32 1023.82 159.24 1025.58 159.08C1027.5 158.92 1029.5 158.68 1031.58 158.36C1033.02 158.04 1033.9 158.68 1034.22 160.28L1034.94 169.64C1035.26 171.08 1034.78 172.44 1033.5 173.72C1030.62 176.28 1026.62 178.76 1021.5 181.16C1016.54 183.4 1011.18 185.24 1005.42 186.68C999.818 188.12 994.458 188.84 989.338 188.84ZM939.418 84.2C937.818 84.2 937.178 83.4 937.498 81.8L940.138 69.8C940.458 68.2 941.418 67.24 943.018 66.92L954.058 65H1013.1L1032.78 63.56C1034.38 63.24 1035.18 63.96 1035.18 65.72C1035.34 68.28 1035.34 70.92 1035.18 73.64C1035.02 76.36 1034.62 79.08 1033.98 81.8C1033.5 83.4 1032.46 84.2 1030.86 84.2H939.418Z" fill="white"/>
</svg>
