<svg width="43" height="44" viewBox="0 0 43 44" fill="none" xmlns="http://www.w3.org/2000/svg">
<path d="M21.2131 0.5625C21.4462 0.599363 21.4462 0.599363 21.684 0.636971C22.0961 1.19691 22.4098 1.79837 22.7277 2.40765C24.0403 4.89734 25.4418 7.30035 27.0131 9.6586C27.1245 9.82582 27.2359 9.99305 27.3507 10.1653C28.3458 11.6544 29.3497 13.1383 30.3696 14.6129C33.4325 19.0474 36.657 23.8505 36.6261 29.2764C36.6247 29.5577 36.6247 29.5577 36.6233 29.8447C36.567 33.4779 35.0889 36.7659 32.3924 39.4217C28.8572 42.5163 24.7835 43.6702 19.9886 43.5547C16.1564 43.386 12.785 41.5451 10.1071 39.1065C9.9787 38.9898 9.85031 38.8731 9.71803 38.7528C6.81265 35.9254 5.96005 32.352 6.01411 28.5583C6.1861 23.5483 9.14861 18.9318 12.017 14.8455C16.6543 8.34421 16.6543 8.34421 20.2383 1.31984C20.4674 0.827558 20.6383 0.658068 21.2131 0.5625Z" fill="#D4A030"/>
<path d="M37.3951 2.36037C37.8545 2.50931 37.8545 2.50931 38.0727 2.83911C38.222 3.36041 38.222 3.36041 38.2859 3.74739C38.4758 4.85763 38.8021 5.63649 39.6921 6.42436C40.6259 7.01986 41.7407 7.31153 42.816 7.61589C42.9309 8.02016 42.9309 8.02016 42.9998 8.46699C42.5799 8.85592 42.4519 8.85739 41.8857 8.93509C40.663 9.16892 39.7037 9.72695 38.9283 10.6313C38.5527 11.2513 38.3983 11.8276 38.2794 12.5203C38.0558 13.7275 38.0558 13.7275 37.8545 13.914C37.3147 13.9566 37.3147 13.9566 36.7519 13.914C36.3516 13.3579 36.3222 13.0867 36.2466 12.4352C36.0314 11.1477 35.4691 10.4412 34.4204 9.60533C33.7065 9.26842 33.0079 9.09586 32.2297 8.92844C31.7904 8.80743 31.7904 8.80743 31.4229 8.46699C31.4918 8.02016 31.4918 8.02016 31.6066 7.61589C31.7089 7.58693 31.8113 7.55797 31.9167 7.52812C33.4477 7.07775 34.7181 6.68466 35.6493 5.40304C36.0837 4.57557 36.2959 3.7149 36.4712 2.81318C36.5192 2.66277 36.5192 2.66277 36.5682 2.50931C36.9357 2.33909 36.9357 2.33909 37.3951 2.36037Z" fill="#D39E2E"/>
<path d="M16.4461 16.4142C16.5977 16.4317 16.7493 16.4493 16.9055 16.4674C17.273 16.978 17.273 16.978 17.2565 17.4481C17.053 18.119 16.6875 18.6043 16.2508 19.159C14.1498 21.964 12.6203 25.3336 12.674 28.7903C12.6763 29.0254 12.6786 29.2604 12.6808 29.4955C12.6854 29.8616 12.6906 30.2276 12.6966 30.5937C12.7022 30.9501 12.7054 31.3064 12.7084 31.6628C12.7115 31.8745 12.7146 32.0862 12.7178 32.3043C12.679 32.8084 12.679 32.8084 12.3115 33.1489C11.8636 33.2127 11.8636 33.2127 11.3927 33.1489C10.5813 32.453 10.4564 31.3851 10.4121 30.4114C10.3258 25.377 12.1294 20.6965 15.6192 16.8078C15.9867 16.4674 15.9867 16.4674 16.4461 16.4142Z" fill="#F8F4EA"/>
<path d="M3.30753 12.7225C3.76233 12.8068 3.76233 12.8068 4.22633 12.8928C4.26683 13.0807 4.26683 13.0807 4.30816 13.2724C4.55853 14.3873 4.55853 14.3873 5.27147 15.2758C5.95624 15.6588 6.59119 15.8966 7.35026 16.1269C7.2593 16.5482 7.2593 16.5482 7.1665 16.978C7.05777 17.003 6.94904 17.028 6.83702 17.0538C5.78016 17.3317 5.18864 17.6084 4.59385 18.51C4.4243 19.0159 4.31049 19.5184 4.22633 20.042C3.77152 20.1262 3.77152 20.1262 3.30753 20.2122C3.27626 20.0869 3.24499 19.9616 3.21277 19.8325C2.89264 18.5193 2.89264 18.5193 2.0212 17.4887C1.42131 17.2244 0.811929 17.0066 0.183594 16.8078C0.183594 16.5831 0.183594 16.3584 0.183594 16.1269C0.307718 16.0754 0.431843 16.0238 0.559729 15.9707C1.86289 15.4223 1.86289 15.4223 2.75624 14.4247C2.96964 13.8636 3.14811 13.2987 3.30753 12.7225Z" fill="#D39E2D"/>
<path d="M26.2321 41.7981C26.5277 41.8982 26.5277 41.8982 26.8293 42.0002C26.8293 42.1126 26.8293 42.2249 26.8293 42.3407C27.0112 42.2845 27.1932 42.2283 27.3806 42.1705C27.3806 42.2828 27.3806 42.3951 27.3806 42.5109C27.0636 42.6261 26.7456 42.7392 26.4273 42.8513C26.2504 42.9145 26.0734 42.9777 25.8911 43.0428C25.3736 43.1878 24.9767 43.2208 24.4404 43.1918C24.6224 43.1356 24.8043 43.0794 24.9917 43.0216C24.9311 42.7407 24.8704 42.4598 24.808 42.1705C25.3328 41.6649 25.4667 41.6445 26.2321 41.7981Z" fill="#D29A27"/>
<path d="M34.7307 22.425C35.2028 22.8096 35.4069 23.14 35.6035 23.6911C35.6518 23.8207 35.7002 23.9504 35.75 24.084C35.8408 24.5026 35.7953 24.748 35.6495 25.1486C35.4675 24.7554 35.2856 24.3621 35.0982 23.957C34.9163 24.0132 34.7343 24.0694 34.5469 24.1272C34.365 23.9587 34.1831 23.7902 33.9956 23.6166C34.1169 23.6166 34.2382 23.6166 34.3631 23.6166C34.3631 23.3357 34.3631 23.0549 34.3631 22.7655C34.4844 22.7655 34.6057 22.7655 34.7307 22.7655C34.7307 22.6531 34.7307 22.5408 34.7307 22.425ZM33.6281 23.6166C33.7494 23.7289 33.8707 23.8413 33.9956 23.957C33.8137 23.9009 33.6318 23.8447 33.4443 23.7868C33.505 23.7306 33.5656 23.6745 33.6281 23.6166Z" fill="#D19925"/>
<path d="M13.4149 17.6589C13.5968 17.7151 13.7787 17.7713 13.9662 17.8292C13.9662 17.9415 13.9662 18.0538 13.9662 18.1696C14.0875 18.1696 14.2087 18.1696 14.3337 18.1696C14.2126 18.7773 13.9364 19.2211 13.5872 19.7441C13.4865 19.896 13.3858 20.0478 13.2821 20.2042C13.2046 20.3192 13.1272 20.4342 13.0474 20.5527C12.9867 20.4403 12.9261 20.328 12.8636 20.2122C13.0065 19.8811 13.0065 19.8811 13.2197 19.5101C13.2895 19.3868 13.3594 19.2634 13.4314 19.1364C13.4866 19.042 13.5418 18.9477 13.5987 18.8505C13.2348 18.9628 12.871 19.0752 12.4961 19.1909C12.542 18.8717 12.542 18.8717 12.6799 18.51C13.0589 18.2973 13.0589 18.2973 13.4149 18.1696C13.4149 18.0011 13.4149 17.8326 13.4149 17.6589Z" fill="#D19824"/>
<path d="M4.77768 16.2971C4.89896 16.2971 5.02024 16.2971 5.1452 16.2971C5.44381 16.6376 5.44381 16.6376 5.69648 16.978C5.51456 17.2589 5.33263 17.5397 5.1452 17.8291C5.02392 17.7729 4.90263 17.7167 4.77768 17.6589C4.77768 17.5465 4.77768 17.4342 4.77768 17.3184C4.6564 17.2623 4.53511 17.2061 4.41016 17.1482C4.53144 16.8674 4.65272 16.5865 4.77768 16.2971Z" fill="#D5A336"/>
<path d="M3.12438 13.5736C3.37061 14.092 3.28951 14.3134 3.1129 14.8715C2.75686 15.446 2.75686 15.446 2.17112 15.6907C2.00057 15.7223 1.83002 15.7539 1.6543 15.7865C1.72962 15.698 1.80495 15.6096 1.88256 15.5185C2.40337 14.8941 2.8668 14.3371 3.12438 13.5736Z" fill="#D29822"/>
<path d="M5.3291 15.7865C5.93551 15.8427 6.54192 15.8988 7.16671 15.9567C7.10607 16.1814 7.04543 16.4061 6.98295 16.6376C6.80102 16.6938 6.6191 16.7499 6.43167 16.8078C6.37102 16.6955 6.31038 16.5831 6.2479 16.4674C6.00534 16.5235 5.76278 16.5797 5.51286 16.6376C5.45222 16.3567 5.39158 16.0759 5.3291 15.7865Z" fill="#D5A336"/>
<path d="M10.29 39.1066C10.5326 39.1066 10.7752 39.1066 11.0251 39.1066C11.2892 39.4789 11.2892 39.4789 11.5764 39.9577C11.8756 40.2477 12.1805 40.533 12.4952 40.8088C11.9048 40.5637 11.4623 40.2589 10.9791 39.8619C10.8493 39.7564 10.7195 39.6508 10.5858 39.5421C10.4882 39.4545 10.3906 39.367 10.29 39.2768C10.29 39.2206 10.29 39.1644 10.29 39.1066Z" fill="#D0941A"/>
<path d="M0.367521 15.9567C0.758013 16.0205 0.758013 16.0205 1.10256 16.1269C0.86 16.2954 0.617436 16.4639 0.367521 16.6375C0.913291 16.7218 0.913291 16.7218 1.47009 16.8078C1.47009 16.8639 1.47009 16.9201 1.47009 16.978C1.10624 16.978 0.742393 16.978 0.367521 16.978C0.246239 16.7533 0.124957 16.5286 0 16.2971C0.121282 16.1848 0.242564 16.0724 0.367521 15.9567Z" fill="#D0951D"/>
<path d="M13.7819 12.3821C13.8426 12.4944 13.9032 12.6068 13.9657 12.7225C14.087 12.7225 14.2082 12.7225 14.3332 12.7225C14.3332 12.8349 14.3332 12.9472 14.3332 13.063C14.0001 13.3502 14.0001 13.3502 13.5982 13.5736C13.4162 13.5174 13.2343 13.4613 13.0469 13.4034C13.2894 13.0664 13.532 12.7293 13.7819 12.3821Z" fill="#D29A24"/>
<path d="M0.91847 15.7865C1.10039 15.7865 1.28232 15.7865 1.46975 15.7865C1.53039 16.1235 1.59103 16.4606 1.65351 16.8078C1.22903 16.7516 0.804538 16.6955 0.367188 16.6376C0.550948 16.2972 0.550948 16.2972 0.91847 15.9567C0.91847 15.9005 0.91847 15.8444 0.91847 15.7865Z" fill="#D7A43B"/>
<path d="M6.98276 24.1272C7.20097 24.3932 7.20097 24.3932 7.35028 24.8081C7.09761 25.4464 7.09761 25.4464 6.799 25.9996C6.73835 25.9996 6.67771 25.9996 6.61523 25.9996C6.64116 25.7513 6.66816 25.5031 6.69563 25.2549C6.71055 25.1167 6.72548 24.9784 6.74085 24.836C6.799 24.4676 6.799 24.4676 6.98276 24.1272ZM7.53404 24.2974C7.59468 24.4098 7.65532 24.5221 7.7178 24.6379C7.59652 24.5817 7.47523 24.5255 7.35028 24.4676C7.41092 24.4115 7.47156 24.3553 7.53404 24.2974Z" fill="#D0931B"/>
<path d="M38.2227 4.72217C38.6638 5.21255 39.0446 5.66928 39.3252 6.25414C39.022 6.19797 38.7188 6.1418 38.4064 6.08392C38.3458 5.63454 38.2851 5.18516 38.2227 4.72217Z" fill="#CF941D"/>
<path d="M14.8841 16.4674C15.066 16.5798 15.248 16.6921 15.4354 16.8078C15.1138 17.6377 15.1138 17.6377 14.7004 17.8292C14.6397 17.436 14.5791 17.0427 14.5166 16.6376C14.6379 16.5815 14.7592 16.5253 14.8841 16.4674Z" fill="#D19925"/>
</svg>
