<svg width="61" height="39" viewBox="0 0 61 39" fill="none" xmlns="http://www.w3.org/2000/svg">
<path d="M35.6928 0C36.2726 0.0561044 36.5288 0.266472 36.9058 0.693124C37.1068 1.03393 37.1068 1.03393 37.3004 1.42415C37.374 1.56978 37.4476 1.7154 37.5235 1.86544C37.602 2.02181 37.6805 2.17818 37.7613 2.33929C39.3017 5.33997 41.1258 8.19688 43.2447 10.824C43.3501 10.9563 43.4554 11.0886 43.5639 11.2249C43.7713 11.4843 43.9813 11.7414 44.1944 11.9961C44.4544 12.3219 44.6864 12.6252 44.8767 12.9961C44.7721 13.6734 44.4045 14.0434 43.9345 14.5231C41.5903 17.0885 39.8425 20.2561 38.8119 23.5662C38.7696 23.6971 38.7273 23.828 38.6837 23.9628C37.612 27.4278 37.8618 31.0732 37.9455 34.6562C34.9792 35.413 32.2871 34.6999 29.6171 33.2483C28.44 32.5336 27.4793 31.6383 26.5089 30.6707C26.391 30.5568 26.273 30.4429 26.1515 30.3255C23.909 27.9929 23.4737 25.0406 23.5164 21.9566C23.6411 18.1773 26.3947 14.4221 28.4315 11.3537C28.6488 11.0262 28.8652 10.6982 29.0814 10.3699C29.3668 9.93666 29.6524 9.50358 29.9384 9.07069C31.743 6.33757 33.496 3.57404 35.1141 0.725614C35.3462 0.346562 35.3462 0.346562 35.6928 0Z" fill="#D4A030"/>
<path d="M59.2593 6.2382C61.3912 8.61257 60.4591 15.871 60.299 18.8877C60.1818 20.3002 59.9481 21.6718 59.6059 23.0465C59.5753 23.1734 59.5447 23.3004 59.5131 23.4313C58.1536 28.8642 54.6584 33.4325 49.9167 36.352C45.8394 38.7269 45.8394 38.7269 43.8373 38.6417C43.9222 37.2824 44.2932 36.116 44.7579 34.8404C44.8341 34.6291 44.9104 34.4179 44.9889 34.2002C45.8016 31.9819 46.7885 29.8481 47.8228 27.725C47.924 27.516 47.924 27.516 48.0274 27.3028C48.411 26.5138 48.8068 25.7321 49.209 24.9525C49.3064 24.7589 49.4038 24.5652 49.5041 24.3657C50.2726 22.8739 51.1355 21.4431 52.014 20.014C52.1933 19.7222 52.1933 19.7222 52.3761 19.4246C52.8593 18.6445 53.3359 17.8765 53.8964 17.1495C54.2868 16.6826 54.2868 16.6826 54.1686 16.2563C54.1331 16.1526 54.0975 16.0488 54.0609 15.9419C53.5445 15.9945 53.3719 16.1109 53.0063 16.4909C50.908 19.2587 49.0981 22.2302 47.4762 25.2991C47.4179 25.4082 47.3596 25.5172 47.2995 25.6296C45.3802 29.2395 43.9645 33.0782 42.6257 36.9321C42.4037 37.5636 42.1697 38.1897 41.9312 38.815C41.5996 38.7609 41.5996 38.7609 41.2381 38.6417C41.0478 38.2277 40.9156 37.8636 40.7941 37.4288C40.7578 37.303 40.7216 37.1773 40.6843 37.0477C40.575 36.6561 40.4724 36.2632 40.3717 35.8693C40.3154 35.6546 40.2591 35.4399 40.2011 35.2188C39.8406 33.5608 39.7977 31.9075 39.7869 30.216C39.7832 29.8817 39.7832 29.8817 39.7795 29.5407C39.8123 22.8619 43.4983 17.4492 48.0694 12.891C48.9217 12.0557 49.822 11.2973 50.7685 10.5702C50.9143 10.458 50.9143 10.458 51.0629 10.3436C52.6314 9.14321 54.2487 8.07781 55.967 7.1046C56.1298 7.00922 56.2927 6.91384 56.4604 6.81557C57.3136 6.34481 58.2808 5.898 59.2593 6.2382Z" fill="#3F4C39"/>
<path d="M8.66111 21.1404C8.88519 21.3061 9.10895 21.4722 9.33257 21.6386C9.45721 21.731 9.58185 21.8235 9.71027 21.9188C10.0474 22.1801 10.0474 22.1801 10.3939 22.5266C10.3504 23.8581 9.95018 25.0408 9.52751 26.2955C9.40075 26.6771 9.27438 27.0589 9.14846 27.4408C9.0924 27.6078 9.03633 27.7748 8.97857 27.9469C8.84272 28.391 8.74335 28.8279 8.66111 29.2846C8.88202 29.2483 9.10294 29.212 9.33054 29.1746C15.7112 28.2214 15.7112 28.2214 18.2371 29.9509C19.2992 30.7808 20.2413 31.711 21.159 32.6961C21.3105 32.8581 21.4619 33.0202 21.618 33.1872C22.3011 33.9331 22.9668 34.6934 23.6013 35.4812C23.7481 35.663 23.7481 35.663 23.898 35.8485C24.141 36.3307 24.0725 36.5769 23.9098 37.0822C23.1796 38.0515 22.1152 38.4212 20.9641 38.6418C20.0157 38.7146 19.0708 38.7151 18.1205 38.7108C17.847 38.7112 17.5735 38.7117 17.3 38.7123C16.7295 38.7131 16.1591 38.712 15.5886 38.7095C14.8611 38.7066 14.1337 38.7083 13.4062 38.7114C12.8423 38.7133 12.2785 38.7127 11.7146 38.7113C11.4465 38.711 11.1784 38.7114 10.9103 38.7126C8.95906 38.7195 7.30699 38.6611 5.8304 37.2433C4.96096 36.2351 4.92068 35.0912 4.94978 33.7967C5.10876 31.7836 5.87306 29.7976 6.52623 27.9017C6.80928 27.0609 7.04577 26.2072 7.28569 25.3533C8.22604 22.0105 8.22604 22.0105 8.66111 21.1404Z" fill="#3F4B39"/>
<path d="M9.76552 2.83345C9.95376 2.83118 9.95376 2.83118 10.1458 2.82885C10.559 2.82505 10.9718 2.82756 11.385 2.83049C11.673 2.82991 11.9611 2.82907 12.2491 2.82798C12.8522 2.8267 13.4552 2.82855 14.0582 2.83261C14.8303 2.83754 15.6022 2.8347 16.3743 2.82951C16.9689 2.82638 17.5635 2.82738 18.1581 2.82962C18.4428 2.8302 18.7274 2.82949 19.012 2.82747C19.4103 2.82527 19.8082 2.82863 20.2064 2.83345C20.4327 2.83414 20.6591 2.83483 20.8923 2.83554C21.6311 2.97292 21.8873 3.23275 22.3504 3.81197C22.5072 4.35059 22.4737 4.82601 22.3504 5.37149C21.9713 5.90217 21.9713 5.90217 21.484 6.2379C21.0203 6.25888 21.0203 6.25888 20.6176 6.2379C20.5837 8.14042 20.5703 10.0425 20.5743 11.9453C20.5745 12.0863 20.5748 12.2272 20.5751 12.3724C20.5926 17.569 21.2624 22.2357 22.8702 27.2049C22.7559 27.2621 22.6415 27.3193 22.5237 27.3782C22.5237 27.2638 22.5237 27.1495 22.5237 27.0316C22.4272 26.9885 22.3307 26.9454 22.2313 26.901C21.7581 26.646 21.3753 26.3494 20.9641 26.0028C20.8176 25.8833 20.6711 25.7638 20.5201 25.6406C20.1175 25.1497 19.9693 24.8441 19.7651 24.2573C19.6758 24.0015 19.6758 24.0015 19.5847 23.7405C19.5253 23.5686 19.4659 23.3966 19.4046 23.2194C19.3492 23.0692 19.2937 22.9191 19.2366 22.7643C18.0248 19.4291 18.0416 16.2193 18.1084 12.7261C18.1233 11.8615 18.1286 10.9968 18.1356 10.1322C18.1472 8.83386 18.1705 7.53625 18.1917 6.2379C16.0187 6.2379 13.8458 6.2379 11.607 6.2379C11.607 9.61168 11.607 12.9855 11.607 16.4615C9.32057 14.5017 9.32057 14.5017 9.22038 13.3553C9.21335 13.0318 9.21178 12.7082 9.21488 12.3846C9.21251 12.2133 9.21013 12.0419 9.20769 11.8654C9.20124 11.3216 9.20186 10.778 9.2027 10.2342C9.19956 9.86405 9.19595 9.49391 9.19187 9.12377C9.1829 8.21955 9.17973 7.31545 9.18104 6.41118C8.98805 6.33345 8.79506 6.25572 8.59622 6.17563C7.96807 5.89134 7.96807 5.89134 7.62151 5.50146C7.38529 4.85186 7.43212 4.47483 7.62151 3.81197C8.2797 2.97319 8.71394 2.83666 9.76552 2.83345Z" fill="#414D3A"/>
<path d="M2.42279 9.18403C2.79805 9.43715 2.79805 9.43715 3.18618 9.8073C3.33755 9.95066 3.48892 10.094 3.64488 10.2417C3.81545 10.4087 3.98567 10.576 4.1556 10.7436C4.24704 10.8331 4.33849 10.9227 4.4327 11.015C5.06753 11.6383 5.6964 12.2673 6.32347 12.8984C6.67799 13.2552 7.03309 13.6114 7.38832 13.9674C8.14152 14.7226 8.89403 15.4784 9.64644 16.2344C10.5211 17.1132 11.396 17.9916 12.2717 18.8693C12.6198 19.2186 12.9674 19.5683 13.3149 19.918C13.5299 20.1337 13.7449 20.3493 13.96 20.5649C14.1025 20.7087 14.1025 20.7087 14.2478 20.8554C14.8251 21.4328 15.423 21.9649 16.059 22.4772C16.171 22.5875 16.171 22.5875 16.2853 22.6999C16.2853 22.8143 16.2853 22.9287 16.2853 23.0465C16.3832 23.088 16.4812 23.1295 16.5821 23.1722C17.0625 23.44 17.3874 23.763 17.7737 24.1546C17.9991 24.3816 17.9991 24.3816 18.2289 24.6131C18.3845 24.7716 18.5401 24.9301 18.7004 25.0934C18.9327 25.3281 18.9327 25.3281 19.1698 25.5675C19.4598 25.8605 19.7494 26.1539 20.0385 26.4477C20.7594 27.1784 21.4875 27.9019 22.2145 28.6264C23.0835 29.4926 23.9521 30.3592 24.8204 31.2261C25.3445 31.7493 25.8688 32.2724 26.3935 32.7951C26.9027 33.3024 27.4115 33.8102 27.92 34.3182C28.1135 34.5114 28.3071 34.7044 28.501 34.8973C28.7713 35.1664 29.0412 35.4361 29.3109 35.7059C29.4645 35.8591 29.6181 36.0124 29.7764 36.1702C30.1478 36.5624 30.1478 36.5624 30.4943 37.0823C30.4633 37.6609 30.4275 38.1178 30.1261 38.6201C29.5516 38.9648 29.2714 39.0317 28.5882 38.9884C28.2332 38.7329 28.2332 38.7329 27.8404 38.3657C27.6871 38.2225 27.5338 38.0792 27.3758 37.9316C26.3288 36.9252 25.3015 35.899 24.2754 34.8713C24.0194 34.6155 23.7634 34.3598 23.5073 34.1041C22.8167 33.4143 22.1267 32.724 21.4369 32.0335C20.7138 31.3101 19.9903 30.587 19.2669 29.8639C18.054 28.6513 16.8415 27.4383 15.6292 26.2252C14.2264 24.8215 12.8231 23.4185 11.4194 22.0157C10.2132 20.8103 9.00739 19.6046 7.80184 18.3986C7.08216 17.6787 6.36236 16.9588 5.64226 16.2393C4.9667 15.5642 4.29157 14.8888 3.61676 14.213C3.36858 13.9645 3.12024 13.7163 2.87175 13.4682C2.53383 13.1307 2.19645 12.7927 1.8592 12.4546C1.75975 12.3556 1.66031 12.2565 1.55785 12.1544C0.719556 11.3119 0.719556 11.3119 0.625 10.6028C0.68998 10.0504 0.68998 10.0504 1.06903 9.55225C1.61554 9.13933 1.76196 9.09312 2.42279 9.18403Z" fill="#404C3A"/>
<path d="M19.0573 3.29236C19.3432 3.29236 19.6291 3.29236 19.9237 3.29236C19.8344 3.48178 19.745 3.67119 19.653 3.86635C19.3346 4.48198 19.3346 4.48198 19.5772 5.02517C19.6915 5.02517 19.8059 5.02517 19.9237 5.02517C19.9237 4.85362 19.9237 4.68207 19.9237 4.50533C20.0381 4.50533 20.1525 4.50533 20.2703 4.50533C20.2703 4.67687 20.2703 4.84842 20.2703 5.02517C20.499 5.08235 20.7277 5.13953 20.9634 5.19845C20.5631 5.37 20.1628 5.54155 19.7504 5.71829C19.8648 5.71829 19.9792 5.71829 20.097 5.71829C20.376 5.91137 20.376 5.91137 20.6168 6.23814C20.6719 6.71716 20.6719 6.71716 20.6588 7.30769C20.6556 7.53031 20.6524 7.75292 20.6491 7.98229C20.6463 8.10201 20.6435 8.22173 20.6406 8.34508C20.6264 8.99351 20.6234 9.64205 20.6186 10.2906C20.6174 10.4275 20.6162 10.5643 20.6149 10.7053C20.5657 16.5027 21.071 21.6466 22.8695 27.2051C22.7551 27.2623 22.6408 27.3195 22.5229 27.3784C22.5229 27.2641 22.5229 27.1497 22.5229 27.0319C22.4264 26.9887 22.3299 26.9456 22.2305 26.9012C21.1568 26.3226 20.1432 25.4613 19.7071 24.3027C19.6648 24.1453 19.6225 23.9878 19.5789 23.8257C19.452 23.3863 19.3151 22.9836 19.1491 22.5604C18.0344 19.513 18.2439 16.3393 18.2928 13.1458C18.3036 12.365 18.3082 11.5842 18.3134 10.8033C18.3245 9.2815 18.3427 7.75987 18.3642 6.23814C16.1341 6.15236 16.1341 6.15236 13.8589 6.06485C13.8589 6.00767 13.8589 5.95049 13.8589 5.89157C14.202 5.89157 14.5451 5.89157 14.8986 5.89157C14.8986 5.77721 14.8986 5.66284 14.8986 5.54501C15.088 5.52714 15.2774 5.50927 15.4726 5.49086C16.12 5.37015 16.2271 5.31684 16.6314 4.85189C16.8029 4.85189 16.9745 4.85189 17.1512 4.85189C17.094 5.08062 17.0369 5.30935 16.9779 5.54501C17.0923 5.48783 17.2067 5.43065 17.3245 5.37173C17.3245 4.97145 17.3245 4.57117 17.3245 4.15876C17.5555 4.50533 17.7866 4.85189 18.0176 5.19845C18.5488 5.32554 18.5488 5.32554 19.0573 5.37173C18.943 5.143 18.8286 4.91427 18.7108 4.67861C18.8251 4.67861 18.9395 4.67861 19.0573 4.67861C19.0252 4.54637 18.993 4.41414 18.9598 4.27789C18.884 3.8122 18.884 3.8122 19.0573 3.29236ZM20.9634 4.67861C21.135 4.76438 21.135 4.76438 21.31 4.85189C21.1384 4.93766 21.1384 4.93766 20.9634 5.02517C20.9634 4.9108 20.9634 4.79644 20.9634 4.67861Z" fill="#414D3B"/>
<path d="M21.1374 28.245C21.565 28.4446 21.8388 28.5998 22.177 28.9381C22.3008 29.2818 22.4172 29.6283 22.5236 29.9778C22.3521 29.9778 22.1805 29.9778 22.0038 29.9778C22.0038 30.2637 22.0038 30.5496 22.0038 30.8442C22.2325 30.787 22.4612 30.7298 22.6969 30.6709C22.5253 30.9283 22.5253 30.9283 22.3503 31.1908C22.236 31.1908 22.1216 31.1908 22.0038 31.1908C22.1181 31.3623 22.2325 31.5339 22.3503 31.7106C22.3968 31.607 22.4432 31.5033 22.4911 31.3965C22.6955 31.02 22.9099 30.7912 23.2167 30.4976C23.2739 30.3833 23.3311 30.2689 23.39 30.1511C24.2973 31.054 25.204 31.9577 26.1102 32.8618C26.4187 33.1693 26.7273 33.4768 27.036 33.784C27.4794 34.2253 27.9223 34.6672 28.3651 35.1092C28.5727 35.3156 28.5727 35.3156 28.7846 35.5261C28.913 35.6544 29.0413 35.7827 29.1735 35.9149C29.2866 36.0277 29.3998 36.1404 29.5163 36.2566C29.9536 36.7258 30.1441 36.9836 30.1696 37.6347C30.1625 37.7955 30.1553 37.9563 30.148 38.122C30.0908 38.0076 30.0336 37.8933 29.9747 37.7755C29.8603 37.7755 29.746 37.7755 29.6281 37.7755C29.6281 38.0042 29.6281 38.2329 29.6281 38.4686C29.5709 38.6401 29.5138 38.8117 29.4548 38.9884C29.1689 38.9884 28.883 38.9884 28.5884 38.9884C28.5884 38.8741 28.5884 38.7597 28.5884 38.6419C28.3285 38.3768 28.3285 38.3768 27.9871 38.1021C26.7645 37.0618 25.6372 35.9227 24.4969 34.7938C24.2121 34.5128 23.9262 34.2328 23.6393 33.954C23.2232 33.5493 22.8105 33.1415 22.3984 32.7327C22.2692 32.6083 22.14 32.4839 22.0068 32.3558C21.8899 32.2383 21.7729 32.1209 21.6524 31.9999C21.5485 31.8977 21.4445 31.7956 21.3374 31.6903C21.1374 31.3641 21.1374 31.3641 21.1918 30.9236C21.231 30.783 21.2702 30.6425 21.3106 30.4976C21.3106 30.3261 21.3106 30.1546 21.3106 29.9778C21.3678 30.0922 21.425 30.2065 21.4839 30.3244C21.5983 30.3244 21.7126 30.3244 21.8305 30.3244C21.6067 29.8045 21.6067 29.8045 21.3106 29.2847C21.1391 29.2275 20.9675 29.1703 20.7908 29.1114C20.7336 29.3401 20.6764 29.5689 20.6175 29.8045C20.5031 29.5758 20.3888 29.3471 20.2709 29.1114C19.985 29.1686 19.6991 29.2258 19.4045 29.2847C19.4617 29.1703 19.5189 29.056 19.5778 28.9381C19.6922 28.9381 19.8066 28.9381 19.9244 28.9381C19.9816 28.8238 20.0387 28.7094 20.0977 28.5916C20.4979 28.5916 20.8982 28.5916 21.3106 28.5916C21.2534 28.4772 21.1963 28.3628 21.1374 28.245Z" fill="#414D3B"/>
<path d="M2.01152 9.08643C2.42306 9.1839 2.42306 9.1839 2.76963 9.70374C3.00632 9.95563 3.24819 10.2027 3.49296 10.4467C3.64211 10.5959 3.79126 10.745 3.94493 10.8987C4.10612 11.059 4.26732 11.2193 4.4334 11.3844C4.59999 11.5507 4.76655 11.717 4.93307 11.8834C5.37082 12.3205 5.80909 12.757 6.24746 13.1935C6.69496 13.6392 7.14196 14.0854 7.58901 14.5316C8.46576 15.4065 9.34306 16.2808 10.2207 17.1548C10.1063 17.3836 9.99198 17.6123 9.87415 17.8479C9.7026 17.8479 9.53105 17.8479 9.35431 17.8479C9.35431 17.9623 9.35431 18.0767 9.35431 18.1945C9.18276 18.1945 9.01121 18.1945 8.83446 18.1945C8.7201 18.0801 8.60573 17.9658 8.4879 17.8479C8.40213 18.0195 8.40213 18.0195 8.31462 18.1945C7.75518 17.9478 7.37586 17.6484 6.94111 17.2206C6.80989 17.0922 6.67867 16.9638 6.54347 16.8314C6.40356 16.6924 6.26365 16.5535 6.1195 16.4103C5.97474 16.2671 5.82998 16.1239 5.68083 15.9763C5.37523 15.6732 5.07011 15.3697 4.76545 15.0656C4.29873 14.601 3.82888 14.1397 3.35885 13.6784C3.06229 13.3835 2.76592 13.0883 2.46977 12.793C2.25832 12.5866 2.25832 12.5866 2.04261 12.3761C1.08678 11.4125 1.08678 11.4125 0.843018 10.6844C0.87853 9.88684 1.20263 9.25976 2.01152 9.08643Z" fill="#404D3A"/>
<path d="M10.0475 32.2302C10.3941 32.7501 10.3941 32.7501 10.3941 33.0966C10.68 33.1538 10.9659 33.211 11.2605 33.2699C10.8562 33.6742 10.4519 34.0786 10.0475 34.4829C10.1047 34.6544 10.1619 34.826 10.2208 35.0027C10.1065 35.1743 9.9921 35.3458 9.87426 35.5226C9.7599 35.5226 9.64553 35.5226 9.5277 35.5226C9.5277 35.351 9.5277 35.1795 9.5277 35.0027C9.41334 34.9455 9.29897 34.8884 9.18114 34.8294C9.0561 34.5446 8.93967 34.2558 8.83458 33.963C9.12049 33.963 9.40641 33.963 9.70098 33.963C9.66882 33.8344 9.63665 33.7057 9.60351 33.5732C9.52856 33.102 9.5282 32.8433 9.70098 32.4035C9.81535 32.3463 9.92971 32.2891 10.0475 32.2302ZM5.19568 32.5768C5.42441 32.6912 5.65314 32.8055 5.8888 32.9233C5.71725 32.9233 5.54571 32.9233 5.36896 32.9233C5.36427 33.2591 5.36092 33.5948 5.35813 33.9305C5.35612 34.1175 5.35411 34.3045 5.35204 34.4971C5.34535 35.014 5.34535 35.014 5.54224 35.5226C5.65661 35.4082 5.77097 35.2938 5.8888 35.176C6.11753 35.176 6.34626 35.176 6.58193 35.176C6.63911 35.0616 6.69629 34.9473 6.75521 34.8294C6.86957 34.8866 6.98394 34.9438 7.10177 35.0027C7.15895 34.8884 7.21613 34.774 7.27505 34.6562C7.55986 34.5311 7.8487 34.4147 8.14145 34.3096C8.08427 34.4811 8.02709 34.6527 7.96817 34.8294C8.13972 34.8866 8.31127 34.9438 8.48802 35.0027C8.48802 35.1171 8.48802 35.2315 8.48802 35.3493C8.77393 35.3493 9.05984 35.3493 9.35442 35.3493C9.4116 35.5208 9.46879 35.6924 9.5277 35.8691C9.18114 36.389 9.18114 36.389 8.6613 36.5623C8.77566 36.7338 8.89003 36.9053 9.00786 37.0821C9.17941 37.0821 9.35096 37.0821 9.5277 37.0821C9.5277 37.3108 9.5277 37.5396 9.5277 37.7752C9.41334 37.7752 9.29897 37.7752 9.18114 37.7752C9.18114 37.8896 9.18114 38.0039 9.18114 38.1218C9.40987 38.0646 9.6386 38.0074 9.87426 37.9485C9.81708 37.7769 9.7599 37.6054 9.70098 37.4287C9.9869 37.4858 10.2728 37.543 10.5674 37.6019C10.5102 37.8307 10.453 38.0594 10.3941 38.2951C11.8221 38.2764 13.2501 38.2569 14.6781 38.2363C15.3412 38.2267 16.0044 38.2175 16.6675 38.2089C17.3079 38.2006 17.9483 38.1915 18.5888 38.1819C18.8326 38.1784 19.0765 38.1752 19.3203 38.1722C19.6629 38.168 20.0055 38.1627 20.348 38.1574C20.5427 38.1547 20.7374 38.152 20.938 38.1492C21.4787 38.122 21.9922 38.0485 22.5238 37.9485C21.7792 38.6931 20.7074 38.6855 19.706 38.6892C19.5867 38.6901 19.4673 38.691 19.3443 38.6919C18.9533 38.6943 18.5624 38.6941 18.1714 38.6937C17.8972 38.6944 17.6229 38.6952 17.3487 38.696C16.7751 38.6973 16.2016 38.6972 15.628 38.6963C14.8964 38.6953 14.1649 38.6983 13.4334 38.7023C12.8672 38.7048 12.3011 38.705 11.735 38.7044C11.4655 38.7045 11.1959 38.7054 10.9264 38.7072C8.96822 38.7184 7.31302 38.6666 5.83059 37.2432C4.80949 36.0591 4.92379 34.589 5.0224 33.0966C5.07958 32.9251 5.13676 32.7535 5.19568 32.5768Z" fill="#384633"/>
<path d="M1.2094 9.3573C1.2094 9.87714 1.2094 9.87714 1.04695 10.3428C1.03422 11.0179 1.11873 11.0815 1.55711 11.5596C1.72416 11.7424 1.72416 11.7424 1.89459 11.929C2.45688 12.5223 3.02737 13.1061 3.60623 13.6832C3.73062 13.8078 3.855 13.9323 3.98316 14.0607C4.24345 14.3211 4.50395 14.5813 4.76467 14.8412C5.16492 15.2406 5.56423 15.6408 5.96346 16.0411C6.21735 16.2949 6.47129 16.5486 6.72529 16.8023C6.84478 16.9221 6.96426 17.042 7.08737 17.1654C7.19791 17.2754 7.30846 17.3854 7.42235 17.4988C7.51951 17.5958 7.61666 17.6928 7.71676 17.7928C7.96451 18.0396 7.96451 18.0396 8.31393 18.1946C8.37111 18.0231 8.42829 17.8515 8.48721 17.6748C8.65876 17.7606 8.65876 17.7606 8.83377 17.8481C8.83377 17.9624 8.83377 18.0768 8.83377 18.1946C9.00532 18.1946 9.17687 18.1946 9.35361 18.1946C9.35361 18.0803 9.35361 17.9659 9.35361 17.8481C9.52516 17.7909 9.69671 17.7337 9.87346 17.6748C9.93064 17.5032 9.98782 17.3317 10.0467 17.1549C9.10483 16.205 8.162 15.256 7.21797 14.3082C6.77968 13.8681 6.34172 13.4277 5.90449 12.9866C5.40221 12.4798 4.89855 11.9744 4.3948 11.4692C4.23739 11.31 4.07999 11.1508 3.91781 10.9868C3.69929 10.7682 3.69929 10.7682 3.47636 10.5452C3.34784 10.4159 3.21932 10.2866 3.0869 10.1534C2.79554 9.83926 2.79554 9.83926 2.42237 9.87714C2.42237 9.76278 2.42237 9.64841 2.42237 9.53058C3.16838 9.61047 3.57015 10.0887 4.06905 10.5984C4.16211 10.6914 4.25516 10.7844 4.35104 10.8802C4.65793 11.1874 4.96294 11.4965 5.26797 11.8056C5.48054 12.0191 5.69323 12.2325 5.90602 12.4459C6.46552 13.0073 7.02344 13.5704 7.58105 14.1337C8.15043 14.7084 8.72128 15.2816 9.29202 15.855C10.4114 16.98 11.5292 18.1066 12.646 19.2343C12.1243 19.3962 11.976 19.4153 11.433 19.2343C11.433 19.0628 11.433 18.8912 11.433 18.7145C11.2614 18.8002 11.2614 18.8002 11.0864 18.8878C11.0864 19.0021 11.0864 19.1165 11.0864 19.2343C10.5852 19.3775 10.2395 19.4076 9.70017 19.4076C9.96017 20.0147 10.3091 20.4062 10.7745 20.8713C10.927 21.0246 11.0796 21.1779 11.2368 21.3358C11.4063 21.5044 11.5758 21.6729 11.7453 21.8414C11.9235 22.0198 12.1017 22.1983 12.2798 22.3769C12.7634 22.8614 13.2481 23.3447 13.733 23.8279C14.2405 24.3338 14.747 24.8406 15.2536 25.3473C16.1046 26.1981 16.9562 27.0483 17.8083 27.898C18.7932 28.8801 19.7772 29.8632 20.7606 30.8468C21.8078 31.8941 22.8557 32.9408 23.9038 33.9873C24.2056 34.2887 24.5073 34.5903 24.809 34.8919C25.2833 35.3661 25.7581 35.8398 26.2333 36.3132C26.4075 36.4869 26.5816 36.6608 26.7555 36.8348C26.9931 37.0725 27.2313 37.3096 27.4695 37.5466C27.6026 37.6794 27.7357 37.8122 27.8728 37.9491C28.2114 38.2672 28.5567 38.5453 28.9344 38.8151C28.0154 38.762 27.5425 38.2121 26.9321 37.5905C26.8204 37.4795 26.7087 37.3685 26.5936 37.2541C26.2191 36.8811 25.8471 36.5057 25.475 36.1303C25.2073 35.8626 24.9394 35.5952 24.6714 35.3278C23.9435 34.6008 23.2177 33.8717 22.4923 33.1421C21.7339 32.38 20.9736 31.6198 20.2134 30.8593C18.8556 29.5003 17.4994 28.1398 16.1439 26.7785C14.9142 25.5435 13.6833 24.3096 12.4516 23.0766C12.3707 22.9956 12.2897 22.9145 12.2063 22.8311C11.9621 22.5865 11.7178 22.342 11.4735 22.0975C10.066 20.6885 8.65925 19.2788 7.2527 17.8689C6.79951 17.4146 6.34623 16.9605 5.89296 16.5063C5.18194 15.7938 4.47141 15.0808 3.76126 14.3674C3.49993 14.105 3.23847 13.8427 2.97684 13.5807C2.62104 13.2242 2.26578 12.8672 1.91066 12.51C1.8059 12.4053 1.70114 12.3005 1.59321 12.1926C0.707813 11.3 0.707813 11.3 0.64624 10.5919C0.693655 9.99925 0.813216 9.7865 1.2094 9.3573Z" fill="#263320"/>
<path d="M8.66129 21.1404C8.88536 21.3061 9.10913 21.4722 9.33275 21.6386C9.45739 21.731 9.58203 21.8235 9.71045 21.9188C10.0475 22.1801 10.0475 22.1801 10.3941 22.5266C10.3701 24.0194 9.8261 25.3877 9.34358 26.7828C9.26074 27.0261 9.17805 27.2695 9.0955 27.5129C8.89467 28.104 8.69188 28.6945 8.488 29.2846C8.43082 29.0559 8.37364 28.8271 8.31472 28.5915C8.18964 28.7094 8.06455 28.8273 7.93567 28.9489C7.44832 29.2846 7.44832 29.2846 6.98263 29.2196C6.85039 29.1839 6.71816 29.1481 6.58191 29.1113C6.46755 29.2257 6.35318 29.34 6.23535 29.4579C6.33417 28.4313 6.54949 27.5214 6.87433 26.5446C6.96778 26.2567 7.06119 25.9688 7.15455 25.6809C7.20275 25.5336 7.25094 25.3863 7.30059 25.2345C7.59334 24.3324 7.87345 23.4264 8.15578 22.521C8.46878 21.5254 8.46878 21.5254 8.66129 21.1404Z" fill="#35422F"/>
<path d="M30.4938 15.4221C30.9227 15.5079 30.9227 15.5079 31.3602 15.5954C31.5738 16.2041 31.5524 16.4219 31.2716 17.0162C31.148 17.219 31.0222 17.4204 30.8945 17.6206C29.9968 19.1049 29.2304 20.5722 29.2822 22.3493C29.2851 22.5083 29.288 22.6674 29.291 22.8312C29.2987 23.1638 29.3077 23.4964 29.3181 23.829C29.3205 23.9875 29.323 24.1461 29.3255 24.3095C29.3313 24.5259 29.3313 24.5259 29.3371 24.7466C29.2678 25.2139 29.1354 25.3661 28.761 25.6457C28.4144 25.6349 28.4144 25.6349 28.0679 25.4724C27.2269 24.5692 27.3147 23.4901 27.3281 22.3148C27.4988 19.9222 28.7897 17.1263 30.4938 15.4221Z" fill="#F8F4E9"/>
<path d="M20.7903 19.4077C21.0414 19.8774 21.2107 20.3144 21.3353 20.8317C21.3699 20.9739 21.4046 21.1161 21.4403 21.2626C21.4764 21.4144 21.5125 21.5662 21.5498 21.7226C21.5877 21.8794 21.6257 22.0361 21.6648 22.1975C21.7856 22.697 21.9053 23.1967 22.0249 23.6964C22.1068 24.0356 22.1887 24.3747 22.2706 24.7138C22.4712 25.5441 22.6707 26.3747 22.8697 27.2054C22.6981 27.2911 22.6981 27.2911 22.5231 27.3786C22.5231 27.2643 22.5231 27.1499 22.5231 27.0321C22.4266 26.989 22.3301 26.9459 22.2307 26.9014C21.1043 26.2945 20.1258 25.4164 19.6748 24.2054C19.5784 23.8787 19.4882 23.55 19.4041 23.2199C19.3529 23.0454 19.3017 22.871 19.249 22.6913C18.9521 21.624 18.8289 20.687 18.8842 19.581C18.9414 19.7525 18.9986 19.9241 19.0575 20.1008C19.229 20.0437 19.4006 19.9865 19.5773 19.9276C19.7489 20.0419 19.9204 20.1563 20.0972 20.2741C20.0972 20.1598 20.0972 20.0454 20.0972 19.9276C20.2687 19.9276 20.4403 19.9276 20.617 19.9276C20.6742 19.756 20.7314 19.5845 20.7903 19.4077Z" fill="#3D4937"/>
<path d="M39.8522 28.5914C39.9093 28.5914 39.9665 28.5914 40.0254 28.5914C40.0826 29.392 40.1398 30.1925 40.1987 31.0174C40.4846 30.8458 40.7706 30.6743 41.0651 30.4975C40.9508 30.7834 40.8364 31.0693 40.7186 31.3639C40.7758 31.3067 40.8329 31.2496 40.8918 31.1906C41.0062 31.2478 41.1206 31.305 41.2384 31.3639C41.3467 31.808 41.3467 31.808 41.4117 32.2303C41.0114 32.1731 40.6111 32.116 40.1987 32.0571C40.2559 32.4573 40.3131 32.8576 40.372 33.27C40.4864 33.2128 40.6007 33.1557 40.7186 33.0967C40.7186 33.2683 40.7186 33.4398 40.7186 33.6166C40.6042 33.6166 40.4898 33.6166 40.372 33.6166C40.4292 33.7881 40.4864 33.9597 40.5453 34.1364C40.6793 33.9595 40.6793 33.9595 40.816 33.779C41.2384 33.4433 41.2384 33.4433 41.8449 33.465C42.3422 33.5893 42.6993 33.7269 43.1445 33.9631C43.2819 33.6636 43.4191 33.364 43.556 33.0642C43.6324 32.8974 43.7088 32.7305 43.7875 32.5586C43.9889 32.1064 44.1771 31.6516 44.3575 31.1906C44.5696 31.8272 44.4682 32 44.237 32.6175C44.1705 32.7982 44.1039 32.9789 44.0354 33.1651C43.963 33.357 43.8906 33.5489 43.816 33.7465C43.6701 34.139 43.5246 34.5316 43.3794 34.9243C43.3087 35.1154 43.2379 35.3065 43.1651 35.5034C42.9985 35.9668 42.8435 36.4303 42.6984 36.9008C42.6611 37.0217 42.6237 37.1426 42.5851 37.2672C42.4904 37.5803 42.3987 37.8944 42.3072 38.2085C42.2404 38.3515 42.1736 38.4944 42.1048 38.6417C41.7456 38.7554 41.7456 38.7554 41.4117 38.815C40.8373 37.6605 40.4956 36.525 40.242 35.2628C40.2045 35.0775 40.1669 34.8922 40.1282 34.7013C39.7517 32.668 39.7661 30.6509 39.8522 28.5914Z" fill="#3C4836"/>
<path d="M8.83472 2.94586C10.469 2.92578 12.1033 2.91039 13.7377 2.90097C14.4967 2.89645 15.2555 2.89033 16.0144 2.8805C16.747 2.87108 17.4794 2.86591 18.2121 2.86366C18.4914 2.86206 18.7707 2.85894 19.05 2.85426C19.4417 2.84796 19.833 2.8471 20.2247 2.8475C20.4475 2.84558 20.6703 2.84366 20.8998 2.84167C21.6364 2.973 21.8895 3.23622 22.3506 3.81227C22.5075 4.35112 22.473 4.82596 22.3506 5.3718C21.9824 5.90247 21.9824 5.90247 21.4842 6.2382C21.1411 6.2382 20.798 6.2382 20.4445 6.2382C20.4445 10.1838 20.4445 14.1294 20.4445 18.1946C20.3874 18.1946 20.3302 18.1946 20.2713 18.1946C20.1855 12.0189 20.1855 12.0189 20.098 5.71836C19.9836 5.71836 19.8693 5.71836 19.7514 5.71836C19.9247 5.3718 19.9247 5.3718 20.4445 5.19852C20.3588 4.85542 20.3588 4.85542 20.2713 4.50539C20.1569 4.50539 20.0425 4.50539 19.9247 4.50539C19.9247 4.67694 19.9247 4.84849 19.9247 5.02524C19.7532 5.08242 19.5816 5.1396 19.4049 5.19852C19.3191 4.76965 19.3191 4.76965 19.2316 4.33211C19.7667 4.02634 19.9651 3.98555 20.6178 3.98555C20.4463 3.92837 20.2747 3.87118 20.098 3.81227C20.098 3.64072 20.098 3.46917 20.098 3.29243C16.3811 3.23524 12.6642 3.17806 8.83472 3.11914C8.83472 3.06196 8.83472 3.00478 8.83472 2.94586ZM20.9644 4.67867C21.0216 4.79304 21.0788 4.90741 21.1377 5.02524C21.1949 4.91087 21.252 4.79651 21.311 4.67867C21.1966 4.67867 21.0822 4.67867 20.9644 4.67867Z" fill="#273423"/>
<path d="M11.2596 6.23816C11.3168 6.23816 11.374 6.23816 11.4329 6.23816C11.4901 9.61194 11.5473 12.9857 11.6062 16.4617C9.56241 14.7099 9.56241 14.7099 9.47266 13.8842C9.49053 13.7627 9.5084 13.6412 9.52681 13.516C9.64117 13.516 9.75554 13.516 9.87337 13.516C9.89124 13.4052 9.90911 13.2944 9.92752 13.1802C9.96683 13.0623 10.0061 12.9444 10.0466 12.8228C10.304 12.7371 10.304 12.7371 10.5665 12.6496C10.6237 12.5352 10.6809 12.4208 10.7398 12.303C10.9113 12.2172 10.9113 12.2172 11.0863 12.1297C11.1673 11.7215 11.1673 11.7215 11.1946 11.2525C11.2076 11.0932 11.2205 10.934 11.2339 10.7699C11.2424 10.6468 11.2509 10.5237 11.2596 10.3969C11.1453 10.3969 11.0309 10.3969 10.9131 10.3969C10.9131 10.2254 10.9131 10.0538 10.9131 9.87706C10.6843 10.2773 10.4556 10.6776 10.2199 11.09C10.3915 11.0328 10.563 10.9757 10.7398 10.9167C10.7398 11.0311 10.7398 11.1455 10.7398 11.2633C10.5682 11.2633 10.3967 11.2633 10.2199 11.2633C10.2199 11.4349 10.2199 11.6064 10.2199 11.7832C9.96261 11.8689 9.96261 11.8689 9.70009 11.9564C9.66598 11.3609 9.63409 10.7652 9.60262 10.1695C9.5929 10.0003 9.58318 9.83107 9.57317 9.65674C9.5648 9.49424 9.55642 9.33173 9.54779 9.16431C9.53962 9.01458 9.53146 8.86485 9.52304 8.71059C9.52681 8.31753 9.52681 8.31753 9.70009 7.79769C9.89308 7.88346 9.89308 7.88346 10.09 7.97097C10.5905 8.18373 10.5905 8.18373 11.2596 8.14425C11.2451 8.03569 11.2306 7.92713 11.2156 7.81529C11.198 7.67367 11.1803 7.53205 11.1621 7.38615C11.1441 7.24542 11.126 7.1047 11.1073 6.95971C11.0863 6.58472 11.0863 6.58472 11.2596 6.23816Z" fill="#414D3A"/>
<path d="M10.7399 5.19849C11.0303 5.24805 11.3194 5.30554 11.6063 5.37177C11.5492 5.6005 11.492 5.82923 11.4331 6.06489C11.7467 6.06353 11.7467 6.06353 12.0666 6.06214C12.8393 6.05901 13.6121 6.05702 14.3849 6.05537C14.7199 6.0545 15.0549 6.05332 15.3899 6.05182C15.8703 6.04973 16.3507 6.04874 16.8312 6.04797C17.0573 6.04663 17.0573 6.04663 17.2879 6.04526C17.6468 6.04523 18.0056 6.05413 18.3643 6.06489C18.6522 6.35282 18.5583 6.69999 18.5591 7.08448C18.5582 7.26583 18.5582 7.26583 18.5573 7.45084C18.5573 7.57763 18.5573 7.70441 18.5573 7.83504C18.5572 8.25602 18.5559 8.677 18.5545 9.09799C18.5542 9.38911 18.5539 9.68024 18.5538 9.97137C18.5531 10.7391 18.5514 11.5068 18.5495 12.2746C18.5477 13.0574 18.5469 13.8402 18.546 14.623C18.5442 16.1601 18.5412 17.6972 18.5376 19.2343C18.191 18.8877 18.191 18.8877 18.1493 18.3658C18.1501 18.1418 18.1509 17.9179 18.1517 17.6872C18.1516 17.5637 18.1516 17.4403 18.1515 17.3131C18.1518 16.9043 18.1545 16.4956 18.1572 16.0868C18.1578 15.8037 18.1583 15.5205 18.1587 15.2374C18.16 14.4916 18.1634 13.7458 18.1672 13.0001C18.1714 12.1056 18.173 11.2111 18.175 10.3166C18.1784 8.95712 18.185 7.59767 18.191 6.23817C16.0181 6.23817 13.8451 6.23817 11.6063 6.23817C11.6063 9.44041 11.6063 12.6426 11.6063 15.9419C11.5492 15.9419 11.492 15.9419 11.4331 15.9419C11.3759 12.854 11.3187 9.76617 11.2598 6.58473C11.0882 6.67051 11.0882 6.67051 10.9132 6.75802C10.9132 6.64365 10.9132 6.52928 10.9132 6.41145C10.7417 6.46864 10.5701 6.52582 10.3934 6.58473C10.2218 6.47037 10.0503 6.356 9.87354 6.23817C9.93072 6.12381 9.9879 6.00944 10.0468 5.89161C10.1612 5.89161 10.2755 5.89161 10.3934 5.89161C10.4506 5.72006 10.5077 5.54851 10.5667 5.37177C10.6238 5.31458 10.681 5.2574 10.7399 5.19849Z" fill="#2C3929"/>
<path d="M8.31473 28.245C8.66129 28.8948 8.66129 28.8948 8.66129 29.2847C11.4632 29.2847 14.2652 29.2847 17.1521 29.2847C17.1521 29.3419 17.1521 29.399 17.1521 29.458C14.2929 29.5151 11.4338 29.5723 8.48801 29.6312C8.5452 29.7456 8.60238 29.86 8.66129 29.9778C8.47574 30.5808 8.25582 30.9415 7.79489 31.3641C7.68052 31.5356 7.56616 31.7071 7.44833 31.8839C7.33396 31.9983 7.2196 32.1126 7.10177 32.2305C6.93022 32.2305 6.75867 32.2305 6.58192 32.2305C6.52474 32.0589 6.46756 31.8874 6.40864 31.7106C6.40864 32.1109 6.40864 32.5112 6.40864 32.9236C6.29428 32.9236 6.17991 32.9236 6.06208 32.9236C5.7805 32.4904 5.7805 32.4904 5.54224 32.0572C5.59942 32 5.6566 31.9428 5.71552 31.8839C5.65833 31.8839 5.60115 31.8839 5.54224 31.8839C5.6948 30.0772 5.6948 30.0772 6.06208 29.2847C6.37615 29.0356 6.37615 29.0356 6.7552 28.9381C7.23173 29.0031 7.23173 29.0031 7.62161 29.1114C7.85034 28.8255 8.07907 28.5396 8.31473 28.245ZM6.06208 30.3244C6.0049 30.6675 5.94771 31.0106 5.8888 31.3641C6.00316 31.3069 6.11753 31.2497 6.23536 31.1908C6.23536 30.9049 6.23536 30.6189 6.23536 30.3244C6.17818 30.3244 6.12099 30.3244 6.06208 30.3244Z" fill="#4D5846"/>
<path d="M2.42358 9.53052C3.16959 9.61041 3.57136 10.0887 4.07026 10.5983C4.16332 10.6913 4.25638 10.7843 4.35225 10.8801C4.65914 11.1874 4.96416 11.4964 5.26918 11.8055C5.48175 12.019 5.69444 12.2325 5.90724 12.4458C6.46673 13.0073 7.02465 13.5703 7.58226 14.1337C8.15164 14.7084 8.72249 15.2816 9.29323 15.8549C10.4127 16.9799 11.5304 18.1066 12.6472 19.2343C12.1255 19.3961 11.9772 19.4152 11.4342 19.2343C11.4342 19.0627 11.4342 18.8912 11.4342 18.7144C11.2626 18.8002 11.2626 18.8002 11.0876 18.8877C11.0876 19.0021 11.0876 19.1164 11.0876 19.2343C10.444 19.4181 9.84921 19.4075 9.18154 19.4075C8.90335 19.1422 8.90335 19.1422 8.62921 18.8011C8.53741 18.6885 8.4456 18.5759 8.35101 18.4599C8.28199 18.3723 8.21297 18.2848 8.14186 18.1946C8.31341 18.023 8.48495 17.8515 8.6617 17.6747C8.71888 17.8463 8.77607 18.0178 8.83498 18.1946C9.00653 18.1946 9.17808 18.1946 9.35483 18.1946C9.35483 18.0802 9.35483 17.9658 9.35483 17.848C9.52637 17.7908 9.69792 17.7336 9.87467 17.6747C9.93185 17.5032 9.98903 17.3316 10.0479 17.1549C9.10605 16.205 8.16321 15.256 7.21918 14.3082C6.78089 13.8681 6.34293 13.4276 5.9057 12.9865C5.40343 12.4797 4.89976 11.9744 4.39601 11.4691C4.23861 11.3099 4.0812 11.1507 3.91903 10.9867C3.77335 10.841 3.62766 10.6953 3.47757 10.5452C3.34905 10.4159 3.22053 10.2866 3.08812 10.1534C2.79675 9.83919 2.79675 9.83919 2.42358 9.87708C2.42358 9.76271 2.42358 9.64835 2.42358 9.53052Z" fill="#2F3C2A"/>
<path d="M50.9416 35.176C51.0559 35.2332 51.1703 35.2904 51.2881 35.3493C49.5665 36.7029 46.4773 38.6903 44.1836 38.4684C44.2872 38.4183 44.3909 38.3683 44.4977 38.3167C44.9102 38.1136 44.9102 38.1136 45.3966 37.7752C45.2822 37.7181 45.1678 37.6609 45.05 37.602C45.1072 37.2017 45.1644 36.8014 45.2233 36.389C45.452 36.4462 45.6807 36.5034 45.9164 36.5623C45.9736 36.3907 46.0308 36.2192 46.0897 36.0424C46.1469 36.1568 46.2041 36.2712 46.263 36.389C46.4935 36.1692 46.4935 36.1692 46.7287 35.945C47.2372 35.518 47.2372 35.518 47.7683 35.5551C47.9006 35.6015 48.0328 35.648 48.1691 35.6959C48.3406 35.6959 48.5122 35.6959 48.6889 35.6959C48.7461 35.8674 48.8033 36.039 48.8622 36.2157C49.5672 36.0798 50.0439 35.742 50.6288 35.3425C50.732 35.2876 50.8352 35.2326 50.9416 35.176Z" fill="#3C4836"/>
<path d="M7.79432 3.63904C7.9676 3.9856 7.9676 3.9856 7.93511 4.66789C7.9186 5.24246 7.9186 5.24246 8.26001 5.69675C8.67305 5.89769 9.10065 6.06766 9.52713 6.23825C9.64149 8.0681 9.75586 9.89795 9.87369 11.7832C9.98805 11.7832 10.1024 11.7832 10.2203 11.7832C10.2203 11.6117 10.2203 11.4401 10.2203 11.2634C10.3918 11.2634 10.5633 11.2634 10.7401 11.2634C10.4828 11.1776 10.4828 11.1776 10.2203 11.0901C10.32 10.6767 10.432 10.2814 10.5668 9.87716C10.6812 9.87716 10.7955 9.87716 10.9134 9.87716C10.9706 9.70561 11.0277 9.53406 11.0867 9.35731C11.1438 9.35731 11.201 9.35731 11.2599 9.35731C11.2599 9.70387 11.2599 10.0504 11.2599 10.397C11.269 10.584 11.269 10.584 11.2782 10.7747C11.2829 10.9288 11.2876 11.0829 11.2924 11.2417C11.3015 11.4716 11.3015 11.4716 11.3107 11.7061C11.2501 12.2115 11.1276 12.3356 10.7401 12.6497C10.6507 12.7461 10.5614 12.8426 10.4693 12.9421C10.2203 13.1695 10.2203 13.1695 9.87369 13.1695C9.87369 13.2839 9.87369 13.3982 9.87369 13.5161C9.75932 13.5161 9.64496 13.5161 9.52713 13.5161C9.46994 13.7448 9.41276 13.9735 9.35385 14.2092C9.29666 11.636 9.23948 9.06273 9.18056 6.41153C8.78028 6.23999 8.38001 6.06844 7.9676 5.89169C7.62103 5.50181 7.62103 5.50181 7.44775 5.02529C7.52202 3.91134 7.52202 3.91134 7.79432 3.63904Z" fill="#303E2B"/>
<path d="M20.4439 6.23816C20.5011 6.23816 20.5582 6.23816 20.6172 6.23816C20.6743 10.7556 20.7315 15.273 20.7904 19.9274C20.6189 20.0131 20.6189 20.0131 20.4439 20.1006C20.3295 20.0435 20.2151 19.9863 20.0973 19.9274C20.0973 20.0417 20.0973 20.1561 20.0973 20.2739C19.7542 20.2167 19.4111 20.1596 19.0576 20.1006C19.0576 20.4437 19.0576 20.7868 19.0576 21.1403C18.5271 20.6098 18.4287 19.97 18.3645 19.2342C18.5872 18.7393 18.7337 18.6023 19.2309 18.4003C19.5775 18.3678 19.5775 18.3678 20.0973 18.5411C20.3457 18.0443 20.2991 17.6129 20.3062 17.0576C20.3079 16.941 20.3096 16.8243 20.3114 16.7041C20.3169 16.3178 20.3211 15.9315 20.3254 15.5452C20.329 15.2777 20.3326 15.0101 20.3363 14.7425C20.3459 14.0378 20.3545 13.333 20.3628 12.6282C20.3715 11.9093 20.3812 11.1903 20.3907 10.4714C20.4094 9.0603 20.427 7.64924 20.4439 6.23816Z" fill="#596250"/>
<path d="M8.14149 23.5662C8.37022 23.5662 8.59895 23.5662 8.83462 23.5662C8.8918 23.6805 8.94898 23.7949 9.0079 23.9127C9.23663 23.7984 9.46536 23.684 9.70102 23.5662C9.93377 24.4721 9.78598 25.0202 9.45193 25.8838C9.40983 25.9948 9.36772 26.1058 9.32434 26.2202C9.22106 26.4916 9.11478 26.7618 9.0079 27.0318C8.87499 26.9449 8.74209 26.858 8.60515 26.7685C8.15776 26.4626 8.15776 26.4626 7.65414 26.5661C7.46651 26.6251 7.46651 26.6251 7.27509 26.6852C7.2179 26.3993 7.16072 26.1134 7.10181 25.8188C7.21617 25.8188 7.33054 25.8188 7.44837 25.8188C7.6771 25.0754 7.90583 24.3321 8.14149 23.5662Z" fill="#424E3C"/>
<path d="M5.19505 32.5767C5.42378 32.691 5.65251 32.8054 5.88818 32.9232C5.71663 32.9232 5.54508 32.9232 5.36833 32.9232C5.36365 33.2589 5.36029 33.5947 5.3575 33.9304C5.35549 34.1174 5.35348 34.3043 5.35141 34.497C5.34472 35.0139 5.34472 35.0139 5.54161 35.5224C5.65598 35.4081 5.77035 35.2937 5.88818 35.1759C6.11691 35.1759 6.34564 35.1759 6.5813 35.1759C6.63848 35.0615 6.69567 34.9471 6.75458 34.8293C7.14408 35.1849 7.27481 35.3503 7.44771 35.869C7.36193 35.9512 7.27616 36.0334 7.18778 36.1181C6.90786 36.3471 6.90786 36.3471 6.92786 36.5621C6.87125 36.9089 6.81354 37.2554 6.75458 37.6018C7.09768 37.7734 7.44077 37.9449 7.79427 38.1217C7.53695 38.2074 7.53695 38.2074 7.27442 38.2949C6.3215 37.777 5.58968 37.1006 5.17272 36.0863C5.00513 35.4603 4.98165 34.9242 4.98928 34.277C4.99096 33.9624 4.99096 33.9624 4.99267 33.6414C5.02177 33.0965 5.02177 33.0965 5.19505 32.5767Z" fill="#404C39"/>
<path d="M24.9492 28.245C25.2453 28.5282 25.4577 28.7421 25.6423 29.1114C25.7817 29.1543 25.9211 29.1972 26.0647 29.2414C26.5087 29.458 26.5087 29.458 26.7362 29.9995C26.7951 30.2461 26.7951 30.2461 26.8553 30.4976C27.034 30.4405 27.2127 30.3833 27.3968 30.3244C27.9789 30.156 28.4999 30.1214 29.108 30.1511C29.108 30.3226 29.108 30.4942 29.108 30.6709C28.9364 30.7567 28.9364 30.7567 28.7614 30.8442C28.7614 31.0729 28.7614 31.3017 28.7614 31.5373C28.8758 31.5945 28.9901 31.6517 29.108 31.7106C29.2346 32.1116 29.3508 32.5161 29.4545 32.9236C28.6749 32.6751 28.1536 32.2423 27.5701 31.689C27.4792 31.6038 27.3883 31.5187 27.2947 31.4309C25.2248 29.47 25.2248 29.47 24.9492 28.245Z" fill="#D29C2A"/>
<path d="M51.8082 20.4471C52.024 20.8788 51.9428 21.0382 51.8082 21.4868C51.9797 21.4868 52.1513 21.4868 52.328 21.4868C52.3852 21.7156 52.4424 21.9443 52.5013 22.18C52.387 22.18 52.2726 22.18 52.1548 22.18C51.6793 22.692 51.6349 22.834 51.6349 23.5662C51.5206 23.5662 51.4062 23.5662 51.2884 23.5662C51.2884 23.9665 51.2884 24.3668 51.2884 24.7792C51.1168 24.722 50.9453 24.6648 50.7685 24.6059C50.7113 24.7203 50.6541 24.8346 50.5952 24.9525C50.5952 24.8381 50.5952 24.7237 50.5952 24.6059C50.4809 24.6059 50.3665 24.6059 50.2487 24.6059C50.3059 24.4915 50.363 24.3772 50.422 24.2593C50.5363 24.3165 50.6507 24.3737 50.7685 24.4326C50.7685 24.3182 50.7685 24.2039 50.7685 24.086C50.6541 24.086 50.5398 24.086 50.422 24.086C50.3648 23.9717 50.3076 23.8573 50.2487 23.7395C49.8198 24.5115 49.8198 24.5115 49.3823 25.299C49.3251 25.1846 49.2679 25.0703 49.209 24.9525C49.3976 24.538 49.5956 24.1479 49.8155 23.7503C49.9096 23.5769 49.9096 23.5769 50.0057 23.4C50.5624 22.3865 51.1676 21.41 51.8082 20.4471Z" fill="#374331"/>
<path d="M60.1256 18.1943C60.1664 19.5152 60.0974 20.7217 59.779 22.0065C59.7218 22.0065 59.6646 22.0065 59.6057 22.0065C59.5847 21.9019 59.5637 21.7974 59.5421 21.6897C59.5131 21.5512 59.484 21.4127 59.4541 21.27C59.426 21.1333 59.3978 20.9966 59.3688 20.8558C59.2601 20.4505 59.1112 20.122 58.9126 19.7538C58.8268 19.5662 58.8268 19.5662 58.7393 19.3748C58.5883 19.0309 58.5883 19.0309 58.2195 18.8874C58.252 18.5625 58.252 18.5625 58.3928 18.1943C59.0891 17.7688 59.4101 17.875 60.1256 18.1943Z" fill="#3C4936"/>
<path d="M22.8694 29.6311C23.4325 29.8783 23.8069 30.1791 24.2401 30.6132C24.3708 30.7433 24.5015 30.8735 24.6361 31.0075C24.7755 31.1481 24.9148 31.2888 25.0584 31.4336C25.2028 31.5781 25.3471 31.7225 25.4958 31.8713C25.8006 32.1766 26.105 32.4824 26.409 32.7885C26.875 33.2577 27.3423 33.7254 27.8099 34.1929C28.1058 34.4897 28.4016 34.7865 28.6973 35.0834C28.9074 35.2938 28.9074 35.2938 29.1218 35.5084C29.2513 35.6391 29.3809 35.7697 29.5144 35.9044C29.6856 36.0765 29.6856 36.0765 29.8602 36.2522C30.1472 36.5623 30.1472 36.5623 30.4937 37.0822C30.4365 38.1513 30.4365 38.1513 30.0497 38.6309C29.9675 38.6916 29.8853 38.7524 29.8006 38.815C29.6291 38.7578 29.4575 38.7006 29.2808 38.6417C29.3951 38.3558 29.5095 38.0699 29.6273 37.7753C29.7417 37.7753 29.8561 37.7753 29.9739 37.7753C29.8824 37.0999 29.7255 36.7418 29.2634 36.2432C29.1537 36.1239 29.044 36.0046 28.931 35.8818C28.3951 35.3213 27.8555 34.7658 27.3063 34.2183C27.1896 34.1015 27.0729 33.9846 26.9527 33.8642C26.7087 33.6201 26.4645 33.3762 26.2201 33.1326C25.845 32.7583 25.4708 32.3832 25.0967 32.008C24.8586 31.77 24.6204 31.5321 24.3822 31.2942C24.2144 31.1258 24.2144 31.1258 24.0431 30.954C23.9395 30.851 23.8359 30.7479 23.7291 30.6417C23.6381 30.5509 23.5471 30.46 23.4534 30.3664C23.2159 30.1315 23.2159 30.1315 22.8694 29.9777C22.8694 29.8633 22.8694 29.7489 22.8694 29.6311Z" fill="#323D2B"/>
<path d="M60.1253 13.516C60.1825 13.516 60.2396 13.516 60.2986 13.516C60.2986 14.8884 60.2986 16.2608 60.2986 17.6747C60.0126 17.6176 59.7267 17.5604 59.4321 17.5015C59.375 17.2155 59.3178 16.9296 59.2589 16.635C59.0873 16.635 58.9158 16.635 58.739 16.635C58.6818 16.7494 58.6247 16.8638 58.5657 16.9816C58.4514 16.9816 58.337 16.9816 58.2192 16.9816C58.1109 16.6675 58.1109 16.6675 58.0459 16.2885C58.1603 16.1169 58.2746 15.9454 58.3925 15.7686C58.5068 15.883 58.6212 15.9974 58.739 16.1152C58.8748 15.9794 59.0106 15.8436 59.1506 15.7037C59.4177 15.4365 59.6848 15.1694 59.952 14.9022C60.0314 14.5605 60.0314 14.5605 60.0603 14.1875C60.0817 13.9659 60.1032 13.7443 60.1253 13.516Z" fill="#34412E"/>
<path d="M39.8518 28.5914C39.909 28.5914 39.9662 28.5914 40.0251 28.5914C40.0823 29.392 40.1395 30.1925 40.1984 31.0174C40.4843 30.8458 40.7702 30.6743 41.0648 30.4975C40.9504 30.7834 40.8361 31.0693 40.7182 31.3639C40.7754 31.3067 40.8326 31.2496 40.8915 31.1906C41.0059 31.2478 41.1203 31.305 41.2381 31.3639C41.3464 31.808 41.3464 31.808 41.4114 32.2303C41.0111 32.1731 40.6108 32.116 40.1984 32.0571C40.2556 32.4573 40.3128 32.8576 40.3717 33.27C40.4861 33.2128 40.6004 33.1557 40.7182 33.0967C40.7182 33.2683 40.7182 33.4398 40.7182 33.6166C40.6039 33.6166 40.4895 33.6166 40.3717 33.6166C40.3717 33.9025 40.3717 34.1884 40.3717 34.483C40.4861 34.5402 40.6004 34.5974 40.7182 34.6563C40.883 35.2253 40.909 35.4702 40.7182 36.0425C40.8326 36.0997 40.947 36.1569 41.0648 36.2158C40.9504 36.4445 40.8361 36.6733 40.7182 36.9089C40.6056 36.4723 40.4938 36.0355 40.3825 35.5985C40.3509 35.4764 40.3193 35.3543 40.2867 35.2286C39.8993 33.6999 39.8294 32.2547 39.841 30.6816C39.8418 30.4805 39.8426 30.2793 39.8434 30.0721C39.8454 29.5785 39.8483 29.085 39.8518 28.5914Z" fill="#2A3625"/>
<path d="M55.1004 7.62439C55.2737 7.97095 55.2737 7.97095 55.2737 8.49079C55.0468 9.11482 54.8088 9.24307 54.234 9.53048C54.0347 9.87128 54.0347 9.87128 53.8875 10.2236C53.7731 10.338 53.6587 10.4523 53.5409 10.5702C53.3025 10.3467 53.0717 10.115 52.8478 9.87704C52.8478 9.76268 52.8478 9.64831 52.8478 9.53048C52.7334 9.4733 52.6191 9.41612 52.5012 9.3572C52.804 9.13274 53.1073 8.90907 53.4109 8.68574C53.5798 8.5611 53.7487 8.43645 53.9227 8.30804C54.3101 8.03856 54.6722 7.81811 55.1004 7.62439Z" fill="#384432"/>
<path d="M18.5381 11.9563C18.8846 12.6494 18.8846 12.6494 18.8197 13.0393C18.7839 13.1394 18.7482 13.2394 18.7114 13.3425C18.8829 13.3997 19.0545 13.4569 19.2312 13.5158C19.437 14.1331 19.437 14.1331 19.5778 14.7288C19.349 14.786 19.1203 14.8432 18.8846 14.9021C18.8775 15.1237 18.8704 15.3452 18.863 15.5735C18.859 15.6982 18.8549 15.8228 18.8508 15.9512C18.8529 16.3297 18.8529 16.3297 19.2312 16.6349C19.4028 16.6349 19.5743 16.6349 19.7511 16.6349C19.8082 16.8636 19.8654 17.0923 19.9243 17.328C19.8672 17.2136 19.81 17.0993 19.7511 16.9814C19.6367 17.153 19.5223 17.3245 19.4045 17.5013C19.3473 17.3297 19.2901 17.1582 19.2312 16.9814C19.0597 16.9814 18.8881 16.9814 18.7114 16.9814C18.7685 17.4389 18.8257 17.8964 18.8846 18.3677C19.0562 18.4249 19.2277 18.4821 19.4045 18.541C19.1472 18.6268 19.1472 18.6268 18.8846 18.7143C18.7703 18.8286 18.6559 18.943 18.5381 19.0608C18.5381 16.7163 18.5381 14.3718 18.5381 11.9563Z" fill="#46523F"/>
<path d="M45.3968 15.7687C45.3968 15.9402 45.3968 16.1118 45.3968 16.2885C45.2824 16.4029 45.168 16.5173 45.0502 16.6351C45.1138 17.1436 45.2 17.3047 45.57 17.6748C45.4307 17.6462 45.2913 17.6176 45.1477 17.5881C44.7507 17.496 44.7507 17.496 44.5304 17.5015C44.4732 17.8446 44.416 18.1877 44.3571 18.5412C44.1855 18.5412 44.014 18.5412 43.8372 18.5412C43.8372 18.6555 43.8372 18.7699 43.8372 18.8877C43.9516 18.9449 44.066 19.0021 44.1838 19.061C43.7672 19.686 43.4999 19.7289 42.7975 19.9274C42.7404 19.8131 42.6832 19.6987 42.6243 19.5809C43.3203 18.2219 44.3154 16.8501 45.3968 15.7687Z" fill="#364230"/>
<path d="M8.66068 21.1404C8.88527 21.3018 9.10891 21.4645 9.33214 21.6277C9.45678 21.7182 9.58142 21.8087 9.70984 21.9019C10.0469 22.1801 10.0469 22.1801 10.3935 22.6999C10.2419 23.3389 10.2419 23.3389 10.0469 23.9129C9.95102 23.5532 9.87365 23.2468 9.87365 22.8732C9.38584 22.4786 9.38584 22.4786 8.83396 22.5266C8.77678 22.8125 8.71959 23.0985 8.66068 23.393C8.54631 23.393 8.43195 23.393 8.31412 23.393C8.30468 23.1476 8.298 22.9021 8.29246 22.6566C8.28844 22.5199 8.28442 22.3832 8.28027 22.2423C8.31709 21.7976 8.43775 21.5231 8.66068 21.1404ZM9.00724 22.6999C9.17879 22.7571 9.35034 22.8143 9.52708 22.8732C9.26976 23.0447 9.26976 23.0447 9.00724 23.2198C9.00724 23.0482 9.00724 22.8767 9.00724 22.6999Z" fill="#364331"/>
<path d="M26.1625 15.0754C26.2197 15.1898 26.2769 15.3042 26.3358 15.422C26.1253 15.8545 26.1253 15.8545 25.8268 16.3642C25.3995 17.0602 25.3995 17.0602 25.2961 17.8479C25.3676 17.7086 25.439 17.5692 25.5127 17.4256C25.8159 16.9815 25.8159 16.9815 26.195 16.8407C26.2986 16.83 26.4023 16.8193 26.5091 16.8082C26.5091 17.037 26.5091 17.2657 26.5091 17.5014C26.3947 17.5014 26.2803 17.5014 26.1625 17.5014C26.0481 17.8445 25.9338 18.1876 25.8159 18.5411C25.6837 18.5017 25.5515 18.4624 25.4152 18.4219C25.2615 18.4041 25.1079 18.3862 24.9495 18.3678C24.6315 18.5989 24.6315 18.5989 24.4297 18.8876C24.5373 18.0332 24.9076 17.3468 25.2961 16.5916C25.36 16.4648 25.4239 16.3379 25.4897 16.2072C25.9624 15.2755 25.9624 15.2755 26.1625 15.0754Z" fill="#D19824"/>
<path d="M54.5803 15.4221C54.6994 15.8537 54.7536 16.1809 54.7536 16.6351C54.9252 16.6923 55.0967 16.7495 55.2735 16.8084C55.2735 16.9799 55.2735 17.1515 55.2735 17.3282C55.445 17.4426 55.6166 17.5569 55.7933 17.6748C55.6217 17.6748 55.4502 17.6748 55.2735 17.6748C55.2163 17.7891 55.1591 17.9035 55.1002 18.0213C54.7573 18.1473 54.4106 18.2636 54.0605 18.3679C54.1177 18.0248 54.1749 17.6817 54.2338 17.3282C54.0622 17.414 54.0622 17.414 53.8872 17.5015C53.948 17.3764 54.0087 17.2513 54.0713 17.1224C54.2518 16.581 54.2149 16.309 54.0605 15.7687C54.232 15.6543 54.4036 15.54 54.5803 15.4221Z" fill="#374331"/>
<path d="M59.4318 22.1801C59.489 22.1801 59.5462 22.1801 59.6051 22.1801C59.5226 23.437 59.2074 24.4792 58.7387 25.6457C58.4361 25.1918 58.325 24.9459 58.2188 24.4327C58.0473 24.5185 58.0473 24.5185 57.8723 24.606C57.8151 24.4344 57.7579 24.2629 57.699 24.0861C57.8133 24.0861 57.9277 24.0861 58.0455 24.0861C58.0455 23.9718 58.0455 23.8574 58.0455 23.7396C58.1599 23.7396 58.2743 23.7396 58.3921 23.7396C58.3921 23.6252 58.3921 23.5109 58.3921 23.393C58.5636 23.3358 58.7352 23.2787 58.9119 23.2197C58.9691 23.3341 59.0263 23.4485 59.0852 23.5663C59.1996 23.1088 59.314 22.6514 59.4318 22.1801Z" fill="#323F2C"/>
<path d="M46.2636 31.3638C46.5116 31.8597 46.3676 32.2187 46.2636 32.75C46.378 32.75 46.4924 32.75 46.6102 32.75C46.6674 32.6357 46.7245 32.5213 46.7835 32.4035C46.7835 32.6322 46.7835 32.8609 46.7835 33.0966C47.0694 33.0394 47.3553 32.9822 47.6499 32.9233C47.4116 33.1832 47.4116 33.1832 47.13 33.4431C47.0157 33.4431 46.9013 33.4431 46.7835 33.4431C46.7835 33.5575 46.7835 33.6719 46.7835 33.7897C46.4404 33.7897 46.0973 33.7897 45.7438 33.7897C45.7438 33.6753 45.7438 33.561 45.7438 33.4431C45.6294 33.5575 45.515 33.6719 45.3972 33.7897C45.5643 32.8877 45.7224 32.1264 46.2636 31.3638ZM47.6499 32.75C47.9964 32.9233 47.9964 32.9233 47.9964 32.9233L47.6499 32.75Z" fill="#3F4B39"/>
<path d="M58.2188 6.23823C58.717 6.20574 58.717 6.20574 59.2585 6.23823C59.6051 6.75808 59.6051 6.75808 59.5401 7.13713C59.5043 7.24077 59.4686 7.34442 59.4318 7.4512C59.3746 7.33684 59.3174 7.22247 59.2585 7.10464C59.2585 7.33337 59.2585 7.5621 59.2585 7.79776C58.8582 8.0265 58.4579 8.25523 58.0455 8.49089C57.9312 8.14779 57.8168 7.8047 57.699 7.4512C57.9277 7.4512 58.1564 7.4512 58.3921 7.4512C58.2777 7.33684 58.1634 7.22247 58.0455 7.10464C58.1599 6.99027 58.2743 6.87591 58.3921 6.75808C58.5636 6.75808 58.7352 6.75808 58.9119 6.75808C58.9119 6.64371 58.9119 6.52935 58.9119 6.41152C58.6832 6.35433 58.4545 6.29715 58.2188 6.23823Z" fill="#364230"/>
<path d="M41.4107 36.9089C41.525 37.0233 41.6394 37.1377 41.7572 37.2555C41.7001 37.3699 41.6429 37.4842 41.584 37.6021C41.7555 37.6021 41.9271 37.6021 42.1038 37.6021C42.2182 37.3733 42.3325 37.1446 42.4504 36.9089C42.336 37.4808 42.2216 38.0526 42.1038 38.6417C41.8751 38.6989 41.6463 38.7561 41.4107 38.815C40.882 37.8845 40.882 37.8845 40.9233 37.3746C41.0641 37.0822 41.0641 37.0822 41.4107 36.9089Z" fill="#2D3828"/>
<path d="M8.31442 28.245C8.4877 28.7648 8.4877 28.7648 8.26027 29.2305C8.16377 29.3628 8.06728 29.495 7.96786 29.6312C7.85349 29.6312 7.73913 29.6312 7.6213 29.6312C7.56411 29.7456 7.50693 29.86 7.44802 29.9778C7.33365 29.9778 7.21928 29.9778 7.10145 29.9778C7.04427 30.0922 6.98709 30.2065 6.92817 30.3244C6.92817 30.21 6.92817 30.0956 6.92817 29.9778C6.69944 30.035 6.47071 30.0922 6.23505 30.1511C6.17787 29.8652 6.12068 29.5793 6.06177 29.2847C6.50747 29.0041 6.69887 28.9305 7.23141 29.0031C7.36008 29.0388 7.48874 29.0746 7.6213 29.1114C7.85003 28.8255 8.07876 28.5396 8.31442 28.245Z" fill="#434F3C"/>
<path d="M10.567 18.0212C11.346 18.1655 11.9331 18.4809 12.4406 19.0934C12.5085 19.1971 12.5764 19.3007 12.6464 19.4075C12.2461 19.3503 11.8458 19.2931 11.4334 19.2342C11.4334 19.0627 11.4334 18.8911 11.4334 18.7144C11.2619 18.8001 11.2619 18.8001 11.0869 18.8876C11.0869 19.002 11.0869 19.1164 11.0869 19.2342C10.8581 19.2914 10.6294 19.3486 10.3937 19.4075C10.2854 19.0068 10.2854 19.0068 10.2205 18.5411C10.3348 18.3695 10.4492 18.198 10.567 18.0212Z" fill="#3F4C39"/>
<path d="M58.7387 16.6351C58.9103 16.6351 59.0818 16.6351 59.2586 16.6351C59.3729 16.921 59.4873 17.207 59.6051 17.5015C59.7195 17.4444 59.8338 17.3872 59.9517 17.3283C59.9517 17.4426 59.9517 17.557 59.9517 17.6748C60.066 17.6748 60.1804 17.6748 60.2982 17.6748C60.3307 18.2596 60.3307 18.2596 60.2982 18.8878C60.1267 19.0022 59.9551 19.1165 59.7784 19.2343C59.7212 18.8341 59.664 18.4338 59.6051 18.0214C59.0905 17.9356 59.0905 17.9356 58.5654 17.8481C58.5654 17.5015 58.5654 17.5015 58.7387 17.3283C58.6815 17.2139 58.6243 17.0995 58.5654 16.9817C58.6226 16.8673 58.6798 16.753 58.7387 16.6351Z" fill="#46523F"/>
<path d="M5.19581 32.5767C5.42454 32.691 5.65327 32.8054 5.88893 32.9232C5.71738 32.9232 5.54583 32.9232 5.36909 32.9232C5.3644 33.2589 5.36105 33.5947 5.35826 33.9304C5.35625 34.1174 5.35424 34.3043 5.35217 34.497C5.34548 35.0139 5.34548 35.0139 5.54237 35.5224C5.65673 35.4081 5.7711 35.2937 5.88893 35.1759C6.08387 35.999 6.08387 35.999 5.88893 36.3888C5.6602 36.3317 5.43147 36.2745 5.19581 36.2156C4.99361 35.5753 4.99946 34.9667 5.00087 34.2986C5.00042 34.0858 4.99997 33.8729 4.99951 33.6536C5.02253 33.0965 5.02253 33.0965 5.19581 32.5767Z" fill="#2E3C28"/>
<path d="M18.5381 6.23816C18.5953 6.23816 18.6525 6.23816 18.7114 6.23816C18.7114 6.63844 18.7114 7.03872 18.7114 7.45113C18.8829 7.39394 19.0545 7.33676 19.2312 7.27785C19.4028 7.56376 19.5743 7.84967 19.7511 8.14425C19.6367 8.14425 19.5223 8.14425 19.4045 8.14425C19.3473 8.37298 19.2901 8.60171 19.2312 8.83737C19.2312 8.72301 19.2312 8.60864 19.2312 8.49081C19.0597 8.49081 18.8881 8.49081 18.7114 8.49081C18.7114 9.00546 18.7114 9.5201 18.7114 10.0503C18.6542 10.0503 18.597 10.0503 18.5381 10.0503C18.5381 8.79232 18.5381 7.5343 18.5381 6.23816Z" fill="#45513E"/>
<path d="M53.0207 18.8877C53.3673 19.2343 53.7138 19.5808 54.0604 19.9274C53.2806 20.6205 53.2806 20.6205 52.5009 20.6205C52.4437 20.7349 52.3865 20.8492 52.3276 20.9671C52.2193 20.653 52.2193 20.653 52.1543 20.2739C52.2687 20.1024 52.383 19.9308 52.5009 19.7541C52.7296 19.7541 52.9583 19.7541 53.194 19.7541C53.0224 19.6397 52.8509 19.5254 52.6741 19.4075C52.7885 19.236 52.9029 19.0644 53.0207 18.8877Z" fill="#424E3C"/>
<path d="M44.8764 36.7355C45.2229 37.082 45.2229 37.082 45.3962 37.6019C45.5106 37.7162 45.6249 37.8306 45.7428 37.9484C45.3997 38.12 45.0566 38.2915 44.7031 38.4683C44.7031 38.5255 44.7031 38.5826 44.7031 38.6416C44.4172 38.6416 44.1312 38.6416 43.8367 38.6416C43.936 38.1447 43.9859 37.9724 44.3565 37.6019C44.3851 37.4839 44.4137 37.366 44.4432 37.2445C44.4717 37.1337 44.5003 37.0229 44.5298 36.9088C44.6442 36.8516 44.7585 36.7944 44.8764 36.7355Z" fill="#475140"/>
<path d="M60.125 18.8877C60.4985 19.4479 60.5101 19.5214 60.4418 20.148C60.419 20.3625 60.419 20.3625 60.3958 20.5812C60.3779 20.73 60.36 20.8788 60.3416 21.032C60.3264 21.1795 60.3112 21.3269 60.2956 21.4788C60.2117 22.2267 60.1112 22.8809 59.7784 23.5663C59.6641 23.5663 59.5497 23.5663 59.4319 23.5663C59.4529 23.4318 59.4739 23.2973 59.4955 23.1588C59.7162 21.7365 59.9242 20.3129 60.125 18.8877Z" fill="#EDECE7"/>
<path d="M51.1145 17.1548C51.6344 17.5013 51.6344 17.5013 51.7907 17.8127C51.8161 18.3855 51.5503 18.6531 51.212 19.1042C51.0978 19.2588 50.9837 19.4133 50.8661 19.5726C50.7765 19.6896 50.687 19.8067 50.5947 19.9273C50.4864 19.6024 50.4864 19.6024 50.4214 19.2342C50.5358 19.1198 50.6501 19.0054 50.7679 18.8876C50.9541 18.5798 50.9541 18.5798 50.9412 18.3678C50.7697 18.2534 50.5981 18.139 50.4214 18.0212C50.5036 17.9426 50.5858 17.8639 50.6705 17.7829C50.9569 17.513 50.9569 17.513 51.1145 17.1548Z" fill="#313E2B"/>
<path d="M56.6604 28.245C56.7748 28.3594 56.8891 28.4737 57.007 28.5916C57.1213 28.5344 57.2357 28.4772 57.3535 28.4183C57.1079 29.0893 56.7939 29.6672 56.4113 30.2702C56.3079 30.4353 56.2045 30.6004 56.0979 30.7704C55.794 31.1908 55.794 31.1908 55.2742 31.5373C55.3314 31.1942 55.3885 30.8511 55.4475 30.4976C55.619 30.4405 55.7905 30.3833 55.9673 30.3244C56.4685 29.6747 56.5238 29.225 56.4871 28.4183C56.5443 28.3611 56.6015 28.3039 56.6604 28.245Z" fill="#2A3825"/>
<path d="M24.9492 28.245C25.2453 28.5282 25.4577 28.7421 25.6423 29.1114C25.7817 29.1543 25.9211 29.1972 26.0647 29.2414C26.5087 29.458 26.5087 29.458 26.7362 29.967C26.8553 30.4976 26.8553 30.4976 26.8553 31.0175C26.6006 30.7523 26.3484 30.4847 26.0972 30.2161C25.8861 29.9929 25.8861 29.9929 25.6708 29.7653C25.2806 29.2653 25.1116 28.8536 24.9492 28.245Z" fill="#D0951E"/>
<path d="M45.2233 36.9089C45.2948 36.9911 45.3662 37.0733 45.4399 37.158C45.7889 37.4696 45.9743 37.5477 46.4362 37.6021C46.9009 37.5352 46.9009 37.5352 47.3027 37.4288C46.5478 38.118 45.5262 38.4393 44.5193 38.501C44.4085 38.4902 44.2977 38.4795 44.1836 38.4685C44.2872 38.4184 44.3909 38.3684 44.4977 38.3168C44.9102 38.1137 44.9102 38.1137 45.3966 37.7753C45.2822 37.7182 45.1678 37.661 45.05 37.6021C45.1072 37.3733 45.1644 37.1446 45.2233 36.9089Z" fill="#2B3725"/>
<path d="M54.5809 32.057C54.5809 32.5768 54.5809 32.5768 54.2898 32.9309C54.1015 33.1148 54.1015 33.1148 53.9094 33.3025C53.7225 33.4884 53.7225 33.4884 53.5317 33.6781C53.1946 33.9631 53.1946 33.9631 52.8481 33.9631C52.7909 33.7915 52.7337 33.62 52.6748 33.4433C52.8697 33.075 52.8697 33.075 53.1946 32.7501C53.482 32.6855 53.7709 32.6276 54.0611 32.5768C54.3719 32.3242 54.3719 32.3242 54.5809 32.057Z" fill="#2F3B28"/>
<path d="M40.5451 24.606C40.8882 24.6917 40.8882 24.6917 41.2382 24.7792C41.2382 24.8936 41.2382 25.008 41.2382 25.1258C41.4098 25.1258 41.5813 25.1258 41.7581 25.1258C41.8724 25.4117 41.9868 25.6976 42.1046 25.9922C41.8014 26.1222 41.8014 26.1222 41.4115 26.1655C41.0216 25.8298 41.0216 25.8298 40.7184 25.4724C40.604 25.5867 40.4897 25.7011 40.3718 25.8189C40.429 25.4186 40.4862 25.0184 40.5451 24.606Z" fill="#394533"/>
<path d="M51.8083 20.4471C52.0241 20.8788 51.9429 21.0382 51.8083 21.4868C51.9798 21.4868 52.1514 21.4868 52.3281 21.4868C52.3853 21.7156 52.4425 21.9443 52.5014 22.18C52.3871 22.18 52.2727 22.18 52.1549 22.18C52.0977 22.2943 52.0405 22.4087 51.9816 22.5265C51.81 22.4693 51.6385 22.4122 51.4617 22.3532C51.4617 22.2389 51.4617 22.1245 51.4617 22.0067C51.2902 22.0639 51.1186 22.121 50.9419 22.18C51.1732 21.5572 51.4548 21.0095 51.8083 20.4471Z" fill="#313E2B"/>
<path d="M52.1549 9.53052C52.2121 9.64488 52.2692 9.75925 52.3282 9.87708C52.271 10.0486 52.2138 10.2202 52.1549 10.3969C51.9261 10.3969 51.6974 10.3969 51.4617 10.3969C51.4046 10.74 51.3474 11.0831 51.2885 11.4366C50.7738 11.3508 50.7738 11.3508 50.2488 11.2633C50.795 10.4986 51.3846 10.049 52.1549 9.53052ZM50.7686 11.4366C51.1152 11.6099 51.1152 11.6099 51.1152 11.6099L50.7686 11.4366Z" fill="#35412F"/>
<path d="M6.40797 36.389C6.57952 36.4462 6.75106 36.5034 6.92781 36.5623C6.87063 36.9054 6.81345 37.2485 6.75453 37.602C7.09763 37.7736 7.44072 37.9451 7.79422 38.1218C7.62267 38.179 7.45112 38.2362 7.27437 38.2951C6.68667 37.9523 6.17092 37.5889 5.71484 37.0822C5.77203 36.9678 5.82921 36.8534 5.88812 36.7356C6.00249 36.7356 6.11686 36.7356 6.23469 36.7356C6.29187 36.6212 6.34905 36.5069 6.40797 36.389Z" fill="#2B3826"/>
<path d="M59.7789 11.6099C59.9505 11.667 60.122 11.7242 60.2988 11.7831C60.3081 12.0647 60.3148 12.3463 60.3204 12.6279C60.3244 12.7847 60.3285 12.9415 60.3326 13.1031C60.2988 13.516 60.2988 13.516 59.9522 13.8625C59.4323 13.516 59.4323 13.516 59.3024 13.1694C59.2591 12.8228 59.2591 12.8228 59.4323 12.4763C59.5467 12.4763 59.6611 12.4763 59.7789 12.4763C59.7789 12.1904 59.7789 11.9044 59.7789 11.6099Z" fill="#495340"/>
<path d="M22.0032 24.2594C22.3308 24.8271 22.4686 25.3387 22.5231 25.9922C22.3606 26.4038 22.3606 26.4038 22.1765 26.6853C21.9478 26.3994 21.7191 26.1135 21.4834 25.8189C21.5978 25.6474 21.7121 25.4758 21.83 25.2991C21.8976 24.9543 21.9568 24.6077 22.0032 24.2594Z" fill="#414C3B"/>
<path d="M9.35364 21.8333C9.90141 22.0706 10.0455 22.1779 10.3933 22.6997C10.2417 23.3386 10.2417 23.3386 10.0468 23.9126C9.95086 23.553 9.87349 23.2466 9.87349 22.8729C9.44461 22.7014 9.44461 22.7014 9.00708 22.5264C9.12145 22.2976 9.23581 22.0689 9.35364 21.8333ZM9.00708 22.6997C9.17863 22.7568 9.35018 22.814 9.52692 22.8729C9.2696 23.0445 9.2696 23.0445 9.00708 23.2195C9.00708 23.048 9.00708 22.8764 9.00708 22.6997Z" fill="#44503E"/>
<path d="M31.014 15.2487C31.1856 15.3058 31.3571 15.363 31.5339 15.4219C31.6555 15.7082 31.7712 15.9971 31.8804 16.2883C31.9948 16.3455 32.1092 16.4027 32.227 16.4616C31.7625 17.0809 31.2868 17.5567 30.6675 18.0212C30.8316 17.5991 30.9882 17.1982 31.2198 16.8082C31.4081 16.3448 31.3243 16.0683 31.1873 15.5952C31.1301 15.4809 31.073 15.3665 31.014 15.2487Z" fill="#D0951C"/>
<path d="M27.2016 21.4868C27.2588 21.4868 27.316 21.4868 27.3749 21.4868C27.3749 22.4589 27.3749 23.431 27.3749 24.4326C26.855 24.4326 26.855 24.4326 26.3352 24.086C26.5068 23.9717 26.6783 23.8573 26.855 23.7395C26.9946 23.2009 26.9946 23.2009 27.0608 22.5915C27.0883 22.3855 27.1158 22.1796 27.1441 21.9674C27.1631 21.8088 27.182 21.6502 27.2016 21.4868Z" fill="#CF9319"/>
<path d="M45.3962 15.7687C45.3962 15.9402 45.3962 16.1118 45.3962 16.2885C45.2818 16.4029 45.1675 16.5173 45.0496 16.6351C45.1132 17.1436 45.1994 17.3047 45.5695 17.6748C45.4301 17.6462 45.2907 17.6176 45.1471 17.5881C44.7501 17.496 44.7501 17.496 44.5298 17.5015C44.4726 17.673 44.4154 17.8446 44.3565 18.0213C44.185 17.907 44.0134 17.7926 43.8367 17.6748C44.064 17.3895 44.2914 17.1043 44.519 16.8192C44.6456 16.6604 44.7723 16.5016 44.9028 16.3379C45.2229 15.942 45.2229 15.942 45.3962 15.7687Z" fill="#2A3625"/>
<path d="M45.5698 15.7687C46.0845 15.8545 46.0845 15.8545 46.6095 15.942C46.438 15.9991 46.2664 16.0563 46.0897 16.1152C46.0325 16.4012 45.9753 16.6871 45.9164 16.9816C45.802 16.9245 45.6877 16.8673 45.5698 16.8084C45.5127 16.8655 45.4555 16.9227 45.3966 16.9816C45.225 17.0388 45.0535 17.096 44.8767 17.1549C44.9806 16.5734 45.1966 16.223 45.5698 15.7687Z" fill="#414D3C"/>
<path d="M57.8725 6.58458C57.6437 6.64176 57.415 6.69895 57.1793 6.75786C57.1793 6.87223 57.1793 6.98659 57.1793 7.10442C57.2937 7.16161 57.4081 7.21879 57.5259 7.27771C57.2972 7.27771 57.0684 7.27771 56.8328 7.27771C56.7184 7.39207 56.6041 7.50644 56.4862 7.62427C56.4862 7.5099 56.4862 7.39554 56.4862 7.27771C56.1431 7.44925 55.8 7.6208 55.4465 7.79755C55.6198 7.27771 55.6198 7.27771 55.9975 7.03132C56.1516 6.95538 56.3058 6.87943 56.4646 6.80118C56.6178 6.72345 56.771 6.64572 56.9289 6.56563C57.3526 6.4113 57.3526 6.4113 57.8725 6.58458Z" fill="#2C3926"/>
<path d="M13.3403 20.1007C13.5394 20.2661 13.7378 20.4323 13.9359 20.5989C14.1018 20.7376 14.1018 20.7376 14.271 20.8791C14.5532 21.1404 14.5532 21.1404 14.7265 21.487C14.4978 21.5441 14.2691 21.6013 14.0334 21.6602C14.0334 21.5459 14.0334 21.4315 14.0334 21.3137C13.7475 21.3137 13.4616 21.3137 13.167 21.3137C13.2242 20.9134 13.2814 20.5131 13.3403 20.1007Z" fill="#2E3B2A"/>
<path d="M40.1983 26.1655C40.2554 26.1655 40.3126 26.1655 40.3715 26.1655C40.3715 26.4514 40.3715 26.7374 40.3715 27.0319C40.6003 26.9747 40.829 26.9176 41.0647 26.8587C40.9347 27.281 40.9347 27.281 40.7181 27.7251C40.358 27.8394 40.358 27.8394 40.025 27.8983C40.0203 27.642 40.0169 27.3857 40.0141 27.1294C40.0121 26.9867 40.0101 26.8439 40.0081 26.6969C40.025 26.3388 40.025 26.3388 40.1983 26.1655Z" fill="#364330"/>
<path d="M20.7905 25.4724C21.3671 25.7413 21.7411 26.0453 22.1768 26.5121C22.2911 26.3406 22.4055 26.169 22.5233 25.9923C22.6377 26.4497 22.7521 26.9072 22.8699 27.3785C22.7555 27.3785 22.6412 27.3785 22.5233 27.3785C22.5233 27.2641 22.5233 27.1498 22.5233 27.0319C22.4206 26.9877 22.3178 26.9435 22.212 26.8979C21.7934 26.6649 21.5682 26.4268 21.2671 26.0572C21.1768 25.9478 21.0866 25.8383 20.9936 25.7256C20.9266 25.642 20.8596 25.5585 20.7905 25.4724Z" fill="#222E1D"/>
<path d="M53.7136 17.5013C53.8869 17.8479 53.8869 17.8479 53.8869 18.3677C53.7136 18.7468 53.7136 18.7468 53.5403 19.0609C53.3116 19.0609 53.0828 19.0609 52.8472 19.0609C53.0636 18.4614 53.3107 17.9957 53.7136 17.5013Z" fill="#2F3C2A"/>
<path d="M51.6344 33.9631C51.7488 33.9631 51.8631 33.9631 51.981 33.9631C51.981 34.0775 51.981 34.1919 51.981 34.3097C52.2097 34.2525 52.4384 34.1953 52.6741 34.1364C52.2734 34.5696 52.2734 34.5696 51.8077 35.0028C51.6361 35.0028 51.4646 35.0028 51.2878 35.0028C51.3755 34.627 51.4611 34.3098 51.6344 33.9631Z" fill="#323E2C"/>
<path d="M46.9559 29.8043C47.0899 30.3211 47.2005 30.8398 47.3024 31.3639C47.0165 31.3067 46.7306 31.2495 46.436 31.1906C46.5309 30.6058 46.6188 30.3099 46.9559 29.8043Z" fill="#303C2C"/>
<path d="M45.7429 33.0967C45.8 33.2682 45.8572 33.4398 45.9161 33.6165C46.0305 33.6737 46.1449 33.7309 46.2627 33.7898C46.2055 33.9042 46.1483 34.0185 46.0894 34.1364C46.0894 34.2507 46.0894 34.3651 46.0894 34.4829C45.8607 34.4829 45.632 34.4829 45.3963 34.4829C45.3391 34.5973 45.2819 34.7117 45.223 34.8295C45.159 33.6992 45.159 33.6992 45.4829 33.2808C45.5687 33.22 45.6545 33.1593 45.7429 33.0967Z" fill="#434F3D"/>
<path d="M46.2636 31.3638C46.4947 31.8258 46.3799 32.0858 46.2636 32.5767C46.1493 32.5767 46.0349 32.5767 45.9171 32.5767C45.8956 32.7125 45.8742 32.8484 45.8521 32.9883C45.7438 33.4431 45.7438 33.4431 45.3972 33.7897C45.5643 32.8877 45.7224 32.1264 46.2636 31.3638Z" fill="#2A3725"/>
<path d="M12.4738 5.3717C12.6453 5.42889 12.8169 5.48607 12.9936 5.54499C12.9936 5.65935 12.9936 5.77372 12.9936 5.89155C13.1652 5.83436 13.3367 5.77718 13.5135 5.71827C13.5706 5.83263 13.6278 5.947 13.6867 6.06483C12.9434 6.06483 12.2 6.06483 11.4341 6.06483C11.4913 5.89328 11.5484 5.72173 11.6074 5.54499C11.6074 5.65935 11.6074 5.77372 11.6074 5.89155C11.9497 5.83127 11.9497 5.83127 12.3005 5.71827C12.3577 5.6039 12.4149 5.48954 12.4738 5.3717Z" fill="#485340"/>
<path d="M6.5813 27.5518C6.98158 27.6089 7.38186 27.6661 7.79427 27.725C7.79427 27.8966 7.79427 28.0681 7.79427 28.2449C7.6799 28.2449 7.56554 28.2449 7.4477 28.2449C7.39052 28.3592 7.33334 28.4736 7.27442 28.5914C7.10287 28.5343 6.93133 28.4771 6.75458 28.4182C6.6974 28.1322 6.64021 27.8463 6.5813 27.5518Z" fill="#444F3C"/>
<path d="M59.7791 19.9274C59.8363 19.9274 59.8935 19.9274 59.9524 19.9274C59.9957 21.227 59.9957 21.227 59.6058 22.0067C59.4915 21.4921 59.3771 20.9775 59.2593 20.4472C59.4308 20.5044 59.6024 20.5616 59.7791 20.6205C59.7791 20.3918 59.7791 20.163 59.7791 19.9274Z" fill="#263421"/>
<path d="M8.66108 3.11914C8.6039 3.40505 8.54672 3.69097 8.4878 3.98555C8.37344 3.98555 8.25907 3.98555 8.14124 3.98555C8.08406 4.09991 8.02687 4.21428 7.96796 4.33211C7.91078 4.04619 7.85359 3.76028 7.79468 3.4657C8.31452 3.11914 8.31452 3.11914 8.66108 3.11914Z" fill="#384433"/>
<path d="M11.6074 18.3678C11.9505 18.6537 12.2936 18.9396 12.647 19.2342C12.1254 19.3961 11.9771 19.4152 11.4341 19.2342C11.4913 18.9483 11.5484 18.6624 11.6074 18.3678Z" fill="#2B3927"/>
<path d="M6.58191 27.8982C6.6391 27.8982 6.69628 27.8982 6.75519 27.8982C6.86956 28.2985 6.98393 28.6988 7.10176 29.1112C6.93021 29.1112 6.75866 29.1112 6.58191 29.1112C6.46755 29.2255 6.35318 29.3399 6.23535 29.4577C6.38697 28.0931 6.38697 28.0931 6.58191 27.8982Z" fill="#2F3D2B"/>
<path d="M56.6599 28.245C56.7742 28.3594 56.8886 28.4737 57.0064 28.5916C57.1208 28.5344 57.2351 28.4772 57.353 28.4183C57.2386 28.7042 57.1242 28.9901 57.0064 29.2847C56.8349 29.2275 56.6633 29.1703 56.4866 29.1114C56.5438 28.8255 56.6009 28.5396 56.6599 28.245Z" fill="#303D2B"/>
<path d="M51.1145 18.8877C51.2289 18.9449 51.3432 19.0021 51.4611 19.061C51.2336 19.57 51.2336 19.57 50.9412 20.1007C50.7697 20.1578 50.5981 20.215 50.4214 20.2739C50.6162 19.759 50.8066 19.3496 51.1145 18.8877Z" fill="#EDECE7"/>
<path d="M52.1549 9.53052C52.2121 9.64488 52.2693 9.75925 52.3282 9.87708C52.271 10.0486 52.2138 10.2202 52.1549 10.3969C51.8118 10.4541 51.4687 10.5113 51.1152 10.5702C51.4618 10.2236 51.8084 9.87708 52.1549 9.53052Z" fill="#283624"/>
</svg>
