<svg width="59" height="40" viewBox="0 0 59 40" fill="none" xmlns="http://www.w3.org/2000/svg">
<path d="M23.7805 11.3186C24.0233 11.5169 24.2647 11.717 24.5047 11.9186C24.6253 12.0151 24.7458 12.1115 24.8701 12.2109C27.5013 14.4043 29.3756 17.7826 29.8019 21.1887C30.0563 25.7795 29.1742 29.801 26.0877 33.3246C25.8392 33.5864 25.5874 33.8451 25.3324 34.1005C25.2069 34.2279 25.0815 34.3553 24.9522 34.4866C23.2058 36.1617 21.185 37.1081 18.8765 37.7423C18.7678 37.773 18.6591 37.8037 18.5472 37.8354C14.7946 38.7954 10.9239 37.9547 7.61999 36.087C4.18343 33.9664 1.90314 30.5965 0.947441 26.718C0.0938944 22.5178 0.819014 18.5062 3.13498 14.9041C3.45123 14.4907 3.78471 14.1164 4.14372 13.7395C4.22051 13.6556 4.29731 13.5716 4.37643 13.4851C5.60704 12.1432 6.82749 11.1184 8.44767 10.2633C8.61753 10.1717 8.78738 10.0802 8.96239 9.98587C13.6303 7.64611 19.6075 8.15284 23.7805 11.3186Z" fill="#3F4B39"/>
<path d="M45.0245 6.07128C45.8637 6.61625 46.4619 7.40511 46.7743 8.36099C47.0876 10.0269 47.0328 11.8995 46.0701 13.3381C45.743 13.7659 45.4122 14.1861 45.031 14.5673C44.9648 15.1628 44.9463 15.4516 45.3207 15.933C46.0068 16.4667 46.6193 16.623 47.4726 16.7814C48.7387 17.0456 49.8379 17.3223 50.645 18.4057C51.8454 20.4093 52.0895 22.8786 52.3909 25.1458C52.4169 25.3284 52.443 25.5109 52.4698 25.699C52.4918 25.8623 52.5137 26.0257 52.5364 26.194C52.7139 26.937 53.0888 27.4706 53.6324 27.9958C53.7242 28.0858 53.8159 28.1757 53.9105 28.2684C54.0526 28.4052 54.0526 28.4052 54.1976 28.5448C54.7429 29.0733 55.2762 29.5956 55.7559 30.1853C56.0762 30.6292 56.0762 30.6292 56.453 30.7899C56.6872 30.811 56.9218 30.8277 57.1565 30.8416C57.9022 30.9223 58.3841 31.0798 58.9361 31.6176C59.0285 32.2028 59.0595 32.5705 58.7498 33.0867C58.3279 33.3399 57.9309 33.3846 57.4462 33.4385C57.5794 33.5955 57.7125 33.7526 57.8497 33.9144C58.3589 34.515 58.4994 34.9074 58.4847 35.7198C58.3566 36.7589 57.7749 37.5439 56.9664 38.177C54.0334 40.096 50.5268 39.921 47.1687 39.9222C46.8326 39.9228 46.4965 39.9233 46.1603 39.9239C45.4588 39.9249 44.7574 39.9252 44.0559 39.9251C43.1634 39.9251 42.271 39.9273 41.3785 39.9302C40.6851 39.932 39.9918 39.9324 39.2984 39.9323C38.9697 39.9325 38.6409 39.9332 38.3122 39.9345C31.5711 39.9585 31.5711 39.9585 29.305 38.0735C28.3745 37.1308 28.0912 36.5536 28.0965 35.2212C28.1674 34.568 28.3972 34.2707 28.8084 33.7696C28.8084 33.6603 28.8084 33.5511 28.8084 33.4385C28.5353 33.3292 28.2621 33.22 27.9807 33.1074C28.1482 31.7557 28.1482 31.7557 28.7774 31.2244C29.0385 31.0913 29.0385 31.0913 29.305 30.9554C30.0357 30.573 30.5492 30.0621 31.0949 29.4553C31.1748 29.3687 31.2547 29.2822 31.337 29.1931C31.5068 29.0069 31.6739 28.8183 31.8387 28.6277C32.0406 28.3967 32.2495 28.1718 32.4626 27.951C33.5054 26.7981 33.7085 25.7472 33.8883 24.2305C33.95 23.7878 34.0161 23.3457 34.0823 22.9036C34.1133 22.6931 34.1444 22.4826 34.1764 22.2657C34.4351 20.6809 34.8267 18.8095 36.092 17.7125C37.0765 17.0574 37.9876 16.8582 39.1405 16.664C40.0562 16.488 40.5699 16.2358 41.2236 15.5605C41.417 15.0031 41.417 15.0031 41.2236 14.4018C40.9463 14.0856 40.9463 14.0856 40.6029 13.781C39.646 12.8954 39.306 11.9655 39.1809 10.6772C39.1382 9.09082 39.31 7.72724 40.4309 6.54009C41.7775 5.40517 43.4732 5.29015 45.0245 6.07128Z" fill="#3F4C39"/>
<path d="M21.0289 14.8984C22.2838 15.9058 23.3411 16.9848 24.1741 18.3746C24.2727 18.534 24.2727 18.534 24.3733 18.6966C25.6072 20.8975 25.6481 23.7418 25.0639 26.1445C24.2653 28.7419 22.5927 30.9388 20.2012 32.2797C17.7487 33.4694 14.8074 34.0101 12.1417 33.1695C11.8448 33.0472 11.5513 32.9162 11.2623 32.7763C11.1088 32.7061 10.9554 32.6359 10.7973 32.5636C9.62798 31.9813 8.707 31.2126 7.78599 30.2933C7.64291 30.1531 7.64291 30.1531 7.49695 30.01C5.74042 28.1394 5.02518 25.4034 5.05953 22.8897C5.18166 20.0363 6.52988 17.4769 8.61367 15.5605C12.0236 12.7938 17.3615 12.2585 21.0289 14.8984Z" fill="#F8F4EA"/>
<path d="M51.3221 20.692C51.7827 21.1527 51.7787 21.542 51.8911 22.1818C51.9225 22.3556 51.9225 22.3556 51.9545 22.5328C52.07 23.1808 52.1751 23.83 52.2745 24.4806C52.2952 24.6132 52.316 24.7458 52.3373 24.8825C52.377 25.1392 52.4151 25.3961 52.4513 25.6533C52.6569 26.9851 53.2652 27.6463 54.1983 28.5447C54.7436 29.0732 55.2769 29.5955 55.7566 30.1852C56.0769 30.629 56.0769 30.629 56.4537 30.7897C56.6879 30.8108 56.9225 30.8275 57.1572 30.8415C57.9029 30.9222 58.3848 31.0797 58.9367 31.6174C59.0291 32.2027 59.0602 32.5704 58.7505 33.0866C58.3286 33.3397 57.9315 33.3845 57.4469 33.4383C57.5801 33.5954 57.7132 33.7524 57.8504 33.9143C58.3596 34.5149 58.5001 34.9073 58.4854 35.7196C58.3573 36.7587 57.7756 37.5438 56.9671 38.1768C54.026 40.1011 50.5125 39.9202 47.1461 39.9162C46.8084 39.9164 46.4707 39.9165 46.133 39.9167C45.4287 39.917 44.7244 39.9166 44.0202 39.9158C43.1217 39.9149 42.2233 39.9154 41.3248 39.9164C40.6286 39.917 39.9325 39.9168 39.2363 39.9164C38.9051 39.9163 38.574 39.9164 38.2428 39.9168C34.9345 39.9199 34.9345 39.9199 33.4441 39.7287C33.3406 39.3356 33.3406 39.3356 33.2786 38.901C33.6096 38.57 33.6096 38.57 34.0338 38.2699C34.4845 37.8654 34.5536 37.6709 34.6029 37.0801C34.9306 37.0801 35.2584 37.0801 35.5961 37.0801C35.5414 36.9709 35.4868 36.8616 35.4305 36.7491C36.3066 36.2397 36.3066 36.2397 36.8997 36.3042C37.0158 36.3417 37.1318 36.3793 37.2514 36.418C37.3061 36.6365 37.3607 36.855 37.417 37.0801C37.5809 37.0801 37.7447 37.0801 37.9136 37.0801C37.9136 36.9709 37.9136 36.8616 37.9136 36.7491C38.1594 36.6671 38.1594 36.6671 38.4102 36.5835C38.4102 36.3104 38.4102 36.0373 38.4102 35.7558C38.1644 35.6739 38.1644 35.6739 37.9136 35.5903C38.0775 35.5084 38.0775 35.5084 38.2447 35.4248C38.769 35.6177 39.2769 35.8331 39.7885 36.0569C40.4013 36.3157 40.8874 36.4813 41.5554 36.418C41.6373 36.0902 41.6373 36.0902 41.7209 35.7558C41.7756 36.029 41.8302 36.3021 41.8865 36.5835C41.9411 36.3104 41.9957 36.0373 42.052 35.7558C42.4734 35.6154 42.6897 35.5842 43.128 35.6938C43.5496 35.7988 43.5496 35.7988 43.9143 35.5593C44.229 35.2333 44.3084 35.0401 44.3695 34.5971C44.5334 34.5971 44.6973 34.5971 44.8661 34.5971C44.8661 34.4878 44.8661 34.3786 44.8661 34.266C44.6203 34.1841 44.6203 34.1841 44.3695 34.1005C44.4788 34.1005 44.588 34.1005 44.7006 34.1005C44.5913 33.9366 44.4821 33.7727 44.3695 33.6039C44.2661 33.2418 44.2661 33.2418 44.204 32.9417C44.3303 32.9315 44.4566 32.9212 44.5868 32.9107C45.0698 32.8144 45.0698 32.8144 45.3317 32.352C45.3966 32.2188 45.4614 32.0857 45.5283 31.9485C45.419 31.8939 45.3098 31.8393 45.1972 31.783C45.2587 31.6908 45.3201 31.5986 45.3834 31.5036C45.5771 31.1114 45.5771 31.1114 45.3834 30.6656C45.322 30.5427 45.2605 30.4198 45.1972 30.2931C45.3065 30.2931 45.4157 30.2931 45.5283 30.2931C45.6102 30.1293 45.6102 30.1293 45.6938 29.9621C45.9145 29.7965 46.1352 29.631 46.356 29.4655C46.4379 29.3016 46.4379 29.3016 46.5215 29.1344C46.7673 29.2983 46.7673 29.2983 47.0181 29.4655C47.0181 29.2469 47.0181 29.0284 47.0181 28.8033C47.1274 28.8033 47.2366 28.8033 47.3492 28.8033C47.4311 29.213 47.4311 29.213 47.5147 29.631C47.5693 28.757 47.624 27.8829 47.6802 26.9824C47.7349 26.9824 47.7895 26.9824 47.8458 26.9824C47.8501 27.1405 47.8543 27.2986 47.8587 27.4616C47.9581 29.8953 47.9581 29.8953 49.2425 31.8864C49.9615 32.4636 50.7528 32.4659 51.646 32.4613C51.8301 32.4607 52.0141 32.4602 52.2037 32.4597C52.4894 32.4576 52.4894 32.4576 52.7808 32.4555C53.0713 32.4543 53.0713 32.4543 53.3677 32.4532C53.8446 32.4513 54.3214 32.4485 54.7983 32.4451C54.6982 32.3692 54.5981 32.2933 54.495 32.2151C54.0372 31.8678 53.5797 31.5202 53.1223 31.1726C52.9648 31.0532 52.8073 30.9338 52.6451 30.8108C52.3385 30.5777 52.0328 30.3436 51.7278 30.1084C51.4897 29.9254 51.2501 29.7444 51.0068 29.5684C50.3491 29.0729 50.0597 28.5162 49.7908 27.7584C49.7495 27.6483 49.7082 27.5382 49.6656 27.4248C49.2916 26.41 48.936 25.43 49.0045 24.3338C49.0865 24.5796 49.0865 24.5796 49.1701 24.8304C49.7869 24.6453 49.7869 24.6453 50.1633 24.1683C50.1633 24.3322 50.1633 24.496 50.1633 24.6649C50.3818 24.6103 50.6003 24.5556 50.8254 24.4994C50.8801 24.1716 50.9347 23.8438 50.991 23.5061C51.1002 23.5061 51.2095 23.5061 51.3221 23.5061C51.3045 23.1002 51.3045 23.1002 51.1565 22.6785C50.7474 22.4872 50.7474 22.4872 50.3288 22.3474C50.2469 22.1016 50.2469 22.1016 50.1633 21.8508C50.2726 21.6869 50.3818 21.523 50.4944 21.3542C50.9289 21.3231 50.9289 21.3231 51.3221 21.3542C51.3221 21.1357 51.3221 20.9171 51.3221 20.692ZM37.0859 37.0801C37.1405 37.1894 37.1952 37.2986 37.2514 37.4112C37.3061 37.302 37.3607 37.1927 37.417 37.0801C37.3077 37.0801 37.1985 37.0801 37.0859 37.0801ZM36.9204 37.4112C37.0859 37.7423 37.0859 37.7423 37.0859 37.7423L36.9204 37.4112Z" fill="#3E4B38"/>
<path d="M14.9031 15.7261C15.217 15.7577 15.217 15.7577 15.5653 15.8916C15.7965 16.1749 15.7965 16.1749 16.0063 16.5447C16.0853 16.6808 16.1643 16.817 16.2457 16.9572C16.3285 17.104 16.4112 17.2509 16.4964 17.4021C16.6726 17.7066 16.8494 18.0107 17.0266 18.3145C17.1587 18.5409 17.1587 18.5409 17.2934 18.7719C17.6525 19.3703 18.044 19.943 18.4415 20.5163C19.8523 22.5751 20.6881 24.6226 20.3658 27.1481C19.946 28.5726 19.1685 29.5592 17.8828 30.2933C16.6267 30.9363 15.1425 31.0147 13.7819 30.6755C12.1817 30.0871 11.0737 29.1473 10.2681 27.6447C9.62634 26.0695 9.85494 24.6019 10.4983 23.0731C11.222 21.5519 12.1125 20.1371 13.0319 18.7286C13.5573 17.9218 14.043 17.0971 14.5203 16.2608C14.7376 15.8916 14.7376 15.8916 14.9031 15.7261Z" fill="#D39F2F"/>
<path d="M45.0242 6.07128C45.8634 6.61625 46.4616 7.40511 46.774 8.36099C47.0873 10.0269 47.0325 11.8995 46.0698 13.3381C45.7427 13.7659 45.4119 14.1861 45.0307 14.5673C44.9679 15.1326 44.9525 15.4465 45.279 15.9227C45.8314 16.3232 46.37 16.5036 47.0171 16.7193C46.655 17.1435 46.655 17.1435 46.1894 17.547C45.7239 17.5159 45.7239 17.5159 45.3618 17.3814C45.3618 17.4907 45.3618 17.6 45.3618 17.7125C45.5256 17.7945 45.5256 17.7945 45.6928 17.8781C44.9939 18.1437 44.674 18.2651 43.965 17.9815C43.8251 17.8927 43.6851 17.804 43.5409 17.7125C43.6501 17.4394 43.7594 17.1662 43.8719 16.8848C43.8173 16.9395 43.7627 16.9941 43.7064 17.0504C43.5425 17.105 43.3786 17.1596 43.2098 17.2159C43.1313 17.3525 43.0527 17.489 42.9718 17.6297C42.7132 18.0436 42.7132 18.0436 42.3821 18.147C42.2729 18.1675 42.1636 18.188 42.051 18.2091C41.7646 18.4539 41.7646 18.4539 41.5544 18.7057C41.5544 18.5965 41.5544 18.4872 41.5544 18.3747C41.0497 18.2073 41.0497 18.2073 40.5612 18.3747C40.4066 17.8763 40.3883 17.7346 40.5612 17.2159C40.4793 17.052 40.4793 17.052 40.3957 16.8848C39.8646 16.8848 39.358 17.0308 38.8405 17.1435C38.412 17.2154 38.0151 17.2284 37.5815 17.2159C38.0328 16.7646 38.4049 16.775 39.03 16.6676C40.3038 16.4096 40.3038 16.4096 41.2233 15.5605C41.4167 15.0031 41.4167 15.0031 41.2233 14.4018C40.946 14.0856 40.946 14.0856 40.6026 13.781C39.6457 12.8954 39.3057 11.9655 39.1807 10.6772C39.1379 9.09082 39.3097 7.72724 40.4306 6.54009C41.7772 5.40517 43.4729 5.29015 45.0242 6.07128Z" fill="#3F4B38"/>
<path d="M37.4163 17.3815C37.307 17.4566 37.1978 17.5317 37.0852 17.6091C36.976 17.6978 36.8667 17.7866 36.7542 17.8781C36.7542 17.9873 36.7542 18.0966 36.7542 18.2091C36.8634 18.2091 36.9727 18.2091 37.0852 18.2091C37.1108 18.4038 37.1108 18.4038 37.137 18.6023C37.2137 19.0915 37.2137 19.0915 37.7474 19.3679C37.6603 19.5062 37.6603 19.5062 37.5715 19.6472C37.3778 20.1249 37.4705 20.363 37.5818 20.8577C37.5094 21.2405 37.5094 21.2405 37.4163 21.5199C37.6348 21.4652 37.8533 21.4106 38.0784 21.3543C38.1023 21.2246 38.1262 21.0949 38.1509 20.9612C38.244 20.5267 38.244 20.5267 38.4095 20.1956C38.5734 20.2502 38.7373 20.3048 38.9061 20.3611C38.8242 20.6069 38.8242 20.6069 38.7406 20.8577C38.6313 20.8031 38.5221 20.7485 38.4095 20.6922C38.4095 20.8561 38.4095 21.02 38.4095 21.1888C38.5734 21.2434 38.7373 21.2981 38.9061 21.3543C38.9061 21.4636 38.9061 21.5728 38.9061 21.6854C38.6603 21.6035 38.6603 21.6035 38.4095 21.5199C38.191 21.9023 37.9725 22.2847 37.7474 22.6786C37.6381 22.6786 37.5289 22.6786 37.4163 22.6786C37.4163 22.7879 37.4163 22.8971 37.4163 23.0097C37.2524 23.0916 37.2524 23.0916 37.0852 23.1752C37.1945 23.2845 37.3037 23.3937 37.4163 23.5063C37.2013 25.7826 36.4299 28.5058 34.6449 30.0366C34.4184 30.2173 34.1904 30.396 33.9607 30.5727C33.7914 30.7073 33.7914 30.7073 33.6187 30.8446C32.9123 31.4022 32.1909 31.9211 31.457 32.4453C32.768 32.4999 34.0791 32.5545 35.4299 32.6108C35.4299 32.6655 35.4299 32.7201 35.4299 32.7764C35.1533 32.8122 35.1533 32.8122 34.8712 32.8488C34.3007 32.9061 34.3007 32.9061 33.94 33.1074C33.94 33.2167 33.94 33.3259 33.94 33.4385C34.2678 33.2746 34.2678 33.2746 34.6022 33.1074C34.7367 33.6351 34.7367 33.6351 34.7677 34.2662C34.3953 34.7007 34.3953 34.7007 33.94 35.0939C33.766 35.3645 33.599 35.64 33.4434 35.9216C33.3342 36.0854 33.2249 36.2493 33.1123 36.4182C33.0031 36.3635 32.8938 36.3089 32.7813 36.2526C32.7266 36.4711 32.672 36.6896 32.6157 36.9148C32.3699 36.7509 32.3699 36.7509 32.1191 36.5837C32.283 36.4198 32.283 36.4198 32.4502 36.2526C32.5107 36.0333 32.565 35.8123 32.6157 35.5905C32.7228 35.3133 32.8325 35.0371 32.9468 34.7628C32.7283 34.7628 32.5098 34.7628 32.2847 34.7628C32.3188 34.855 32.3529 34.9472 32.3881 35.0421C32.4697 35.5452 32.3592 35.8086 32.1191 36.2526C31.8733 36.3346 31.8733 36.3346 31.6225 36.4182C31.6225 36.3089 31.6225 36.1997 31.6225 36.0871C31.0294 35.9212 31.0294 35.9212 30.4638 36.0871C30.4638 36.1963 30.4638 36.3056 30.4638 36.4182C30.2999 36.582 30.2999 36.582 30.1327 36.7492C30.1327 36.9677 30.1327 37.1863 30.1327 37.4114C29.9688 37.3568 29.8049 37.3021 29.6361 37.2458C29.5541 37.4097 29.5541 37.4097 29.4705 37.5769C29.9703 38.1535 30.3924 38.3701 31.1259 38.5701C31.1805 38.4609 31.2352 38.3516 31.2914 38.2391C31.4007 38.2391 31.51 38.2391 31.6225 38.2391C31.6225 38.4576 31.6225 38.6761 31.6225 38.9012C31.8683 39.0651 31.8683 39.0651 32.1191 39.2323C30.7446 39.1446 29.7209 38.5744 28.8084 37.5459C28.1549 36.7547 28.0924 36.2417 28.0965 35.2213C28.1674 34.568 28.3972 34.2707 28.8084 33.7696C28.8084 33.6603 28.8084 33.5511 28.8084 33.4385C28.5353 33.3293 28.2621 33.22 27.9807 33.1074C28.1482 31.7557 28.1482 31.7557 28.7774 31.2245C28.9515 31.1357 29.1256 31.0469 29.305 30.9555C30.0357 30.573 30.5492 30.0621 31.0949 29.4553C31.1748 29.3688 31.2547 29.2822 31.337 29.1931C31.5068 29.0069 31.6739 28.8183 31.8387 28.6278C32.0406 28.3967 32.2495 28.1718 32.4626 27.9511C33.5054 26.7982 33.7085 25.7472 33.8883 24.2305C33.95 23.7878 34.0161 23.3457 34.0823 22.9037C34.1133 22.6932 34.1444 22.4826 34.1764 22.2658C34.4811 20.3989 34.98 18.5659 36.5369 17.3711C36.9197 17.2159 36.9197 17.2159 37.4163 17.3815Z" fill="#3D4A37"/>
<path d="M45.3626 20.3608C45.5265 20.4155 45.6903 20.4701 45.8592 20.5264C45.8046 20.6903 45.7499 20.8541 45.6936 21.023C45.8029 21.0776 45.9122 21.1322 46.0247 21.1885C46.0247 21.3524 46.0247 21.5163 46.0247 21.6851C45.8608 21.6851 45.697 21.6851 45.5281 21.6851C45.4735 21.9036 45.4189 22.1221 45.3626 22.3473C45.2567 22.3678 45.1509 22.3882 45.0418 22.4094C44.9292 22.4435 44.8165 22.4776 44.7004 22.5128C44.6458 22.6221 44.5912 22.7313 44.5349 22.8439C44.6373 22.8097 44.7397 22.7756 44.8453 22.7404C45.0194 22.7097 45.0194 22.7097 45.197 22.6784C45.3063 22.7876 45.4155 22.8969 45.5281 23.0094C45.4564 23.0709 45.3847 23.1323 45.3108 23.1957C44.6299 23.9522 44.3694 24.8235 44.3694 25.8235C44.2874 25.9874 44.2874 25.9874 44.2038 26.1546C44.3131 26.1546 44.4223 26.1546 44.5349 26.1546C44.5349 26.4278 44.5349 26.7009 44.5349 26.9823C44.371 27.0369 44.2071 27.0916 44.0383 27.1478C43.9563 27.3117 43.9563 27.3117 43.8727 27.4789C44.0366 27.5609 44.0366 27.5609 44.2038 27.6445C44.1577 27.7981 44.1577 27.7981 44.1107 27.9548C43.9991 28.3135 43.9991 28.3135 44.2038 28.6377C44.3131 28.6377 44.4223 28.6377 44.5349 28.6377C44.5349 28.3645 44.5349 28.0914 44.5349 27.81C44.6988 27.8919 44.6988 27.8919 44.866 27.9755C44.866 28.3033 44.866 28.631 44.866 28.9687C45.0503 28.9278 45.0503 28.9278 45.2384 28.886C45.6936 28.8032 45.6936 28.8032 46.3558 28.8032C46.4377 28.6393 46.4377 28.6393 46.5213 28.4721C46.3574 28.4721 46.1936 28.4721 46.0247 28.4721C46.0247 28.3629 46.0247 28.2536 46.0247 28.1411C46.134 28.1411 46.2432 28.1411 46.3558 28.1411C46.4002 28.042 46.4446 27.943 46.4903 27.841C46.6844 27.4835 46.8845 27.2541 47.1835 26.9823C47.2927 27.0369 47.402 27.0916 47.5145 27.1478C47.5692 26.984 47.6238 26.8201 47.6801 26.6512C47.7893 26.7059 47.8986 26.7605 48.0112 26.8168C48.175 25.7242 48.3389 24.6317 48.5078 23.506C48.617 23.506 48.7263 23.506 48.8388 23.506C48.8596 23.6009 48.8803 23.6958 48.9017 23.7936C49.1378 24.8615 49.3945 25.923 49.6665 26.9823C49.7417 27.2809 49.7417 27.2809 49.8185 27.5856C50.3477 29.1991 51.654 30.0058 52.9773 30.9552C53.2726 31.174 53.5667 31.3944 53.8605 31.6153C54.1111 31.803 54.3637 31.988 54.6165 32.1728C54.7883 32.3075 54.7883 32.3075 54.9637 32.445C54.9637 32.4996 54.9637 32.5543 54.9637 32.6105C54.2705 32.6202 53.5774 32.6261 52.8841 32.6312C52.6886 32.634 52.493 32.6368 52.2915 32.6396C49.9841 32.6526 49.9841 32.6526 49.1518 32.0098C48.4746 31.2117 48.0932 30.4841 47.8456 29.4654C47.6817 29.6292 47.6817 29.6292 47.5145 29.7964C47.4787 29.6377 47.4787 29.6377 47.4421 29.4757C47.3804 29.1383 47.3804 29.1383 47.1835 28.9687C47.1288 29.1873 47.0742 29.4058 47.0179 29.6309C46.7721 29.5489 46.7721 29.5489 46.5213 29.4654C46.2387 29.6773 45.9628 29.8987 45.6936 30.1275C45.5298 30.1821 45.3659 30.2368 45.197 30.293C45.197 30.4023 45.197 30.5115 45.197 30.6241C45.3609 30.7061 45.3609 30.7061 45.5281 30.7896C45.61 31.0355 45.61 31.0355 45.6936 31.2863C45.5298 31.4501 45.3659 31.614 45.197 31.7829C45.3609 31.8375 45.5248 31.8921 45.6936 31.9484C45.395 32.4888 45.2245 32.7578 44.7004 33.1072C44.7004 32.9979 44.7004 32.8887 44.7004 32.7761C44.5912 32.8853 44.4819 32.9946 44.3694 33.1072C44.424 33.2164 44.4786 33.3257 44.5349 33.4382C44.6479 33.8237 44.7584 34.2099 44.866 34.597C44.7021 34.597 44.5382 34.597 44.3694 34.597C44.3557 34.7233 44.342 34.8496 44.328 34.9798C44.2038 35.4247 44.2038 35.4247 43.9555 35.7351C43.316 36.0228 42.7275 35.8756 42.0518 35.7557C42.1065 36.0289 42.1611 36.302 42.2174 36.5834C42.1081 36.5834 41.9989 36.5834 41.8863 36.5834C41.8317 36.4195 41.777 36.2557 41.7208 36.0868C41.6388 36.3326 41.6388 36.3326 41.5552 36.5834C40.3692 36.5025 39.3441 36.0301 38.2548 35.5799C38.0627 35.5017 37.8705 35.4234 37.6726 35.3429C37.2006 35.1506 36.7291 34.9571 36.2581 34.7625C36.3127 34.544 36.3673 34.3255 36.4236 34.1004C37.4654 34.1902 38.3305 34.5346 39.2894 34.9384C39.5852 35.0615 39.8811 35.1842 40.1773 35.3063C40.3069 35.3608 40.4365 35.4152 40.57 35.4713C40.8875 35.6093 40.8875 35.6093 41.2242 35.5902C41.1695 35.3171 41.1149 35.0439 41.0586 34.7625C41.2771 34.8718 41.4956 34.981 41.7208 35.0936C41.8027 34.8478 41.8027 34.8478 41.8863 34.597C42.2687 34.6516 42.6511 34.7062 43.0451 34.7625C43.127 34.5167 43.127 34.5167 43.2106 34.2659C43.3745 34.2659 43.5384 34.2659 43.7072 34.2659C43.6885 33.9416 43.6885 33.9416 43.5417 33.6038C43.1294 33.3891 43.1294 33.3891 42.714 33.2727C43.1407 32.8344 43.5278 32.4542 44.0383 32.1139C44.0383 31.9501 44.0383 31.7862 44.0383 31.6173C43.6013 31.6173 43.1642 31.6173 42.714 31.6173C42.7242 31.8256 42.7345 32.0339 42.745 32.2484C42.7485 32.8957 42.7485 32.8957 42.4657 33.2727C42.3837 33.3273 42.3018 33.3819 42.2174 33.4382C42.1627 33.329 42.1081 33.2197 42.0518 33.1072C41.888 33.1618 41.7241 33.2164 41.5552 33.2727C41.5138 32.3416 41.5138 32.3416 41.8863 31.7829C41.7224 31.7282 41.5585 31.6736 41.3897 31.6173C41.3897 31.2349 41.3897 30.8526 41.3897 30.4586C41.5228 30.4108 41.656 30.363 41.7932 30.3137C42.2393 30.1718 42.2393 30.1718 42.3829 29.7964C42.4922 29.7964 42.6014 29.7964 42.714 29.7964C42.3063 29.3887 41.9348 29.3002 41.3897 29.1343C41.446 29.2777 41.446 29.2777 41.5035 29.424C41.5552 29.7964 41.5552 29.7964 41.3173 30.1689C41.2319 30.2645 41.1466 30.3601 41.0586 30.4586C40.7855 30.4039 40.5123 30.3493 40.2309 30.293C40.2856 30.1292 40.3402 29.9653 40.3965 29.7964C40.3418 29.6872 40.2872 29.5779 40.2309 29.4654C39.8479 29.3444 39.4615 29.2334 39.0722 29.1343C39.1814 28.9704 39.2907 28.8065 39.4033 28.6377C39.4579 28.7469 39.5125 28.8562 39.5688 28.9687C39.6234 28.7502 39.678 28.5317 39.7343 28.3066C39.4885 28.3885 39.4885 28.3885 39.2377 28.4721C38.9919 28.3902 38.9919 28.3902 38.7411 28.3066C38.6865 28.4705 38.6319 28.6344 38.5756 28.8032C38.5549 27.6858 38.5549 27.6858 38.7411 27.3134C38.8504 27.3134 38.9596 27.3134 39.0722 27.3134C39.0176 27.5865 38.9629 27.8596 38.9066 28.1411C39.289 28.0318 39.6714 27.9226 40.0654 27.81C40.12 27.5915 40.1747 27.373 40.2309 27.1478C40.1217 27.0932 40.0124 27.0386 39.8999 26.9823C39.975 26.8833 40.0501 26.7843 40.1275 26.6823C40.3357 26.4019 40.5338 26.1141 40.7275 25.8235C41.1621 25.7097 41.1621 25.7097 41.5552 25.658C41.4543 26.247 41.294 26.7643 41.0586 27.3134C41.004 27.2041 40.9494 27.0949 40.8931 26.9823C40.7838 26.9823 40.6746 26.9823 40.562 26.9823C40.6166 27.1462 40.6713 27.3101 40.7275 27.4789C40.8812 27.4243 41.0348 27.3697 41.1931 27.3134C41.8118 27.1193 42.0995 27.1085 42.714 27.3134C42.6564 26.9864 42.6564 26.9864 42.5484 26.6512C42.3846 26.5693 42.3846 26.5693 42.2174 26.4857C42.272 26.6496 42.3266 26.8135 42.3829 26.9823C42.2737 26.9823 42.1644 26.9823 42.0518 26.9823C41.7208 26.4857 41.7208 26.4857 41.7415 26.0615C41.8863 25.658 41.8863 25.658 42.2277 25.4407C42.3336 25.4032 42.4394 25.3656 42.5484 25.3269C42.5484 25.4362 42.5484 25.5454 42.5484 25.658C42.9343 25.4993 42.9343 25.4993 43.2106 24.9959C43.0218 24.7921 43.0218 24.7921 42.6209 24.5924C42.4877 24.507 42.3546 24.4217 42.2174 24.3337C42.2174 24.2245 42.2174 24.1152 42.2174 24.0026C43.0037 23.8164 43.0037 23.8164 43.3761 24.0026C43.2942 23.7568 43.2942 23.7568 43.2106 23.506C43.3198 23.4514 43.4291 23.3968 43.5417 23.3405C43.4597 23.1766 43.4597 23.1766 43.3761 23.0094C43.4854 22.9548 43.5946 22.9002 43.7072 22.8439C43.8982 22.4619 43.9612 22.1036 44.0383 21.6851C44.2022 21.6851 44.366 21.6851 44.5349 21.6851C44.5349 21.5213 44.5349 21.3574 44.5349 21.1885C44.6988 21.1885 44.8626 21.1885 45.0315 21.1885C45.0315 21.0246 45.0315 20.8608 45.0315 20.6919C45.1408 20.6919 45.25 20.6919 45.3626 20.6919C45.3626 20.5827 45.3626 20.4734 45.3626 20.3608Z" fill="#414E3B"/>
<path d="M40.8929 16.7194C40.7836 16.8286 40.6744 16.9379 40.5618 17.0504C40.6437 17.2143 40.6437 17.2143 40.7273 17.3815C40.6549 17.7333 40.6549 17.7333 40.5618 18.0437C40.9442 18.1529 41.3266 18.2622 41.7206 18.3747C41.8332 18.2518 41.8332 18.2518 41.9482 18.1264C42.2172 17.8781 42.2172 17.8781 42.5482 17.8781C42.5021 18.0215 42.5021 18.0215 42.4551 18.1678C42.3564 18.5332 42.3564 18.5332 42.4655 18.861C42.5711 19.2967 42.4762 19.5936 42.3827 20.0301C42.3861 20.1974 42.3895 20.3647 42.393 20.537C42.3823 21.0415 42.295 21.256 42.0516 21.6855C41.9907 21.9047 41.9338 22.1251 41.8861 22.3476C41.7222 22.3476 41.5583 22.3476 41.3895 22.3476C41.4441 22.5115 41.4987 22.6754 41.555 22.8442C41.3274 23.0925 41.3274 23.0925 41.0584 23.3408C40.9492 23.3408 40.8399 23.3408 40.7273 23.3408C40.7273 23.1769 40.7273 23.0131 40.7273 22.8442C40.5635 22.8988 40.3996 22.9535 40.2307 23.0097C40.1761 22.9551 40.1215 22.9005 40.0652 22.8442C40.0106 23.2266 39.9559 23.609 39.8997 24.003C40.0635 23.9483 40.2274 23.8937 40.3963 23.8374C40.5601 24.0013 40.724 24.1652 40.8929 24.334C40.7836 24.334 40.6744 24.334 40.5618 24.334C40.5618 24.4433 40.5618 24.5526 40.5618 24.6651C40.3979 24.6651 40.234 24.6651 40.0652 24.6651C40.0584 24.7675 40.0515 24.87 40.0445 24.9755C39.9967 25.0916 39.9489 25.2077 39.8997 25.3273C39.3927 25.5342 39.3927 25.5342 38.9064 25.6583C38.9064 25.3273 38.9064 25.3273 39.2375 24.9962C39.0736 24.9142 39.0736 24.9142 38.9064 24.8307C38.9884 24.6668 38.9884 24.6668 39.072 24.4996C38.5107 24.8738 38.4507 25.039 38.2443 25.6583C38.2067 25.7642 38.1692 25.87 38.1305 25.9791C38.0578 26.3388 38.0578 26.3388 38.1544 26.7699C38.4383 28.4878 38.3606 30.1119 37.4166 31.6177C36.6333 32.4371 35.7153 32.5789 34.6224 32.6356C34.1152 32.6433 33.6095 32.6399 33.1023 32.6316C32.84 32.6293 32.84 32.6293 32.5724 32.627C32.1455 32.6232 31.7186 32.6178 31.2917 32.6109C31.9086 31.9672 32.5615 31.4156 33.2678 30.8727C33.5636 30.644 33.8589 30.4148 34.1531 30.1841C34.3383 30.0394 34.5249 29.8965 34.7131 29.7556C36.3406 28.4929 36.8276 25.9812 37.2064 24.0482C37.3095 23.4826 37.3095 23.4826 36.92 23.0097C37.0839 23.0097 37.2478 23.0097 37.4166 23.0097C37.4166 22.9005 37.4166 22.7912 37.4166 22.6787C37.5259 22.6787 37.6351 22.6787 37.7477 22.6787C37.7921 22.5524 37.8364 22.426 37.8822 22.2959C38.0695 21.8719 38.2298 21.6529 38.5754 21.3544C38.5754 21.4636 38.5754 21.5729 38.5754 21.6855C38.6846 21.6855 38.7939 21.6855 38.9064 21.6855C38.8245 21.6138 38.7425 21.5421 38.6581 21.4682C38.4098 21.1888 38.4098 21.1888 38.4098 20.6922C38.5191 20.6922 38.6283 20.6922 38.7409 20.6922C38.7409 20.583 38.7409 20.4737 38.7409 20.3612C38.6316 20.3065 38.5224 20.2519 38.4098 20.1956C38.3006 20.578 38.1913 20.9604 38.0787 21.3544C37.9729 21.3749 37.8671 21.3954 37.758 21.4165C37.6454 21.4506 37.5327 21.4847 37.4166 21.5199C37.362 21.6292 37.3073 21.7384 37.2511 21.851C37.2511 19.699 37.2511 19.699 37.5821 19.3679C37.3636 19.2041 37.1451 19.0402 36.92 18.8713C36.9746 18.6528 37.0292 18.4343 37.0855 18.2092C36.9763 18.2092 36.867 18.2092 36.7545 18.2092C36.6725 17.9634 36.6725 17.9634 36.5889 17.7126C36.8476 17.3815 36.8476 17.3815 37.2511 17.0504C37.7373 17.0401 37.7373 17.0401 38.0335 17.0608C38.7402 17.0414 39.418 16.8227 40.0995 16.6463C40.5618 16.5538 40.5618 16.5538 40.8929 16.7194Z" fill="#414D3B"/>
<path d="M35.2442 0.434448C35.8711 0.509674 36.0379 0.672821 36.4237 1.15867C36.8322 1.97577 36.6995 3.19077 36.4877 4.05685C35.7185 5.94768 34.0369 7.39323 32.606 8.79405C32.2586 9.13532 31.9118 9.47714 31.5656 9.8196C31.483 9.90119 31.4005 9.98279 31.3155 10.0669C30.7505 10.6295 30.2173 11.2112 29.7002 11.8178C29.4255 12.1372 29.1331 12.4333 28.8297 12.7255C28.4324 13.1082 28.4324 13.1082 28.1468 13.5739C27.5376 13.3196 27.1557 12.9479 26.6984 12.4772C26.5661 12.3419 26.4338 12.2067 26.2975 12.0673C26.1976 11.9636 26.0978 11.8599 25.9949 11.753C26.69 10.7782 27.4522 9.90467 28.2813 9.04235C28.5173 8.79439 28.7531 8.5463 28.9888 8.29808C29.1009 8.18011 29.2131 8.06213 29.3287 7.94058C29.8276 7.41248 30.3134 6.87381 30.7941 6.3291C31.0237 6.07369 31.2595 5.8239 31.5003 5.57902C32.7325 4.30082 33.4429 2.85504 34.2057 1.26989C34.4999 0.707854 34.6034 0.518033 35.2442 0.434448Z" fill="#3E4A38"/>
<path d="M49.3353 34.4315C49.4173 34.7592 49.4173 34.7592 49.5009 35.0936C49.2277 35.2029 48.9546 35.3121 48.6732 35.4247C49.116 35.6999 49.5008 35.9213 49.9975 36.0869C50.519 35.9407 50.519 35.9407 50.9907 35.7558C50.8268 36.1382 50.6629 36.5206 50.4941 36.9145C50.658 36.9965 50.658 36.9965 50.8252 37.0801C50.8252 37.244 50.8252 37.4078 50.8252 37.5767C50.5794 37.6586 50.5794 37.6586 50.3286 37.7422C50.5163 37.8105 50.7041 37.8788 50.8976 37.9491C51.4873 38.2388 51.4873 38.2388 51.6425 38.6009C51.6459 38.6999 51.6493 38.799 51.6529 38.901C51.4343 38.8463 51.2158 38.7917 50.9907 38.7354C50.9361 38.8447 50.8815 38.9539 50.8252 39.0665C50.7159 39.1758 50.6067 39.285 50.4941 39.3976C50.6034 39.4522 50.7126 39.5068 50.8252 39.5631C47.4602 39.9615 44.1099 39.9286 40.7274 39.8942C40.7274 39.8396 40.7274 39.7849 40.7274 39.7287C40.9391 39.7048 41.1508 39.6809 41.3689 39.6562C41.7632 39.6117 42.026 39.576 42.3828 39.3976C42.2736 39.2337 42.1643 39.0698 42.0517 38.901C42.0517 39.0102 42.0517 39.1195 42.0517 39.232C41.9425 39.232 41.8332 39.232 41.7207 39.232C41.7753 38.9043 41.8299 38.5765 41.8862 38.2388C41.7769 38.2388 41.6677 38.2388 41.5551 38.2388C41.5551 38.4027 41.5551 38.5666 41.5551 38.7354C41.3912 38.7354 41.2274 38.7354 41.0585 38.7354C41.0039 38.5716 40.9493 38.4077 40.893 38.2388C40.6923 38.2747 40.6923 38.2747 40.4875 38.3112C40.3106 38.342 40.1337 38.3727 39.9515 38.4044C39.7767 38.4351 39.602 38.4658 39.4219 38.4975C38.9646 38.5617 38.5395 38.5836 38.0789 38.5699C38.0789 38.3514 38.0789 38.1329 38.0789 37.9078C38.5765 37.6868 39.0709 37.5281 39.5978 37.3969C41.826 36.8411 43.9481 36.091 46.0882 35.2677C46.1997 35.2248 46.3113 35.1819 46.4262 35.1377C46.7317 35.0199 47.0368 34.9012 47.3419 34.7824C48.0434 34.5242 48.5872 34.4107 49.3353 34.4315ZM50.9907 37.7422C51.3218 37.9078 51.3218 37.9078 51.3218 37.9078L50.9907 37.7422Z" fill="#424E3C"/>
<path d="M48.5077 23.5062C48.617 23.5062 48.7262 23.5062 48.8388 23.5062C48.8595 23.6011 48.8803 23.696 48.9016 23.7938C49.1378 24.8617 49.3945 25.9232 49.6665 26.9825C49.7166 27.1816 49.7668 27.3807 49.8184 27.5858C50.3476 29.1993 51.6539 30.0059 52.9772 30.9554C53.2725 31.1742 53.5667 31.3945 53.8605 31.6155C54.111 31.8032 54.3637 31.9882 54.6164 32.173C54.731 32.2628 54.8456 32.3526 54.9636 32.4452C54.9636 32.4998 54.9636 32.5545 54.9636 32.6107C54.2705 32.6204 53.5773 32.6263 52.8841 32.6314C52.6885 32.6342 52.493 32.637 52.2915 32.6398C49.9841 32.6528 49.9841 32.6528 49.1518 32.01C47.9377 30.5792 47.755 29.324 47.8456 27.4791C47.929 26.7701 48.0484 26.0706 48.1766 25.3685C48.224 25.0977 48.224 25.0977 48.2723 24.8215C48.3493 24.3828 48.4278 23.9444 48.5077 23.5062Z" fill="#F6F2E9"/>
<path d="M37.2511 23.6718C37.3603 23.7264 37.4696 23.781 37.5821 23.8373C37.6805 24.1384 37.6805 24.1384 37.7593 24.5324C37.7882 24.6769 37.8172 24.8214 37.847 24.9702C38.6973 29.5747 38.6973 29.5747 37.4166 31.6175C36.6333 32.437 35.7153 32.5788 34.6224 32.6355C34.1152 32.6431 33.6095 32.6397 33.1023 32.6314C32.9274 32.6299 32.7526 32.6284 32.5724 32.6269C32.1455 32.623 31.7186 32.6176 31.2917 32.6107C31.9086 31.967 32.5615 31.4155 33.2678 30.8726C33.5636 30.6438 33.8589 30.4147 34.1531 30.184C34.3383 30.0393 34.5249 29.8963 34.7131 29.7555C36.411 28.4382 36.9416 25.7029 37.2511 23.6718Z" fill="#F7F3EA"/>
<path d="M47.5145 26.6512C47.6784 26.7059 47.8423 26.7605 48.0112 26.8168C47.9731 26.9435 47.9731 26.9435 47.9342 27.0728C47.8176 27.6072 47.7879 28.1335 47.7525 28.6791C47.7317 28.9927 47.7317 28.9927 47.7105 29.3128C47.7004 29.4724 47.6904 29.632 47.6801 29.7964C47.5162 29.6326 47.5162 29.6326 47.349 29.4654C47.349 29.2469 47.349 29.0284 47.349 28.8032C47.2398 29.0764 47.1305 29.3495 47.0179 29.6309C46.8541 29.5763 46.6902 29.5216 46.5213 29.4654C46.2387 29.6774 45.9628 29.8987 45.6936 30.1275C45.5298 30.1821 45.3659 30.2368 45.197 30.2931C45.197 30.4023 45.197 30.5116 45.197 30.6241C45.3063 30.6788 45.4155 30.7334 45.5281 30.7897C45.61 31.0355 45.61 31.0355 45.6936 31.2863C45.5298 31.4502 45.3659 31.614 45.197 31.7829C45.3609 31.8375 45.5248 31.8921 45.6936 31.9484C45.395 32.4888 45.2245 32.7578 44.7004 33.1072C44.7004 32.9979 44.7004 32.8887 44.7004 32.7761C44.5912 32.8854 44.4819 32.9946 44.3693 33.1072C44.424 33.2164 44.4786 33.3257 44.5349 33.4382C44.6479 33.8237 44.7584 34.2099 44.866 34.597C44.7021 34.597 44.5382 34.597 44.3693 34.597C44.3557 34.7233 44.342 34.8497 44.328 34.9798C44.2038 35.4247 44.2038 35.4247 43.9555 35.7351C43.316 36.0229 42.7275 35.8756 42.0518 35.7558C42.1338 36.1655 42.1338 36.1655 42.2174 36.5834C42.1081 36.5834 41.9989 36.5834 41.8863 36.5834C41.8317 36.4196 41.777 36.2557 41.7208 36.0868C41.6661 36.2507 41.6115 36.4146 41.5552 36.5834C40.3692 36.5025 39.3441 36.0301 38.2548 35.5799C38.0627 35.5017 37.8705 35.4235 37.6726 35.3429C37.2006 35.1506 36.7291 34.9571 36.2581 34.7625C36.3127 34.544 36.3673 34.3255 36.4236 34.1004C37.4654 34.1902 38.3305 34.5346 39.2894 34.9384C39.5852 35.0616 39.8811 35.1842 40.1773 35.3064C40.3069 35.3608 40.4365 35.4152 40.57 35.4713C40.8875 35.6093 40.8875 35.6093 41.2242 35.5902C41.1422 35.1805 41.1422 35.1805 41.0586 34.7625C41.2771 34.8718 41.4956 34.981 41.7208 35.0936C41.7754 34.9297 41.83 34.7658 41.8863 34.597C42.2687 34.6516 42.6511 34.7063 43.0451 34.7625C43.0997 34.5987 43.1543 34.4348 43.2106 34.2659C43.3745 34.2659 43.5384 34.2659 43.7072 34.2659C43.6885 33.9417 43.6885 33.9417 43.5417 33.6038C43.1294 33.3891 43.1294 33.3891 42.714 33.2727C43.1407 32.8344 43.5278 32.4542 44.0383 32.114C44.0383 31.9501 44.0383 31.7862 44.0383 31.6173C43.929 31.6173 43.8198 31.6173 43.7072 31.6173C43.7618 31.3988 43.8165 31.1803 43.8727 30.9552C43.7635 30.9006 43.6542 30.8459 43.5417 30.7897C43.4597 30.5438 43.4597 30.5438 43.3761 30.2931C43.2122 30.2931 43.0484 30.2931 42.8795 30.2931C42.7976 30.1292 42.7976 30.1292 42.714 29.962C42.8779 29.962 43.0417 29.962 43.2106 29.962C43.1013 29.9074 42.9921 29.8527 42.8795 29.7964C42.9341 29.5779 42.9888 29.3594 43.0451 29.1343C43.4548 29.2982 43.4548 29.2982 43.8727 29.4654C43.8181 29.4107 43.7635 29.3561 43.7072 29.2998C43.7618 29.1906 43.8165 29.0813 43.8727 28.9688C44.228 28.9688 44.5833 28.97 44.9384 28.9791C45.5961 28.9631 46.0461 28.9474 46.5213 28.4721C46.3574 28.4721 46.1936 28.4721 46.0247 28.4721C46.0247 28.3629 46.0247 28.2536 46.0247 28.1411C46.134 28.1411 46.2432 28.1411 46.3558 28.1411C46.4002 28.0421 46.4446 27.9431 46.4903 27.841C46.6844 27.4835 46.8845 27.2541 47.1835 26.9823C47.3474 27.0643 47.3474 27.0643 47.5145 27.1479C47.5145 26.984 47.5145 26.8201 47.5145 26.6512Z" fill="#404D3A"/>
<path d="M29.471 24.996C29.5256 24.996 29.5803 24.996 29.6365 24.996C29.7061 27.2719 28.7842 29.357 27.6501 31.2864C27.4862 31.3683 27.4862 31.3683 27.319 31.4519C27.3737 31.3222 27.4283 31.1924 27.4846 31.0587C27.6697 30.6502 27.6697 30.6502 27.6501 30.2931C27.3223 30.4024 26.9946 30.5117 26.6569 30.6242C26.6569 30.4603 26.6569 30.2965 26.6569 30.1276C26.3838 30.1822 26.1106 30.2369 25.8292 30.2931C25.8838 30.0746 25.9385 29.8561 25.9947 29.631C26.1586 29.631 26.3225 29.631 26.4913 29.631C26.4367 29.5217 26.3821 29.4125 26.3258 29.2999C26.481 28.8654 26.481 28.8654 26.6569 28.4722C26.7661 28.4722 26.8754 28.4722 26.988 28.4722C26.988 28.1445 26.988 27.8167 26.988 27.479C26.7695 27.5336 26.5509 27.5883 26.3258 27.6446C26.278 27.5421 26.2302 27.4397 26.181 27.3342C26.0051 26.9604 26.0051 26.9604 25.6637 26.6513C25.3752 27.0316 25.101 27.4126 24.836 27.8101C24.7267 27.8101 24.6175 27.8101 24.5049 27.8101C24.341 28.2198 24.341 28.2198 24.1738 28.6378C24.1192 28.5285 24.0646 28.4193 24.0083 28.3067C24.1616 27.8748 24.1616 27.8748 24.3911 27.3549C24.6843 26.6863 24.9452 26.0228 25.1671 25.327C25.4948 25.4363 25.8226 25.5456 26.1603 25.6581C26.1603 25.7674 26.1603 25.8766 26.1603 25.9892C26.2695 25.9892 26.3788 25.9892 26.4913 25.9892C26.546 26.0438 26.6006 26.0984 26.6569 26.1547C26.9879 26.1615 27.3191 26.1618 27.6501 26.1547C27.7047 26.264 27.7594 26.3732 27.8156 26.4858C27.761 26.5951 27.7064 26.7043 27.6501 26.8169C27.8311 26.7418 28.012 26.6666 28.1984 26.5893C28.3002 26.547 28.402 26.5048 28.5069 26.4612C28.8528 26.309 28.8528 26.309 29.3055 25.9892C29.4269 25.4817 29.4269 25.4817 29.471 24.996Z" fill="#3F4B39"/>
<path d="M49.3353 34.4315C49.4173 34.7592 49.4173 34.7592 49.5009 35.0936C49.365 35.1381 49.365 35.1381 49.2265 35.1836C48.3269 35.4806 47.4355 35.7954 46.5464 36.1224C46.2692 36.2235 45.9919 36.3244 45.7146 36.4254C45.2866 36.5812 44.8588 36.7375 44.4314 36.8949C39.6753 38.6455 39.6753 38.6455 38.0789 38.5699C38.0789 38.3514 38.0789 38.1329 38.0789 37.9078C38.5765 37.6868 39.0709 37.5281 39.5978 37.3969C41.826 36.8411 43.9481 36.091 46.0882 35.2677C46.1997 35.2248 46.3113 35.1819 46.4262 35.1377C46.7317 35.0199 47.0368 34.9012 47.3419 34.7824C48.0434 34.5242 48.5872 34.4107 49.3353 34.4315Z" fill="#F4F3EF"/>
<path d="M48.1763 35.7559C48.0671 35.7559 47.9578 35.7559 47.8452 35.7559C47.7906 35.9198 47.736 36.0837 47.6797 36.2526C47.5158 36.3345 47.5158 36.3345 47.3486 36.4181C47.5125 36.582 47.6764 36.7459 47.8452 36.9147C47.6814 36.9693 47.5175 37.024 47.3486 37.0802C47.4033 37.1895 47.4579 37.2987 47.5142 37.4113C47.1864 37.4113 46.8587 37.4113 46.521 37.4113C46.521 37.5206 46.521 37.6298 46.521 37.7424C46.6848 37.797 46.8487 37.8516 47.0176 37.9079C46.852 38.4045 46.852 38.4045 46.3554 38.7356C46.4647 38.7902 46.5739 38.8449 46.6865 38.9011C46.6319 39.0104 46.5772 39.1196 46.521 39.2322C46.7395 39.2868 46.958 39.3415 47.1831 39.3977C46.9073 39.4048 46.6312 39.4045 46.3554 39.3977C46.3008 39.3431 46.2462 39.2885 46.1899 39.2322C46.1899 39.2868 46.1899 39.3415 46.1899 39.3977C45.9167 39.3977 45.6436 39.3977 45.3622 39.3977C45.3622 39.2885 45.3622 39.1792 45.3622 39.0667C45.2529 39.0667 45.1437 39.0667 45.0311 39.0667C45.0311 39.1759 45.0311 39.2852 45.0311 39.3977C44.8672 39.3977 44.7034 39.3977 44.5345 39.3977C44.5891 39.07 44.6438 38.7422 44.7001 38.4045C44.5908 38.3499 44.4815 38.2953 44.369 38.239C44.5875 38.1844 44.806 38.1297 45.0311 38.0735C44.758 38.0735 44.4849 38.0735 44.2034 38.0735C44.1488 37.8549 44.0942 37.6364 44.0379 37.4113C43.8194 37.4113 43.6009 37.4113 43.3758 37.4113C43.3211 37.5206 43.2665 37.6298 43.2102 37.7424C43.101 37.6331 42.9917 37.5239 42.8792 37.4113C44.0027 36.9304 45.1338 36.4682 46.2727 36.0249C46.442 35.9567 46.442 35.9567 46.6147 35.8871C47.6041 35.5078 47.6041 35.5078 48.1763 35.7559Z" fill="#3E4B38"/>
<path d="M41.058 38.2389C41.058 38.4027 41.058 38.5666 41.058 38.7355C41.2219 38.7355 41.3858 38.7355 41.5546 38.7355C41.5546 38.5716 41.5546 38.4077 41.5546 38.2389C41.6639 38.2389 41.7731 38.2389 41.8857 38.2389C41.8311 38.5666 41.7764 38.8944 41.7202 39.2321C41.884 39.0682 42.0479 38.9043 42.2168 38.7355C42.2987 39.0632 42.2987 39.0632 42.3823 39.3976C43.748 39.4522 45.1137 39.5069 46.5207 39.5632C46.5207 39.6178 46.5207 39.6724 46.5207 39.7287C43.5827 39.829 40.6458 39.9112 37.7059 39.9149C37.5327 39.9155 37.5327 39.9155 37.3561 39.9162C37.0269 39.9171 36.6978 39.9167 36.3687 39.9162C36.0898 39.9159 36.0898 39.9159 35.8053 39.9156C35.2295 39.8929 34.6742 39.8194 34.1055 39.7287C34.1055 39.6741 34.1055 39.6194 34.1055 39.5632C34.2733 39.5582 34.2733 39.5582 34.4445 39.5532C34.9523 39.5374 35.46 39.5193 35.9678 39.5011C36.2318 39.4934 36.2318 39.4934 36.5012 39.4856C36.7557 39.476 36.7557 39.476 37.0153 39.4662C37.1713 39.461 37.3274 39.4558 37.4881 39.4504C37.9208 39.3966 38.2014 39.2856 38.575 39.0665C38.575 38.9573 38.575 38.848 38.575 38.7355C38.9477 38.3627 39.1262 38.3192 39.6303 38.2078C39.7579 38.1782 39.8855 38.1485 40.0169 38.1179C40.4142 38.0712 40.68 38.1172 41.058 38.2389Z" fill="#33402E"/>
<path d="M26.6568 31.4521C26.8753 31.4521 27.0938 31.4521 27.319 31.4521C27.0823 32.192 26.6753 32.6878 26.1499 33.242C26.068 33.3291 25.9861 33.4162 25.9018 33.506C24.8423 34.6212 23.787 35.5664 22.4563 36.3458C22.3558 36.4053 22.2552 36.4648 22.1516 36.5261C21.8627 36.6879 21.8627 36.6879 21.3596 36.9149C21.1958 36.8602 21.0319 36.8056 20.863 36.7493C21.4093 36.4762 21.9556 36.203 22.5184 35.9216C22.4638 35.7031 22.4091 35.4846 22.3529 35.2595C22.4046 34.8974 22.4046 34.8974 22.5184 34.5973C22.6277 34.5427 22.7369 34.4881 22.8495 34.4318C22.3652 34.3948 22.3652 34.3948 22.0218 34.5973C22.0764 34.3242 22.131 34.0511 22.1873 33.7697C22.3512 33.8243 22.5151 33.8789 22.6839 33.9352C22.6839 33.8259 22.6839 33.7167 22.6839 33.6041C23.015 33.7697 23.015 33.7697 23.3461 34.2663C23.9493 33.9708 23.9493 33.9708 24.5048 33.6041C24.6553 33.1968 24.6553 33.1968 24.6704 32.7764C24.8463 32.3936 24.8463 32.3936 25.0015 32.1143C25.3325 32.1143 25.6636 32.1143 25.9947 32.1143C26.1586 32.0597 26.3224 32.005 26.4913 31.9488C26.5459 31.7849 26.6005 31.621 26.6568 31.4521Z" fill="#3A4734"/>
<path d="M5.63302 27.4792C5.94623 27.8742 6.13358 28.1533 6.29516 28.638C6.24053 28.7473 6.18591 28.8565 6.12963 28.9691C5.96574 28.9691 5.80186 28.9691 5.63302 28.9691C5.68764 29.133 5.74227 29.2968 5.79855 29.4657C5.75291 29.7982 5.69884 30.1298 5.63302 30.4589C5.46913 30.4043 5.30525 30.3497 5.13641 30.2934C5.08178 30.1841 5.02715 30.0749 4.97087 29.9623C4.64311 30.1262 4.64311 30.1262 4.30872 30.2934C4.30872 30.1841 4.30872 30.0749 4.30872 29.9623C3.98096 30.1262 3.98096 30.1262 3.64658 30.2934C3.75583 30.348 3.86509 30.4026 3.97765 30.4589C3.97765 30.5682 3.97765 30.6774 3.97765 30.79C3.8684 30.79 3.75914 30.79 3.64658 30.79C3.64658 30.8992 3.64658 31.0085 3.64658 31.1211C3.53732 31.1211 3.42807 31.1211 3.3155 31.1211C3.26088 31.2303 3.20625 31.3396 3.14997 31.4521C2.956 31.1008 2.76302 30.749 2.57059 30.3968C2.51532 30.297 2.46005 30.1971 2.40311 30.0942C1.99121 29.3377 1.99121 29.3377 1.99121 28.9691C2.31897 28.9145 2.64674 28.8598 2.98443 28.8035C3.03906 28.9674 3.09368 29.1313 3.14997 29.3002C3.54279 29.3693 3.54279 29.3693 3.97765 29.3002C4.15128 29.0293 4.31685 28.7531 4.47426 28.4725C4.80533 28.3897 4.80533 28.3897 5.13641 28.3069C5.42965 27.8965 5.42965 27.8965 5.63302 27.4792Z" fill="#414D3B"/>
<path d="M7.1235 16.8848C7.1235 17.5648 6.80356 18.0369 6.4924 18.6229C5.18829 21.1811 5.11037 23.5029 5.46814 26.3204C5.3862 26.0745 5.3862 26.0745 5.3026 25.8237C4.81096 25.9057 4.81096 25.9057 4.30938 25.9893C4.20013 25.7161 4.09087 25.443 3.97831 25.1616C4.47492 25.1616 4.47492 25.1616 4.97153 25.3271C4.9169 24.4531 4.86227 23.5791 4.80599 22.6785C4.64211 22.6785 4.47823 22.6785 4.30938 22.6785C4.30938 22.5693 4.30938 22.46 4.30938 22.3475C4.20013 22.2928 4.09087 22.2382 3.97831 22.1819C3.93216 21.6436 3.95065 21.3996 4.23696 20.9301C4.51808 20.5485 4.51808 20.5485 4.42319 20.1438C4.38563 20.0516 4.34808 19.9594 4.30938 19.8644C4.46643 19.8508 4.62349 19.8371 4.7853 19.823C5.31992 19.7567 5.31992 19.7567 5.53021 19.3575C5.56436 19.2516 5.5985 19.1458 5.63367 19.0367C5.57905 18.9821 5.52442 18.9275 5.46814 18.8712C5.46814 18.762 5.46814 18.6527 5.46814 18.5401C5.68665 18.4855 5.90515 18.4309 6.13028 18.3746C6.13028 18.1561 6.13028 17.9376 6.13028 17.7124C6.29417 17.6578 6.45805 17.6032 6.62689 17.5469C6.62689 17.383 6.62689 17.2191 6.62689 17.0503C6.79078 16.9957 6.95466 16.941 7.1235 16.8848Z" fill="#3C4937"/>
<path d="M51.6527 23.3407C51.7073 23.3407 51.7619 23.3407 51.8182 23.3407C51.8387 23.5285 51.8592 23.7163 51.8803 23.9097C51.9144 24.1043 51.9486 24.2989 51.9837 24.4995C52.093 24.5541 52.2023 24.6087 52.3148 24.665C52.3834 25.062 52.3834 25.062 52.4183 25.5547C52.4307 25.7165 52.443 25.8782 52.4558 26.0449C52.516 27.125 52.516 27.125 52.3148 27.6446C51.9734 27.8516 51.9734 27.8516 51.6527 27.9757C52.0208 28.1906 52.0208 28.1906 52.6459 28.1413C52.7551 27.9774 52.8644 27.8135 52.977 27.6446C53.246 27.924 53.246 27.924 53.4736 28.3068C53.3805 28.7517 53.3805 28.7517 53.1425 29.1345C52.7907 29.269 52.7907 29.269 52.4804 29.3C52.3984 29.0542 52.3984 29.0542 52.3148 28.8034C52.2602 28.9127 52.2056 29.0219 52.1493 29.1345C51.9854 29.1345 51.8215 29.1345 51.6527 29.1345C51.598 28.7521 51.5434 28.3697 51.4871 27.9757C51.3779 28.085 51.2686 28.1942 51.1561 28.3068C51.2107 28.3068 51.2653 28.3068 51.3216 28.3068C51.3216 28.5799 51.3216 28.8531 51.3216 29.1345C51.1577 29.1345 50.9938 29.1345 50.825 29.1345C50.4525 28.6793 50.4525 28.6793 50.1628 28.1413C50.2042 27.7481 50.2042 27.7481 50.3284 27.4791C50.6595 27.6446 50.6595 27.6446 50.825 27.8102C51.1022 27.2991 51.2726 26.7981 51.4251 26.2376C51.4682 26.0822 51.5113 25.9269 51.5557 25.7668C51.6764 25.2944 51.6764 25.2944 51.6527 24.665C51.5434 24.6104 51.4342 24.5557 51.3216 24.4995C51.3216 24.3356 51.3216 24.1717 51.3216 24.0028C51.4309 24.0028 51.5401 24.0028 51.6527 24.0028C51.6527 23.7843 51.6527 23.5658 51.6527 23.3407Z" fill="#424E3C"/>
<path d="M46.8524 31.4521C46.907 31.5614 46.9616 31.6707 47.0179 31.7832C47.2364 31.7286 47.4549 31.674 47.6801 31.6177C47.6801 31.8362 47.6801 32.0547 47.6801 32.2798C47.9532 32.2798 48.2263 32.2798 48.5077 32.2798C48.218 32.9213 48.218 32.9213 47.8456 33.1075C47.9083 33.6523 47.9083 33.6523 48.1767 34.1007C48.1767 34.21 48.1767 34.3192 48.1767 34.4318C48.0674 34.4318 47.9582 34.4318 47.8456 34.4318C47.8456 34.5411 47.8456 34.6503 47.8456 34.7629C47.1901 34.8448 47.1901 34.8448 46.5213 34.9284C46.4667 34.7099 46.412 34.4914 46.3558 34.2663C46.3011 34.3755 46.2465 34.4848 46.1902 34.5973C46.2448 34.3242 46.2995 34.0511 46.3558 33.7697C46.6835 33.715 47.0113 33.6604 47.349 33.6041C47.0585 33.0773 47.0585 33.0773 46.6868 32.6109C46.6322 32.7748 46.5776 32.9387 46.5213 33.1075C46.1799 33.3041 46.1799 33.3041 45.8591 33.4386C45.7499 33.1655 45.6406 32.8923 45.5281 32.6109C45.7466 32.5017 45.9651 32.3924 46.1902 32.2798C46.1902 32.1706 46.1902 32.0613 46.1902 31.9488C46.2995 31.9488 46.4087 31.9488 46.5213 31.9488C46.5213 31.8395 46.5213 31.7302 46.5213 31.6177C46.6305 31.5631 46.7398 31.5084 46.8524 31.4521Z" fill="#414D3B"/>
<path d="M36.4236 34.1006C37.5901 34.1792 38.5771 34.645 39.6412 35.1042C39.8255 35.1824 40.0097 35.2606 40.1996 35.3411C40.652 35.5334 41.1038 35.7268 41.5552 35.9215C41.5552 36.14 41.5552 36.3585 41.5552 36.5836C40.3692 36.5027 39.3441 36.0303 38.2548 35.5801C38.0627 35.5019 37.8705 35.4237 37.6726 35.3431C37.2006 35.1508 36.7291 34.9573 36.2581 34.7627C36.3127 34.5442 36.3673 34.3257 36.4236 34.1006Z" fill="#F4F3F0"/>
<path d="M48.1763 35.7559C48.0671 35.7559 47.9578 35.7559 47.8452 35.7559C47.7906 35.9198 47.736 36.0837 47.6797 36.2526C47.5158 36.3345 47.5158 36.3345 47.3486 36.4181C47.5125 36.582 47.6764 36.7459 47.8452 36.9147C47.6814 36.9693 47.5175 37.024 47.3486 37.0802C47.4033 37.1895 47.4579 37.2987 47.5142 37.4113C47.2376 37.4472 47.2376 37.4472 46.9555 37.4837C46.385 37.541 46.385 37.541 46.0243 37.7424C45.9697 37.4146 45.9151 37.0869 45.8588 36.7492C45.7598 36.8072 45.6608 36.8652 45.5588 36.925C45.1967 37.0802 45.1967 37.0802 44.7001 36.9147C44.7547 37.2425 44.8093 37.5702 44.8656 37.9079C44.5925 37.9079 44.3193 37.9079 44.0379 37.9079C44.0379 37.744 44.0379 37.5802 44.0379 37.4113C43.8194 37.4113 43.6009 37.4113 43.3758 37.4113C43.3211 37.5206 43.2665 37.6298 43.2102 37.7424C43.101 37.6331 42.9917 37.5239 42.8792 37.4113C44.0027 36.9304 45.1338 36.4682 46.2727 36.0249C46.442 35.9567 46.442 35.9567 46.6147 35.8871C47.6041 35.5078 47.6041 35.5078 48.1763 35.7559Z" fill="#3B4734"/>
<path d="M9.10986 31.6177C9.93848 31.938 10.7334 32.3215 11.5347 32.704C12.7746 33.2358 13.8918 33.3368 15.2244 33.3765C15.4007 33.3829 15.5771 33.3893 15.7588 33.3959C16.1911 33.4114 16.6233 33.4256 17.0556 33.4386C16.7245 33.7697 16.7245 33.7697 16.1232 33.8078C15.8753 33.8071 15.6274 33.8047 15.3796 33.8007C15.2579 33.8006 15.1363 33.8005 15.011 33.8004C14.1905 33.7939 13.3984 33.7192 12.5861 33.6041C12.6954 33.6587 12.8046 33.7134 12.9172 33.7697C12.7332 34.3218 12.5076 34.5373 12.0895 34.9284C11.9939 34.8431 11.8983 34.7577 11.7998 34.6698C11.4475 34.3879 11.4475 34.3879 11.0549 34.4835C10.9593 34.5211 10.8637 34.5586 10.7652 34.5973C10.8434 33.8941 11.2563 33.571 11.7584 33.1075C11.2122 32.9436 10.6659 32.7797 10.1031 32.6109C10.1031 32.5016 10.1031 32.3924 10.1031 32.2798C9.96993 32.232 9.83678 32.1842 9.69959 32.135C9.2754 31.9487 9.2754 31.9487 9.10986 31.6177Z" fill="#35412F"/>
<path d="M27.6502 16.5536C27.7595 16.5536 27.8687 16.5536 27.9813 16.5536C28.3454 16.9177 28.4068 17.0491 28.4779 17.5468C28.4096 18.014 28.2964 18.4225 28.1468 18.8711C27.6217 19.088 27.2267 19.2022 26.657 19.2022C26.4079 18.5575 26.3094 18.207 26.4915 17.5468C26.3822 17.3829 26.273 17.219 26.1604 17.0502C26.2697 16.9956 26.3789 16.9409 26.4915 16.8847C26.4915 16.9939 26.4915 17.1032 26.4915 17.2157C26.8192 17.1611 27.147 17.1065 27.4847 17.0502C27.5393 16.8863 27.594 16.7224 27.6502 16.5536ZM25.9949 19.2022C26.2134 19.2568 26.4319 19.3114 26.657 19.3677C26.4385 19.4223 26.22 19.477 25.9949 19.5332C25.9949 19.424 25.9949 19.3147 25.9949 19.2022Z" fill="#414D3B"/>
<path d="M37.9131 35.4249C39.496 35.874 39.496 35.874 40.1996 36.2009C40.7058 36.4093 41.0163 36.4671 41.5549 36.4181C41.6095 36.1996 41.6641 35.9811 41.7204 35.756C41.7751 36.0291 41.8297 36.3023 41.886 36.5837C42.323 36.4744 42.76 36.3652 43.2103 36.2526C43.0447 36.5837 43.0447 36.5837 42.7509 36.7072C42.6247 36.745 42.4984 36.7827 42.3683 36.8216C42.1588 36.8848 42.1588 36.8848 41.945 36.9493C41.7958 36.9925 41.6465 37.0357 41.4928 37.0803C41.2677 37.1467 41.2677 37.1467 41.0381 37.2145C40.0065 37.5133 38.9792 37.7662 37.9131 37.908C37.9677 37.7987 38.0223 37.6895 38.0786 37.5769C38.5028 37.4734 38.5028 37.4734 38.9063 37.4114C38.8517 37.1929 38.7971 36.9743 38.7408 36.7492C38.9047 36.7492 39.0685 36.7492 39.2374 36.7492C39.2374 36.5307 39.2374 36.3122 39.2374 36.0871C39.0496 36.0393 38.8618 35.9915 38.6683 35.9422C38.4737 35.8808 38.2791 35.8193 38.0786 35.756C38.024 35.6467 37.9694 35.5375 37.9131 35.4249Z" fill="#35402F"/>
<path d="M12.4203 23.5062C12.6388 23.5609 12.8573 23.6155 13.0824 23.6718C13.0805 23.8356 13.0786 23.9995 13.0766 24.1684C13.0676 25.2838 13.0677 26.375 13.248 27.4791C12.8651 27.4791 12.8651 27.4791 12.4203 27.3136C11.8907 26.3275 11.7479 25.2782 11.9237 24.1684C12.1758 23.783 12.1758 23.783 12.4203 23.5062Z" fill="#F9F5EB"/>
<path d="M47.1829 16.8848C48.5153 16.9465 49.5041 17.2195 50.4626 18.178C51.0071 18.9714 51.3472 19.5376 51.2696 20.5162C51.232 20.6835 51.1944 20.8508 51.1557 21.0232C50.9919 20.9686 50.828 20.9139 50.6591 20.8576C50.6591 20.4753 50.6591 20.0929 50.6591 19.6989C50.3314 19.5896 50.0036 19.4804 49.6659 19.3678C49.6659 18.7057 49.6659 18.7057 49.997 18.2091C49.2909 17.7201 49.2909 17.7201 48.5072 17.3814C48.5072 17.5453 48.5072 17.7091 48.5072 17.878C48.3979 17.878 48.2887 17.878 48.1761 17.878C48.2307 18.0419 48.2853 18.2057 48.3416 18.3746C48.1777 18.3746 48.0139 18.3746 47.845 18.3746C47.845 18.2653 47.845 18.1561 47.845 18.0435C47.4373 17.7713 47.4373 17.7713 47.0173 17.5469C47.072 17.3284 47.1266 17.1099 47.1829 16.8848Z" fill="#364330"/>
<path d="M53.6394 29.6312C53.9204 29.673 54.1997 29.7267 54.4775 29.7864C54.6296 29.8186 54.7818 29.8509 54.9385 29.8841C55.1149 29.9228 55.1149 29.9228 55.2948 29.9623C55.3594 30.2272 55.4209 30.4929 55.481 30.7589C55.5156 30.9068 55.5502 31.0547 55.5858 31.2071C55.6259 31.6177 55.6259 31.6177 55.2948 32.1143C54.9017 32.0625 54.9017 32.0625 54.4671 31.9487C54.3579 31.7849 54.2486 31.621 54.1361 31.4521C54.1907 31.2882 54.2453 31.1244 54.3016 30.9555C54.247 31.0101 54.1923 31.0648 54.1361 31.1211C53.7537 31.0118 53.3713 30.9025 52.9773 30.79C53.0319 30.4622 53.0865 30.1345 53.1428 29.7968C53.2521 29.7968 53.3613 29.7968 53.4739 29.7968C53.5285 29.7421 53.5832 29.6875 53.6394 29.6312Z" fill="#414E3B"/>
<path d="M28.4363 10.8014C28.5592 10.8424 28.6821 10.8833 28.8087 10.9256C28.6449 11.0075 28.6449 11.0075 28.4777 11.0911C28.4777 11.2003 28.4777 11.3096 28.4777 11.4222C28.8054 11.4222 29.1332 11.4222 29.4709 11.4222C29.4709 12.0843 29.4709 12.0843 29.2232 12.3908C29.0641 12.5361 29.0641 12.5361 28.9018 12.6844C28.4618 13.082 28.4618 13.082 28.1466 13.5741C27.6143 13.341 27.2656 13.0604 26.8637 12.643C26.7621 12.5384 26.6605 12.4339 26.5559 12.3262C26.4799 12.2463 26.404 12.1665 26.3257 12.0843C26.9727 12.0843 27.1726 12.3336 27.65 12.7465C27.7046 12.4733 27.7592 12.2002 27.8155 11.9188C27.6516 12.0007 27.6516 12.0007 27.4844 12.0843C27.3603 11.7946 27.3603 11.7946 27.3189 11.4222C27.6702 10.9222 27.8125 10.7447 28.4363 10.8014Z" fill="#35412F"/>
<path d="M5.79941 27.4792C6.24114 27.8787 6.5118 28.3129 6.81333 28.8242C7.40737 29.7795 8.119 30.5284 8.94461 31.2866C8.78073 31.2866 8.61685 31.2866 8.448 31.2866C8.22728 31.0659 8.00657 30.8452 7.78585 30.6244C7.31939 30.4138 7.16062 30.4463 6.66848 30.6141C6.54557 30.6721 6.42266 30.7302 6.29602 30.79C6.29602 30.6261 6.29602 30.4622 6.29602 30.2934C6.07752 30.1841 5.85901 30.0749 5.63388 29.9623C5.57276 29.0455 5.57276 29.0455 5.88218 28.6587C5.96412 28.5972 6.04606 28.5358 6.13049 28.4725C6.02123 28.1447 5.91198 27.8169 5.79941 27.4792Z" fill="#384533"/>
<path d="M40.3959 10.0977C40.4129 10.1933 40.43 10.2889 40.4476 10.3873C40.5776 10.8129 40.7774 11.0804 41.058 11.4219C40.9488 11.5312 40.8395 11.6405 40.7269 11.753C40.5084 11.753 40.2899 11.753 40.0648 11.753C40.0648 12.0262 40.0648 12.2993 40.0648 12.5807C40.2833 12.5807 40.5018 12.5807 40.7269 12.5807C40.7747 12.7036 40.8225 12.8265 40.8718 12.9532C41.1316 13.6445 41.1316 13.6445 41.5546 14.2361C41.578 14.6782 41.5617 15.1174 41.5546 15.5604C41.5 15.5604 41.4454 15.5604 41.3891 15.5604C41.3891 15.3965 41.3891 15.2326 41.3891 15.0638C41.2847 14.2792 40.7769 13.921 40.2213 13.4032C39.5926 12.7669 39.3823 12.095 39.3406 11.2047C39.3611 11.0032 39.3815 10.8018 39.4027 10.5943C39.8993 10.2632 39.8993 10.2632 40.3959 10.0977Z" fill="#3B4835"/>
<path d="M28.6432 26.9824C28.807 26.9824 28.9709 26.9824 29.1398 26.9824C29.0887 27.2791 29.0368 27.5757 28.9846 27.8722C28.9558 28.0373 28.927 28.2025 28.8973 28.3727C28.767 29.0063 28.7047 29.0934 28.1465 29.4655C28.0919 29.4108 28.0373 29.3562 27.981 29.2999C27.8718 29.4092 27.7625 29.5184 27.6499 29.631C27.4861 29.6856 27.3222 29.7403 27.1533 29.7965C27.0987 29.3595 27.0441 28.9225 26.9878 28.4723C27.1517 28.4176 27.3156 28.363 27.4844 28.3067C27.4298 27.9243 27.3751 27.5419 27.3189 27.148C27.5396 27.148 27.7603 27.148 27.981 27.148C28.0356 27.4211 28.0903 27.6942 28.1465 27.9756C28.5344 27.5332 28.5344 27.5332 28.6432 26.9824Z" fill="#414D3B"/>
<path d="M11.4277 36.2524C11.8354 36.4563 11.9946 36.7127 12.2554 37.0801C12.4192 37.0255 12.5831 36.9709 12.752 36.9146C13.1969 36.987 13.1969 36.987 13.5797 37.0801C13.4158 37.3259 13.4158 37.3259 13.2486 37.5767C13.6888 37.7235 13.9903 37.772 14.4455 37.7946C14.5783 37.8016 14.7112 37.8085 14.848 37.8157C14.986 37.8222 15.1239 37.8287 15.2661 37.8354C15.4059 37.8425 15.5458 37.8497 15.6899 37.857C16.0349 37.8746 16.3799 37.8913 16.7248 37.9078C16.7248 37.9624 16.7248 38.0171 16.7248 38.0733C12.1606 38.1865 12.1606 38.1865 10.9311 37.5767C10.7655 37.0801 10.7655 37.0801 10.9 36.7284C11.0966 36.418 11.0966 36.418 11.4277 36.2524Z" fill="#354130"/>
<path d="M44.6585 5.88706C45.3977 6.25665 45.9196 6.74729 46.3553 7.44931C46.5001 7.93557 46.5001 7.93557 46.5208 8.27699C46.3569 8.11311 46.193 7.94923 46.0242 7.78038C45.9696 7.88964 45.9149 7.99889 45.8586 8.11145C45.4345 8.21492 45.4345 8.21492 45.031 8.27699C45.0856 7.73072 45.1402 7.18445 45.1965 6.62163C44.978 6.567 44.7595 6.51237 44.5344 6.45609C44.5344 6.34683 44.5344 6.23758 44.5344 6.12502C44.4251 6.12502 44.3158 6.12502 44.2033 6.12502C44.1487 6.2889 44.094 6.45278 44.0377 6.62163C43.9831 6.45774 43.9285 6.29386 43.8722 6.12502C43.0528 6.12502 42.2334 6.12502 41.3892 6.12502C42.2162 5.29798 43.6471 5.48594 44.6585 5.88706Z" fill="#2F3C28"/>
<path d="M51.3216 20.692C51.7812 21.1516 51.812 21.6573 51.9217 22.275C51.9435 22.394 51.9653 22.5131 51.9878 22.6358C52.1365 23.4891 52.1957 24.2943 52.1493 25.1615C51.7967 24.5341 51.7906 24.0595 51.8182 23.3406C51.709 23.3406 51.5997 23.3406 51.4871 23.3406C51.412 23.2074 51.3369 23.0743 51.2595 22.9371C51.0381 22.4849 51.0381 22.4849 50.6388 22.4095C50.5363 22.389 50.4339 22.3685 50.3284 22.3474C50.2738 22.1835 50.2191 22.0196 50.1628 21.8508C50.2721 21.6869 50.3814 21.523 50.4939 21.3542C50.9284 21.3231 50.9284 21.3231 51.3216 21.3542C51.3216 21.1357 51.3216 20.9171 51.3216 20.692Z" fill="#34412F"/>
<path d="M31.1261 29.4657C31.1261 29.9623 31.1261 29.9623 30.8901 30.2701C30.5863 30.6832 30.5189 30.9913 30.433 31.4935C30.4067 31.6412 30.3805 31.7888 30.3534 31.941C30.3353 32.0528 30.3171 32.1646 30.2985 32.2798C30.1892 32.2798 30.08 32.2798 29.9674 32.2798C29.9674 32.1706 29.9674 32.0613 29.9674 31.9487C29.6943 31.9487 29.4211 31.9487 29.1397 31.9487C29.0851 32.058 29.0304 32.1673 28.9742 32.2798C28.8649 32.1706 28.7557 32.0613 28.6431 31.9487C28.5885 32.2219 28.5338 32.495 28.4776 32.7764C28.3683 32.7218 28.259 32.6672 28.1465 32.6109C28.1672 32.1557 28.1672 32.1557 28.312 31.6177C28.7602 31.2612 29.2188 31.0031 29.7191 30.7279C30.2687 30.3707 30.6734 29.9395 31.1261 29.4657Z" fill="#35422F"/>
<path d="M18.8765 13.7396C20.5684 14.0031 21.8209 15.245 23.0149 16.3882C23.1241 16.3336 23.2334 16.279 23.346 16.2227C23.4552 16.168 23.5645 16.1134 23.677 16.0571C23.677 15.9479 23.677 15.8386 23.677 15.7261C23.7863 15.7261 23.8955 15.7261 24.0081 15.7261C24.0081 15.8353 24.0081 15.9446 24.0081 16.0571C24.1174 16.0571 24.2266 16.0571 24.3392 16.0571C24.284 16.333 24.2288 16.6089 24.1736 16.8848C24.1463 17.0316 24.119 17.1784 24.0909 17.3297C24.0081 17.7125 24.0081 17.7125 23.8426 18.0436C23.7642 17.9394 23.6859 17.8353 23.6053 17.728C22.2436 15.9655 20.8531 14.8828 18.8765 13.9052C18.8765 13.8505 18.8765 13.7959 18.8765 13.7396Z" fill="#2F3B28"/>
<path d="M49.832 32.4452C51.5255 32.4998 53.2189 32.5544 54.9637 32.6107C54.9637 32.6654 54.9637 32.72 54.9637 32.7763C54.6359 32.7763 54.3081 32.7763 53.9704 32.7763C53.9704 32.9948 53.9704 33.2133 53.9704 33.4384C53.7428 33.8936 53.7428 33.8936 53.4738 34.2661C53.3646 34.2661 53.2553 34.2661 53.1428 34.2661C53.1428 34.1568 53.1428 34.0476 53.1428 33.935C52.815 34.0443 52.4872 34.1535 52.1495 34.2661C52.2042 33.8837 52.2588 33.5013 52.3151 33.1073C52.479 33.0527 52.6428 32.9981 52.8117 32.9418C52.6521 32.9337 52.4925 32.9256 52.328 32.9172C52.0143 32.8987 52.0143 32.8987 51.6943 32.8797C51.4869 32.8682 51.2795 32.8567 51.0658 32.8448C50.4942 32.7763 50.4942 32.7763 49.832 32.4452Z" fill="#2E3B29"/>
<path d="M27.65 10.0977C28.0017 10.1597 28.0017 10.1597 28.3121 10.2632C28.1052 10.8679 28.0355 11.0546 27.4844 11.4219C27.5391 11.5858 27.5937 11.7497 27.65 11.9186C27.7592 11.8093 27.8685 11.7001 27.981 11.5875C28.0121 12.0634 28.0121 12.0634 27.981 12.5807C27.8172 12.69 27.6533 12.7992 27.4844 12.9118C27.1021 12.584 26.7197 12.2563 26.3257 11.9186C26.6568 11.2564 26.6568 11.2564 27.1534 11.0909C27.2511 10.7687 27.2511 10.7687 27.3189 10.4287C27.4282 10.3195 27.5374 10.2102 27.65 10.0977Z" fill="#414D3B"/>
<path d="M1.33008 18.8711C1.49396 18.9257 1.65784 18.9803 1.82669 19.0366C1.88132 19.2005 1.93595 19.3644 1.99223 19.5332C2.15611 19.4786 2.31999 19.424 2.48884 19.3677C2.48884 19.477 2.48884 19.5862 2.48884 19.6988C2.70735 19.6441 2.92585 19.5895 3.15098 19.5332C3.15098 19.8064 3.15098 20.0795 3.15098 20.3609C3.01783 20.3575 2.88468 20.3541 2.74749 20.3506C2.3343 20.3119 2.3343 20.3119 2.15777 20.5265C1.88295 20.5868 1.60701 20.6423 1.33008 20.692C1.22083 21.0744 1.11157 21.4568 0.999009 21.8508C0.944382 21.8508 0.889755 21.8508 0.833472 21.8508C0.797738 20.8681 0.881065 19.9823 1.16455 19.0366C1.21917 18.982 1.2738 18.9274 1.33008 18.8711Z" fill="#3E4B38"/>
<path d="M5.96524 11.9187C6.07449 11.9733 6.18374 12.028 6.29631 12.0842C6.21437 12.1491 6.13243 12.214 6.048 12.2808C5.72161 12.6752 5.7872 12.9084 5.7997 13.4085C5.63582 13.6544 5.63582 13.6544 5.46863 13.9051C5.57788 13.9598 5.68713 14.0144 5.7997 14.0707C5.52656 14.1799 5.25343 14.2892 4.97202 14.4018C4.86276 14.2925 4.75351 14.1832 4.64094 14.0707C4.44744 14.2414 4.44744 14.2414 4.35125 14.5673C4.14433 14.8984 4.14433 14.8984 3.7098 15.0225C3.58006 15.0362 3.45032 15.0498 3.31665 15.0639C3.56037 14.1663 4.17806 13.6498 4.82717 13.0257C4.93621 12.9189 5.04525 12.8121 5.1576 12.7021C5.42572 12.4398 5.69493 12.1787 5.96524 11.9187Z" fill="#313E2C"/>
<path d="M49.3351 34.4315C49.3897 34.65 49.4444 34.8685 49.5007 35.0936C48.6232 35.3921 47.7455 35.6742 46.8521 35.9213C46.7428 35.6482 46.6336 35.3751 46.521 35.0936C46.8343 34.9817 47.1482 34.8717 47.4625 34.7626C47.6372 34.7011 47.812 34.6397 47.9921 34.5763C48.4716 34.4416 48.8413 34.4022 49.3351 34.4315Z" fill="#F1F0EC"/>
<path d="M47.6798 26.9824C47.7344 26.9824 47.789 26.9824 47.8453 26.9824C47.8517 27.2196 47.8517 27.2196 47.8583 27.4616C47.945 29.4399 48.2345 30.9809 49.6662 32.4451C48.9194 32.1146 48.4617 31.6295 48.0109 30.9553C47.866 30.3863 47.866 30.3863 47.8453 29.9621C47.6814 29.9621 47.5176 29.9621 47.3487 29.9621C47.2941 30.0713 47.2395 30.1806 47.1832 30.2932C47.0398 30.2061 47.0398 30.2061 46.8935 30.1173C46.4618 29.9374 46.2902 29.9736 45.8589 30.1276C45.9135 29.9637 45.9681 29.7999 46.0244 29.631C46.1337 29.5764 46.2429 29.5218 46.3555 29.4655C46.4101 29.3562 46.4648 29.247 46.521 29.1344C46.6849 29.2437 46.8488 29.3529 47.0176 29.4655C47.0176 29.247 47.0176 29.0285 47.0176 28.8033C47.1269 28.8033 47.2362 28.8033 47.3487 28.8033C47.4033 29.0765 47.458 29.3496 47.5143 29.631C47.5689 28.757 47.6235 27.8829 47.6798 26.9824Z" fill="#2E3A28"/>
<path d="M39.8992 25.9893C40.013 26.2789 40.013 26.2789 40.0647 26.6514C39.7822 27.1317 39.5422 27.3308 39.0715 27.6446C39.0169 27.59 38.9623 27.5354 38.906 27.4791C38.7421 27.561 38.7421 27.561 38.5749 27.6446C38.5783 27.8461 38.5817 28.0475 38.5853 28.255C38.5862 28.7901 38.5398 29.2751 38.4094 29.7966C38.3548 29.7966 38.3001 29.7966 38.2438 29.7966C38.2349 29.3413 38.2283 28.8862 38.2232 28.4309C38.2204 28.3023 38.2176 28.1736 38.2147 28.041C38.2042 26.8049 38.2042 26.8049 38.5749 26.3203C38.9784 26.2065 38.9784 26.2065 39.4026 26.1548C39.5665 26.1002 39.7304 26.0455 39.8992 25.9893Z" fill="#364330"/>
<path d="M25.3328 21.5198C25.6638 22.1819 25.6638 22.1819 25.7466 22.7096C25.7739 22.8632 25.8012 23.0168 25.8294 23.1751C25.9386 23.2298 26.0479 23.2844 26.1604 23.3407C26.1604 23.4499 26.1604 23.5592 26.1604 23.6718C26.3243 23.7264 26.4882 23.781 26.6571 23.8373C26.9364 24.0649 26.9364 24.0649 27.1537 24.3339C27.1537 24.4978 27.1537 24.6617 27.1537 24.8305C27.0444 24.8305 26.9352 24.8305 26.8226 24.8305C26.8226 24.6666 26.8226 24.5027 26.8226 24.3339C26.6587 24.4432 26.4948 24.5524 26.326 24.665C26.2167 24.7196 26.1075 24.7742 25.9949 24.8305C25.831 24.7759 25.6671 24.7213 25.4983 24.665C25.4437 24.8289 25.389 24.9927 25.3328 25.1616C25.3328 23.9598 25.3328 22.758 25.3328 21.5198Z" fill="#313D2C"/>
<path d="M35.2438 0.434448C35.8706 0.509674 36.0374 0.672821 36.4232 1.15867C36.6578 1.62778 36.6169 2.03275 36.6198 2.55539C36.6221 2.74637 36.6245 2.93735 36.6269 3.13412C36.5888 3.64172 36.5888 3.64172 36.2577 4.13833C36.2634 4.01072 36.2692 3.88312 36.2751 3.75165C36.2796 3.58563 36.2841 3.41962 36.2887 3.24857C36.2945 3.08341 36.3002 2.91825 36.3062 2.74808C36.2902 2.60597 36.2742 2.46385 36.2577 2.31743C36.0938 2.20817 35.9299 2.09892 35.7611 1.98635C35.7064 1.8771 35.6518 1.76785 35.5955 1.65528C35.7048 1.65528 35.814 1.65528 35.9266 1.65528C35.9266 1.54603 35.9266 1.43677 35.9266 1.32421C35.7149 1.29007 35.5032 1.25592 35.2852 1.22075C35.1065 1.19194 35.1065 1.19194 34.9243 1.16255C34.8181 1.16127 34.7118 1.15999 34.6023 1.15867C34.4931 1.26793 34.3838 1.37718 34.2712 1.48974C34.4044 0.823917 34.5204 0.528797 35.2438 0.434448Z" fill="#293624"/>
<path d="M48.5074 31.6177C48.8384 31.9487 48.8384 31.9487 48.8824 32.3678C48.8816 32.5299 48.8807 32.6921 48.8798 32.8592C48.8807 33.0214 48.8815 33.1835 48.8824 33.3506C48.8384 33.7697 48.8384 33.7697 48.5074 34.1007C48.7259 34.21 48.9444 34.3192 49.1695 34.4318C48.514 34.5137 48.514 34.5137 47.8452 34.5973C47.9545 34.5427 48.0637 34.4881 48.1763 34.4318C48.0124 34.3225 47.8485 34.2133 47.6797 34.1007C47.7258 33.9522 47.7258 33.9522 47.7728 33.8007C47.8818 33.4114 47.8818 33.4114 47.6797 32.942C47.8436 32.8327 48.0074 32.7235 48.1763 32.6109C48.0124 32.5016 47.8485 32.3924 47.6797 32.2798C47.8875 31.8642 48.0936 31.8045 48.5074 31.6177Z" fill="#3D4A38"/>
<path d="M52.315 26.486C52.6461 26.6515 52.6461 26.6515 52.8459 27.0052C53.2357 27.6277 53.7251 28.0971 54.2497 28.6069C54.3501 28.7058 54.4505 28.8047 54.5539 28.9066C54.8001 29.1489 55.0473 29.3901 55.2946 29.6312C55.24 29.7404 55.1854 29.8497 55.1291 29.9622C55.0053 29.8289 54.8816 29.6955 54.7541 29.5581C54.5895 29.3858 54.4248 29.2136 54.26 29.0414C54.1787 28.9532 54.0974 28.865 54.0137 28.7741C53.7464 28.4886 53.7464 28.4886 53.3082 28.1413C52.9463 28.1335 52.9463 28.1335 52.6461 28.3069C52.4822 28.3615 52.3183 28.4161 52.1494 28.4724C51.9856 28.3085 51.8217 28.1446 51.6528 27.9758C51.7075 27.8665 51.7621 27.7573 51.8184 27.6447C51.9276 27.6993 52.0369 27.754 52.1494 27.8103C52.1494 27.6464 52.1494 27.4825 52.1494 27.3136C52.2009 27.037 52.2555 26.761 52.315 26.486Z" fill="#333F2D"/>
<path d="M19.208 9.27014C20.177 9.3528 20.8949 9.64096 21.7531 10.0875C21.8728 10.1471 21.9926 10.2068 22.1159 10.2682C22.9928 10.7149 22.9928 10.7149 23.1809 11.091C22.8531 11.2549 22.8531 11.2549 22.5187 11.4221C22.5187 11.586 22.5187 11.7499 22.5187 11.9187C22.4095 11.9734 22.3002 12.028 22.1877 12.0843C21.8566 11.7532 21.8566 11.7532 21.6911 10.4289C20.4619 9.93725 20.4619 9.93725 19.208 9.43568C19.208 9.38105 19.208 9.32642 19.208 9.27014ZM21.1944 10.9255C21.6911 11.091 21.6911 11.091 21.6911 11.091L21.1944 10.9255Z" fill="#323E2C"/>
<path d="M29.4706 7.7804C29.4706 7.94428 29.4706 8.10816 29.4706 8.27701C29.3068 8.42552 29.3068 8.42552 29.1396 8.57704C28.7078 9.04927 28.7815 9.31184 28.8085 9.93237C28.6992 10.0416 28.59 10.1509 28.4774 10.2634C28.2589 10.2634 28.0404 10.2634 27.8153 10.2634C27.2775 10.5485 27.2775 10.5485 27.1531 11.0911C26.8426 11.3965 26.503 11.6487 26.1599 11.9188C26.1599 11.2695 26.3525 11.1553 26.791 10.6876C26.992 10.4709 26.992 10.4709 27.1971 10.2499C27.3465 10.0905 27.4958 9.93107 27.6497 9.76683C27.9023 9.49208 28.1541 9.2166 28.4058 8.94105C28.7599 8.55345 29.1153 8.16694 29.4706 7.7804Z" fill="#313E2B"/>
<path d="M31.2917 32.6107C32.6574 32.6107 34.0231 32.6107 35.4302 32.6107C35.4302 32.6653 35.4302 32.72 35.4302 32.7763C35.1536 32.8121 35.1536 32.8121 34.8715 32.8487C34.301 32.906 34.301 32.906 33.9403 33.1073C33.9403 33.2166 33.9403 33.3258 33.9403 33.4384C34.1588 33.3291 34.3774 33.2199 34.6025 33.1073C34.6571 33.4897 34.7117 33.8721 34.768 34.2661C34.121 34.2661 33.9211 34.0168 33.4437 33.6039C33.3891 33.7132 33.3345 33.8224 33.2782 33.935C33.2575 33.5419 33.2575 33.5419 33.2782 33.1073C33.3874 32.9981 33.4967 32.8888 33.6093 32.7763C32.8445 32.7763 32.0797 32.7763 31.2917 32.7763C31.2917 32.7216 31.2917 32.667 31.2917 32.6107Z" fill="#2B3726"/>
<path d="M51.1561 27.9757C51.2653 27.9757 51.3746 27.9757 51.4871 27.9757C51.6734 28.3482 51.6734 28.3482 51.8182 28.8034C51.6734 29.1862 51.6734 29.1862 51.4871 29.4655C52.0091 29.5815 52.4352 29.6311 52.977 29.6311C52.8666 29.9621 52.7562 30.2932 52.6459 30.6243C52.0823 30.3681 51.6144 30.0402 51.125 29.6621C50.9793 29.5518 50.8335 29.4415 50.6834 29.3278C50.285 28.9251 50.2123 28.6968 50.1628 28.1412C50.2653 28.2744 50.3677 28.4076 50.4732 28.5447C50.7822 28.9753 50.7822 28.9753 51.1561 29.1345C51.1253 28.974 51.0946 28.8135 51.0629 28.6482C51.039 28.4809 51.0151 28.3136 50.9905 28.1412C51.0452 28.0866 51.0998 28.032 51.1561 27.9757Z" fill="#33402D"/>
<path d="M30.96 6.12488C30.96 6.62149 30.96 6.62149 30.629 7.1181C30.8475 7.1181 31.066 7.1181 31.2911 7.1181C31.3457 7.00884 31.4004 6.89959 31.4566 6.78702C31.4566 6.95091 31.4566 7.11479 31.4566 7.28363C31.6205 7.28363 31.7844 7.28363 31.9533 7.28363C31.9015 7.59402 31.9015 7.59402 31.7877 7.94578C31.6238 8.05503 31.46 8.16429 31.2911 8.27685C31.2911 8.11297 31.2911 7.94909 31.2911 7.78024C31.1409 7.81439 30.9907 7.84853 30.8359 7.8837C30.2979 7.94578 30.2979 7.94578 29.6357 7.61471C30.0728 7.12306 30.5098 6.63142 30.96 6.12488Z" fill="#3E4A38"/>
<path d="M56.6191 31.1208C56.8811 31.1073 57.1433 31.0977 57.4054 31.0897C57.6244 31.0811 57.6244 31.0811 57.8477 31.0723C58.3598 31.1305 58.5772 31.2513 58.9367 31.6174C58.978 32.2278 58.978 32.2278 58.9367 32.7761C58.6089 32.94 58.6089 32.94 58.2745 33.1072C57.7779 32.5071 57.7779 32.5071 57.7779 31.9484C57.8872 31.8938 57.9964 31.8392 58.109 31.7829C58.0543 31.619 57.9997 31.4551 57.9434 31.2863C57.5064 31.2863 57.0694 31.2863 56.6191 31.2863C56.6191 31.2317 56.6191 31.177 56.6191 31.1208Z" fill="#313E2C"/>
<path d="M56.2879 36.7491C56.5064 36.8038 56.725 36.8584 56.9501 36.9147C56.9501 37.0239 56.9501 37.1332 56.9501 37.2458C57.1686 37.2458 57.3871 37.2458 57.6122 37.2458C57.2595 38.149 56.459 38.4896 55.6258 38.9011C55.0257 39.046 55.0257 39.046 54.6326 39.0667C55.0014 38.6978 55.238 38.621 55.7292 38.4666C55.8645 38.4235 55.9998 38.3804 56.1392 38.336C56.2429 38.304 56.3466 38.272 56.4535 38.239C56.2221 37.6521 56.2221 37.6521 55.9569 37.0802C56.0661 37.0802 56.1754 37.0802 56.2879 37.0802C56.2879 36.971 56.2879 36.8617 56.2879 36.7491Z" fill="#34412E"/>
<path d="M38.2445 24.4993C38.5176 24.4993 38.7908 24.4993 39.0722 24.4993C39.2377 24.8303 39.2377 24.8303 39.2377 25.327C39.1284 25.327 39.0192 25.327 38.9066 25.327C38.9613 25.6001 39.0159 25.8732 39.0722 26.1546C38.8537 26.1546 38.6351 26.1546 38.41 26.1546C38.3008 26.3731 38.1915 26.5917 38.0789 26.8168C38.0376 26.5794 38.0005 26.3413 37.9651 26.1029C37.944 25.9704 37.9229 25.8379 37.9011 25.7013C37.9134 25.327 37.9134 25.327 38.1585 25.0301C38.2415 24.9642 38.3245 24.8983 38.41 24.8303C38.3554 24.7211 38.3008 24.6118 38.2445 24.4993Z" fill="#3D4937"/>
<path d="M49.5006 34.4316C49.6098 34.5955 49.7191 34.7594 49.8316 34.9283C49.777 35.0375 49.7224 35.1468 49.6661 35.2593C49.7753 35.2593 49.8846 35.2593 49.9972 35.2593C50.0518 35.1501 50.1064 35.0408 50.1627 34.9283C50.272 34.9829 50.3812 35.0375 50.4938 35.0938C50.5972 35.518 50.5972 35.518 50.6593 35.9215C50.2844 36.1491 50.0871 36.2658 49.6454 36.2008C49.335 36.087 49.335 36.087 49.0039 35.9215C49.0039 35.8122 49.0039 35.703 49.0039 35.5904C48.7854 35.5358 48.5669 35.4811 48.3418 35.4249C48.5825 35.3634 48.5825 35.3634 48.8281 35.3007C49.079 35.1983 49.079 35.1983 49.335 35.0938C49.4954 34.7573 49.4954 34.7573 49.5006 34.4316Z" fill="#374331"/>
<path d="M7.45486 14.4016C7.58119 14.5382 7.70751 14.6747 7.83767 14.8155C8.24188 15.2857 8.24188 15.2857 8.77915 15.2293C8.53234 15.8575 8.15723 16.158 7.6204 16.5536C7.60333 16.4512 7.58626 16.3487 7.56867 16.2432C7.47551 15.831 7.47551 15.831 6.95825 15.5604C7.00946 15.4614 7.06068 15.3623 7.11344 15.2603C7.30623 14.8834 7.30623 14.8834 7.45486 14.4016Z" fill="#3E4A38"/>
<path d="M4.97198 21.6853C5.02661 21.6853 5.08123 21.6853 5.13752 21.6853C5.14754 21.8812 5.15757 22.0771 5.16791 22.2789C5.23891 23.6301 5.31673 24.9752 5.46859 26.3203C5.41396 26.1564 5.35933 25.9926 5.30305 25.8237C4.97529 25.8783 4.64753 25.933 4.30983 25.9893C4.20058 25.7161 4.09132 25.443 3.97876 25.1616C4.47537 25.1616 4.47537 25.1616 4.97198 25.3271C4.97198 24.1253 4.97198 22.9235 4.97198 21.6853Z" fill="#283423"/>
<path d="M40.8931 7.7804C41.0024 7.83502 41.1117 7.88965 41.2242 7.94593C41.1969 8.04153 41.1696 8.13713 41.1415 8.23562C41.0347 8.65222 41.0347 8.65222 41.0587 9.27022C41.1679 9.27022 41.2772 9.27022 41.3898 9.27022C41.3898 9.37948 41.3898 9.48873 41.3898 9.6013C40.8931 9.76683 40.8931 9.76683 40.3965 9.6013C40.3419 9.49204 40.2873 9.38279 40.231 9.27022C39.9024 9.31438 39.9024 9.31438 39.5689 9.43576C39.5142 9.59964 39.4596 9.76352 39.4033 9.93237C39.4033 9.49535 39.4033 9.05834 39.4033 8.60808C39.7311 8.77196 39.7311 8.77196 40.0655 8.93915C40.1201 8.8299 40.1747 8.72064 40.231 8.60808C40.4493 8.33026 40.6698 8.05417 40.8931 7.7804Z" fill="#384532"/>
<path d="M47.8448 24.1685C48.0087 24.2777 48.1726 24.387 48.3414 24.4995C48.2868 24.9912 48.2322 25.4828 48.1759 25.9894C48.1213 25.9894 48.0666 25.9894 48.0104 25.9894C48.0104 25.6616 48.0104 25.3338 48.0104 24.9961C47.9011 24.9961 47.7918 24.9961 47.6793 24.9961C47.6793 25.16 47.6793 25.3239 47.6793 25.4927C47.0378 25.3479 47.0378 25.3479 46.8516 25.1617C46.6321 25.1018 46.4114 25.0463 46.1895 24.9961C46.2441 24.8869 46.2987 24.7776 46.355 24.6651C46.4642 24.6651 46.5735 24.6651 46.6861 24.6651C46.7407 24.5558 46.7953 24.4466 46.8516 24.334C46.954 24.3681 47.0565 24.4023 47.162 24.4375C47.3361 24.4682 47.3361 24.4682 47.5137 24.4995C47.623 24.3903 47.7323 24.281 47.8448 24.1685Z" fill="#35422F"/>
<path d="M39.8997 33.4384C40.0636 33.4384 40.2275 33.4384 40.3963 33.4384C40.3417 33.7661 40.2871 34.0939 40.2308 34.4316C40.0669 34.4316 39.903 34.4316 39.7342 34.4316C39.7342 34.5408 39.7342 34.6501 39.7342 34.7626C39.8434 34.8173 39.9527 34.8719 40.0653 34.9282C40.234 35.0904 40.4001 35.2556 40.5619 35.4248C39.9081 35.3336 39.3453 35.1948 38.741 34.9282C38.7956 34.8189 38.8502 34.7097 38.9065 34.5971C39.0158 34.5971 39.125 34.5971 39.2376 34.5971C39.2922 34.324 39.3468 34.0508 39.4031 33.7694C39.5124 33.7694 39.6216 33.7694 39.7342 33.7694C39.7888 33.6602 39.8434 33.5509 39.8997 33.4384Z" fill="#374431"/>
<path d="M31.9539 31.9485C32.0085 32.0577 32.0631 32.167 32.1194 32.2796C33.3212 32.2796 34.523 32.2796 35.7612 32.2796C35.1136 32.6034 34.8917 32.6506 34.2016 32.643C33.9471 32.6414 33.9471 32.6414 33.6875 32.6397C33.5115 32.637 33.3354 32.6342 33.154 32.6313C32.8861 32.6291 32.8861 32.6291 32.6128 32.6268C32.1724 32.6229 31.7321 32.6175 31.2917 32.6106C31.5103 32.3921 31.7288 32.1736 31.9539 31.9485Z" fill="#ECEBE7"/>
<path d="M39.5691 11.7532C39.9002 12.2498 39.9002 12.2498 40.0657 12.5809C40.2842 12.5809 40.5027 12.5809 40.7278 12.5809C40.7756 12.7038 40.8234 12.8267 40.8727 12.9533C41.1325 13.6447 41.1325 13.6447 41.5555 14.2362C41.5789 14.6783 41.5626 15.1176 41.5555 15.5605C41.5009 15.5605 41.4463 15.5605 41.39 15.5605C41.39 15.3966 41.39 15.2328 41.39 15.0639C41.2868 14.2809 40.7836 13.8965 40.2164 13.3911C39.8948 13.0722 39.7258 12.8379 39.5691 12.4153C39.5691 12.1968 39.5691 11.9783 39.5691 11.7532Z" fill="#2A3724"/>
<path d="M46.0247 7.61475C46.3532 7.79903 46.3532 7.79903 46.6868 8.11136C46.7515 8.59439 46.7515 8.59439 46.7282 9.13561C46.7222 9.3155 46.7163 9.49538 46.7101 9.68072C46.7024 9.81836 46.6947 9.95599 46.6868 10.0978C46.3693 10.0435 46.3693 10.0435 46.0247 9.93226C45.6042 9.05125 45.7284 8.50362 46.0247 7.61475Z" fill="#43503D"/>
<path d="M45.1973 6.78687C45.5801 6.8179 45.5801 6.8179 46.025 6.9524C46.3353 7.34555 46.3353 7.34555 46.5216 7.78008C46.4669 7.94397 46.4123 8.10785 46.356 8.27669C46.2468 8.11281 46.1375 7.94893 46.025 7.78008C45.9703 7.88934 45.9157 7.99859 45.8594 8.11116C45.4352 8.21462 45.4352 8.21462 45.0317 8.27669C45.0864 7.78505 45.141 7.29341 45.1973 6.78687Z" fill="#364331"/>
<path d="M18.545 35.9214C18.6543 36.0306 18.7635 36.1399 18.8761 36.2525C18.814 36.8525 18.814 36.8525 18.7106 37.4112C18.9291 37.4658 19.1476 37.5205 19.3727 37.5768C18.5046 37.8661 17.8045 37.9399 16.8896 37.9078C16.8896 37.8532 16.8896 37.7986 16.8896 37.7423C17.074 37.7047 17.2584 37.6672 17.4483 37.6285C18.075 37.4764 18.075 37.4764 18.2864 36.9767C18.3171 36.8469 18.3478 36.7172 18.3795 36.5835C18.2702 36.5835 18.161 36.5835 18.0484 36.5835C18.103 36.4197 18.1577 36.2558 18.2139 36.0869C18.3232 36.0323 18.4324 35.9777 18.545 35.9214Z" fill="#303D2A"/>
<path d="M25.1671 25.327C25.2262 25.5467 25.2802 25.7678 25.3326 25.9892C25.377 26.1496 25.4214 26.3101 25.4671 26.4754C25.4981 26.9824 25.4981 26.9824 25.1981 27.4583C24.836 27.8101 24.836 27.8101 24.5049 27.8101C24.341 28.2198 24.341 28.2198 24.1738 28.6378C24.1192 28.5285 24.0646 28.4193 24.0083 28.3067C24.1616 27.8747 24.1616 27.8747 24.3911 27.3548C24.6843 26.6862 24.9452 26.0228 25.1671 25.327Z" fill="#2D3A27"/>
<path d="M45.3622 36.7492C45.1437 36.8039 44.9252 36.8585 44.7001 36.9148C44.7547 37.2425 44.8093 37.5703 44.8656 37.908C44.5925 37.908 44.3193 37.908 44.0379 37.908C44.0379 37.7441 44.0379 37.5802 44.0379 37.4114C43.8194 37.4114 43.6009 37.4114 43.3758 37.4114C43.3211 37.5206 43.2665 37.6299 43.2102 37.7425C43.101 37.6332 42.9917 37.5239 42.8792 37.4114C43.199 37.2681 43.52 37.1271 43.8413 36.9872C44.0199 36.9085 44.1985 36.8297 44.3826 36.7486C44.8656 36.5837 44.8656 36.5837 45.3622 36.7492Z" fill="#35412E"/>
<path d="M28.6429 31.6177C28.9739 31.7832 28.9739 31.7832 29.1395 31.9487C29.2487 32.0034 29.358 32.058 29.4705 32.1143C29.4705 32.3328 29.4705 32.5513 29.4705 32.7764C29.3067 32.8311 29.1428 32.8857 28.9739 32.942C29.0286 33.0512 29.0832 33.1605 29.1395 33.273C28.7571 33.2184 28.3747 33.1638 27.9807 33.1075C28.156 32.5815 28.3954 32.1125 28.6429 31.6177Z" fill="#3C4736"/>
<path d="M21.1944 35.9215C21.2151 36.7078 21.2151 36.7078 21.0289 37.0802C20.6465 37.0802 20.2641 37.0802 19.8701 37.0802C19.9692 36.6909 20.0802 36.3045 20.2012 35.9215C20.6135 35.7153 20.7658 35.7929 21.1944 35.9215Z" fill="#414E3B"/>
<path d="M7.12338 16.8848C7.12338 17.4143 7.04346 17.5911 6.79748 18.0455C6.69666 18.2335 6.69666 18.2335 6.5938 18.4254C6.52274 18.5554 6.45168 18.6855 6.37847 18.8195C6.30741 18.9515 6.23635 19.0834 6.16314 19.2194C5.98752 19.5453 5.81097 19.8706 5.63355 20.1955C5.46802 19.8644 5.46802 19.8644 5.62321 19.3471C5.68125 19.1901 5.73929 19.033 5.79909 18.8712C5.68984 18.8712 5.58058 18.8712 5.46802 18.8712C5.46802 18.762 5.46802 18.6527 5.46802 18.5401C5.68653 18.4855 5.90503 18.4309 6.13016 18.3746C6.13016 18.1561 6.13016 17.9376 6.13016 17.7124C6.29405 17.6578 6.45793 17.6032 6.62677 17.5469C6.62677 17.383 6.62677 17.2191 6.62677 17.0503C6.79066 16.9957 6.95454 16.941 7.12338 16.8848Z" fill="#2C3825"/>
<path d="M17.7181 33.1072C17.9366 33.1072 18.1551 33.1072 18.3802 33.1072C18.3802 33.2711 18.3802 33.4349 18.3802 33.6038C17.8886 33.5218 17.8886 33.5218 17.387 33.4383C17.4963 33.329 17.6055 33.2197 17.7181 33.1072ZM18.3802 33.9349C18.2163 34.0168 18.2163 34.0168 18.0491 34.1004C17.8853 34.3462 17.8853 34.3462 17.7181 34.597C17.6634 34.5424 17.6088 34.4878 17.5525 34.4315C17.4433 34.5407 17.334 34.65 17.2215 34.7625C17.2215 34.6533 17.2215 34.544 17.2215 34.4315C17.0576 34.4315 16.8937 34.4315 16.7249 34.4315C16.7795 34.3222 16.8341 34.213 16.8904 34.1004C16.8904 33.9911 16.8904 33.8819 16.8904 33.7693C17.5159 33.5956 17.8255 33.5856 18.3802 33.9349ZM16.8904 34.7625C16.9996 34.7625 17.1089 34.7625 17.2215 34.7625C17.1668 34.8718 17.1122 34.9811 17.0559 35.0936C17.0013 34.9844 16.9467 34.8751 16.8904 34.7625Z" fill="#374431"/>
<path d="M29.4712 24.996C29.5259 24.996 29.5805 24.996 29.6368 24.996C29.6712 25.8804 29.5612 26.6159 29.3264 27.4583C29.2976 27.5701 29.2688 27.682 29.2391 27.7972C29.1623 28.0807 29.0696 28.3598 28.9746 28.6378C28.8654 28.6924 28.7561 28.747 28.6436 28.8033C28.7528 28.2024 28.8621 27.6015 28.9746 26.9824C28.8108 26.9278 28.6469 26.8732 28.478 26.8169C28.478 26.7076 28.478 26.5984 28.478 26.4858C28.6778 26.3834 28.6778 26.3834 28.8815 26.2789C29.3595 26.021 29.3595 26.021 29.4402 25.4615C29.4505 25.3079 29.4607 25.1543 29.4712 24.996Z" fill="#273421"/>
<path d="M48.5073 23.5062C48.6166 23.5062 48.7258 23.5062 48.8384 23.5062C48.9477 24.1618 49.0569 24.8173 49.1695 25.4927C49.0056 25.4927 48.8417 25.4927 48.6729 25.4927C48.5636 25.6565 48.4544 25.8204 48.3418 25.9893C48.1428 25.4048 48.2101 24.9747 48.3315 24.3753C48.3637 24.2123 48.3959 24.0492 48.4291 23.8813C48.4549 23.7575 48.4807 23.6337 48.5073 23.5062Z" fill="#E8E8E1"/>
<path d="M28.4774 28.9688C28.6429 29.4654 28.6429 29.4654 28.4534 29.9064C28.3168 30.149 28.3168 30.149 28.1773 30.3965C28.0426 30.6404 28.0426 30.6404 27.9051 30.8892C27.6497 31.2863 27.6497 31.2863 27.3186 31.4518C27.3732 31.3221 27.4279 31.1923 27.4841 31.0586C27.6693 30.6501 27.6693 30.6501 27.6497 30.293C27.5404 30.293 27.4312 30.293 27.3186 30.293C27.3703 29.8999 27.3703 29.8999 27.4841 29.4654C27.648 29.3561 27.8119 29.2469 27.9807 29.1343C28.09 29.1889 28.1993 29.2435 28.3118 29.2998C28.3665 29.1906 28.4211 29.0813 28.4774 28.9688Z" fill="#313E2C"/>
<path d="M16.8902 33.2727C17.2726 33.3273 17.655 33.382 18.0489 33.4382C17.8317 33.6865 17.8317 33.6865 17.5523 33.9349C17.3885 33.9349 17.2246 33.9349 17.0557 33.9349C17.1104 34.0441 17.165 34.1534 17.2213 34.2659C16.9481 34.3206 16.675 34.3752 16.3936 34.4315C16.339 34.5953 16.2843 34.7592 16.228 34.9281C16.1188 34.9281 16.0095 34.9281 15.897 34.9281C15.9516 34.7096 16.0062 34.4911 16.0625 34.2659C16.1718 34.2659 16.281 34.2659 16.3936 34.2659C16.4448 34.1635 16.496 34.0611 16.5488 33.9555C16.6626 33.7279 16.7764 33.5003 16.8902 33.2727Z" fill="#45513E"/>
<path d="M24.8355 33.2727C25.2452 33.4366 25.2452 33.4366 25.6632 33.6038C25.3354 33.9862 25.0076 34.3686 24.6699 34.7625C24.5607 34.7079 24.4514 34.6533 24.3389 34.597C24.3935 34.4877 24.4481 34.3785 24.5044 34.2659C24.3952 34.1567 24.2859 34.0474 24.1733 33.9349C24.3918 33.7163 24.6104 33.4978 24.8355 33.2727Z" fill="#313E2B"/>
<path d="M11.2621 9.43568C10.989 9.54494 10.7158 9.65419 10.4344 9.76676C10.489 9.76676 10.5437 9.76676 10.6 9.76676C10.7638 9.82138 10.9277 9.87601 11.0966 9.93229C10.9327 10.0962 10.7688 10.2601 10.6 10.4289C10.4531 10.3709 10.3063 10.3128 10.1551 10.253C9.59647 10.0949 9.32584 10.1025 8.77905 10.2634C9.46208 9.68962 10.3617 9.03952 11.2621 9.43568Z" fill="#2F3C2A"/>
<path d="M49.0046 22.3475C49.3324 22.4295 49.3324 22.4295 49.6668 22.5131C49.6668 22.9545 49.6668 23.3959 49.6668 23.8374C49.5029 23.8374 49.339 23.8374 49.1702 23.8374C49.0609 23.9466 48.9517 24.0559 48.8391 24.1684C48.8937 23.5675 48.9484 22.9666 49.0046 22.3475Z" fill="#384533"/>
<path d="M45.6936 12.9119C45.8029 12.9665 45.9121 13.0211 46.0247 13.0774C45.8608 13.5689 45.7339 13.8672 45.3522 14.2258C44.9471 14.6571 44.9185 14.9815 44.8659 15.5605C44.8113 15.5605 44.7567 15.5605 44.7004 15.5605C44.6174 14.544 44.8139 14.0659 45.3625 13.2429C45.4718 13.1337 45.581 13.0244 45.6936 12.9119Z" fill="#34412E"/>
<path d="M8.77913 10.4289C8.61525 10.8113 8.45136 11.1937 8.28252 11.5877C8.00938 11.5331 7.73625 11.4784 7.45483 11.4221C7.69688 10.6557 7.69688 10.6557 8.11698 10.3668C8.44805 10.2634 8.44805 10.2634 8.77913 10.4289Z" fill="#35422F"/>
<path d="M26.1599 14.2361C26.8263 14.4582 26.9682 14.8027 27.3187 15.3948C27.3187 15.5041 27.3187 15.6133 27.3187 15.7259C27.1548 15.7805 26.9909 15.8352 26.8221 15.8914C26.7128 15.7276 26.6036 15.5637 26.491 15.3948C26.5456 15.231 26.6003 15.0671 26.6565 14.8982C26.5473 14.8982 26.438 14.8982 26.3255 14.8982C26.2708 15.0075 26.2162 15.1167 26.1599 15.2293C26.1053 15.12 26.0507 15.0108 25.9944 14.8982C25.8851 14.8436 25.7759 14.789 25.6633 14.7327C25.8272 14.5688 25.9911 14.4049 26.1599 14.2361Z" fill="#424F3D"/>
<path d="M45.5274 35.7559C44.957 36.7134 44.957 36.7134 44.4928 36.8939C44.3972 36.9008 44.3016 36.9076 44.2031 36.9146C44.0939 36.6415 43.9846 36.3683 43.8721 36.0869C44.0853 35.9992 44.2992 35.9133 44.5135 35.8283C44.6326 35.7803 44.7517 35.7323 44.8743 35.6828C45.1964 35.5903 45.1964 35.5903 45.5274 35.7559Z" fill="#F2F2ED"/>
<path d="M0.667725 22.0165C0.722352 22.0165 0.776979 22.0165 0.833261 22.0165C0.887888 22.3442 0.942515 22.672 0.998798 23.0097C1.27193 22.9551 1.54507 22.9004 1.82648 22.8442C1.71723 23.1173 1.60797 23.3904 1.49541 23.6718C1.33153 23.6718 1.16765 23.6718 0.998798 23.6718C0.944171 23.9996 0.889544 24.3274 0.833261 24.6651C0.778634 24.6651 0.724007 24.6651 0.667725 24.6651C0.667725 23.791 0.667725 22.917 0.667725 22.0165Z" fill="#253220"/>
<path d="M1.33008 18.8711C1.38471 18.8711 1.43934 18.8711 1.49562 18.8711C1.55025 19.3627 1.60487 19.8544 1.66116 20.3609C1.49727 20.3063 1.33339 20.2517 1.16455 20.1954C1.10992 20.7417 1.05529 21.2879 0.999009 21.8508C0.944382 21.8508 0.889755 21.8508 0.833472 21.8508C0.797738 20.8681 0.881065 19.9823 1.16455 19.0366C1.21917 18.982 1.2738 18.9274 1.33008 18.8711Z" fill="#293624"/>
<path d="M24.1739 16.5536C24.2831 16.5536 24.3924 16.5536 24.505 16.5536C24.4742 16.7311 24.4435 16.9087 24.4118 17.0916C24.3219 17.7586 24.3219 17.7586 24.505 18.3745C24.6688 18.4291 24.8327 18.4837 25.0016 18.54C24.9469 18.7039 24.8923 18.8678 24.836 19.0366C24.274 18.5281 23.8633 18.0203 23.8118 17.2468C23.822 17.1273 23.8323 17.0078 23.8428 16.8847C23.9521 16.8847 24.0613 16.8847 24.1739 16.8847C24.1739 16.7754 24.1739 16.6662 24.1739 16.5536Z" fill="#434F3D"/>
<path d="M27.9808 9.43567C28.0354 9.65418 28.0901 9.87269 28.1464 10.0978C28.0439 10.1388 27.9415 10.1798 27.836 10.222C27.4659 10.3958 27.4659 10.3958 27.3394 10.7289C27.0608 11.2707 26.6376 11.5449 26.1599 11.9187C26.1599 11.2402 26.4275 11.0732 26.8841 10.5841C27.0858 10.3661 27.0858 10.3661 27.2915 10.1437C27.5184 9.90495 27.7479 9.66858 27.9808 9.43567Z" fill="#273421"/>
<path d="M13.2489 18.54C13.4127 18.7585 13.5766 18.9771 13.7455 19.2022C13.5918 19.2227 13.5918 19.2227 13.4351 19.2436C13.0606 19.3345 13.0606 19.3345 12.8971 19.6678C12.8254 19.847 12.8254 19.847 12.7522 20.0299C12.5971 20.392 12.5971 20.392 12.4212 20.692C12.2573 20.7466 12.0934 20.8013 11.9246 20.8576C12.144 20.2579 12.4118 19.7592 12.7729 19.2332C12.9067 19.037 12.9067 19.037 13.0432 18.8368C13.1111 18.7389 13.1789 18.641 13.2489 18.54Z" fill="#D0961F"/>
<path d="M28.9742 31.1207C29.138 31.1754 29.3019 31.23 29.4708 31.2863C29.3615 31.614 29.2523 31.9418 29.1397 32.2795C28.9758 32.1702 28.8119 32.061 28.6431 31.9484C28.5885 32.2215 28.5338 32.4947 28.4776 32.7761C28.3683 32.7215 28.259 32.6668 28.1465 32.6106C28.227 31.7052 28.227 31.7052 28.6224 31.2966C28.7385 31.2386 28.8546 31.1805 28.9742 31.1207Z" fill="#2F3B29"/>
<path d="M5.79933 27.4792C6.18151 27.8378 6.47023 28.2063 6.75116 28.6484C6.82542 28.7629 6.89968 28.8775 6.97619 28.9956C7.02484 29.0961 7.07349 29.1966 7.12362 29.3002C7.06899 29.4094 7.01436 29.5187 6.95808 29.6312C6.7942 29.522 6.63032 29.4127 6.46147 29.3002C6.02689 29.2725 6.02689 29.2725 5.63379 29.3002C5.63379 28.9691 5.63379 28.9691 5.88209 28.7001C5.96403 28.625 6.04598 28.5499 6.1304 28.4725C6.02114 28.1447 5.91189 27.8169 5.79933 27.4792Z" fill="#2A3724"/>
<path d="M3.31618 15.2294C3.42543 15.2294 3.53469 15.2294 3.64725 15.2294C3.64725 15.3933 3.64725 15.5571 3.64725 15.726C3.75651 15.726 3.86576 15.726 3.97833 15.726C4.03295 15.5621 4.08758 15.3982 4.14386 15.2294C4.19849 15.3386 4.25312 15.4479 4.3094 15.5604C4.19673 15.6629 4.19673 15.6629 4.08179 15.7674C3.80294 16.0677 3.64847 16.3472 3.48172 16.7192C3.31784 16.7192 3.15395 16.7192 2.98511 16.7192C2.98511 16.6099 2.98511 16.5007 2.98511 16.3881C3.09436 16.3881 3.20362 16.3881 3.31618 16.3881C3.20693 16.1696 3.09767 15.9511 2.98511 15.726C3.09436 15.5621 3.20362 15.3982 3.31618 15.2294Z" fill="#44503E"/>
<path d="M36.5886 22.844C36.9197 22.844 36.9197 22.844 37.2094 23.082C37.533 23.7453 37.2883 24.3122 37.0852 24.996C37.0306 24.996 36.976 24.996 36.9197 24.996C36.9197 24.6682 36.9197 24.3404 36.9197 24.0028C36.8104 24.0028 36.7012 24.0028 36.5886 24.0028C36.5886 23.6204 36.5886 23.238 36.5886 22.844Z" fill="#333F2E"/>
<path d="M38.0789 29.9622C38.1882 30.1807 38.2974 30.3992 38.41 30.6243C38.2461 30.8087 38.2461 30.8087 38.0789 30.9968C37.6829 31.4474 37.6829 31.4474 37.7478 32.1141C37.4747 32.1141 37.2016 32.1141 36.9202 32.1141C37.4938 31.0489 37.4938 31.0489 38.0789 29.9622Z" fill="#2C3A27"/>
<path d="M50.6592 18.7056C51.1778 19.397 51.2605 19.6901 51.3213 20.5265C51.2667 20.6904 51.2121 20.8542 51.1558 21.0231C50.9919 20.9685 50.828 20.9138 50.6592 20.8575C50.6592 20.1474 50.6592 19.4372 50.6592 18.7056Z" fill="#2D3A29"/>
<path d="M3.15044 15.0638C3.28723 15.5426 3.31597 15.8729 3.31597 16.3881C3.20672 16.3881 3.09747 16.3881 2.9849 16.3881C2.9849 16.4974 2.9849 16.6066 2.9849 16.7192C2.76639 16.7192 2.54788 16.7192 2.32275 16.7192C2.51409 16.0716 2.71265 15.5812 3.15044 15.0638Z" fill="#2F3B29"/>
<path d="M17.552 8.93884C17.8251 8.93884 18.0983 8.93884 18.3797 8.93884C18.3797 9.10272 18.3797 9.26661 18.3797 9.43545C18.4889 9.43545 18.5982 9.43545 18.7108 9.43545C18.6561 9.65396 18.6015 9.87247 18.5452 10.0976C18.2175 10.0976 17.8897 10.0976 17.552 10.0976C17.6613 10.043 17.7705 9.98834 17.8831 9.93206C17.8284 9.76818 17.7738 9.6043 17.7175 9.43545C17.7722 9.38083 17.8268 9.3262 17.8831 9.26992C17.7738 9.16066 17.6646 9.05141 17.552 8.93884Z" fill="#374331"/>
<path d="M30.96 6.12488C30.96 6.62149 30.96 6.62149 30.629 7.1181C30.6836 7.22735 30.7382 7.33661 30.7945 7.44917C30.4634 7.78024 30.4634 7.78024 30.0289 7.80094C29.8992 7.79411 29.7694 7.78728 29.6357 7.78024C30.03 7.16067 30.4212 6.62525 30.96 6.12488Z" fill="#2A3725"/>
<path d="M41.0584 37.2456C41.0584 37.3549 41.0584 37.4641 41.0584 37.5767C41.1677 37.5767 41.2769 37.5767 41.3895 37.5767C41.3895 37.6859 41.3895 37.7952 41.3895 37.9078C40.9525 37.9624 40.5155 38.017 40.0652 38.0733C40.0106 37.964 39.9559 37.8548 39.8997 37.7422C40.4997 37.2456 40.4997 37.2456 41.0584 37.2456Z" fill="#FBFAF7"/>
<path d="M47.6795 24.996C47.7887 24.996 47.898 24.996 48.0106 24.996C48.0652 25.4876 48.1198 25.9793 48.1761 26.4858C48.0122 26.4858 47.8483 26.4858 47.6795 26.4858C47.6249 26.2673 47.5702 26.0488 47.5139 25.8237C47.3501 25.8237 47.1862 25.8237 47.0173 25.8237C47.0173 25.7144 47.0173 25.6051 47.0173 25.4926C47.2358 25.4926 47.4544 25.4926 47.6795 25.4926C47.6795 25.3287 47.6795 25.1648 47.6795 24.996Z" fill="#485442"/>
<path d="M41.5552 35.7561C41.6644 35.8107 41.7737 35.8654 41.8863 35.9216C41.8863 36.1401 41.8863 36.3587 41.8863 36.5838C42.3233 36.4745 42.7603 36.3653 43.2106 36.2527C43.045 36.5838 43.045 36.5838 42.5898 36.77C42.1012 36.9016 41.7253 36.9443 41.2241 36.9149C41.2787 36.7851 41.3334 36.6554 41.3897 36.5217C41.5748 36.1131 41.5748 36.1131 41.5552 35.7561Z" fill="#212E1B"/>
<path d="M36.0931 34.1006C36.1101 34.2064 36.1272 34.3123 36.1448 34.4213C36.1823 34.534 36.2199 34.6466 36.2586 34.7627C36.4225 34.8174 36.5864 34.872 36.7552 34.9283C36.5913 34.9829 36.4274 35.0375 36.2586 35.0938C36.204 35.2577 36.1493 35.4216 36.0931 35.5904C36.0931 35.4812 36.0931 35.3719 36.0931 35.2593C35.8745 35.2047 35.656 35.1501 35.4309 35.0938C35.6494 34.766 35.8679 34.4383 36.0931 34.1006Z" fill="#313E2B"/>
<path d="M35.4298 28.8032C35.4298 29.2998 35.4298 29.2998 35.2125 29.5294C34.9538 29.7288 34.6952 29.9281 34.4365 30.1275C34.3273 30.0729 34.218 30.0183 34.1055 29.962C34.2147 29.6342 34.324 29.3065 34.4365 28.9688C34.5458 28.9688 34.6551 28.9688 34.7676 28.9688C34.8222 29.078 34.8769 29.1873 34.9332 29.2998C35.097 29.136 35.2609 28.9721 35.4298 28.8032Z" fill="#2B3926"/>
<path d="M50.4947 25.1615C50.6039 25.1615 50.7132 25.1615 50.8258 25.1615C50.8804 25.3254 50.935 25.4893 50.9913 25.6581C50.7916 25.8066 50.7916 25.8066 50.5878 25.9581C50.1267 26.2887 50.1267 26.2887 49.9981 26.8169C49.8342 26.8715 49.6703 26.9261 49.5015 26.9824C49.5015 26.8731 49.5015 26.7639 49.5015 26.6513C49.6107 26.6513 49.72 26.6513 49.8325 26.6513C49.853 26.525 49.8735 26.3987 49.8946 26.2685C50.0017 25.8082 50.155 25.5012 50.4947 25.1615Z" fill="#444F3D"/>
<path d="M0.998597 24.6648C1.16248 24.9106 1.16248 24.9106 1.32967 25.1614C1.43892 25.1614 1.54818 25.1614 1.66074 25.1614C1.71537 25.3253 1.77 25.4892 1.82628 25.658C1.71703 25.658 1.60777 25.658 1.49521 25.658C1.44058 25.9858 1.38595 26.3135 1.32967 26.6512C1.27504 26.6512 1.22042 26.6512 1.16413 26.6512C1.0015 25.9804 0.98509 25.3537 0.998597 24.6648Z" fill="#44503F"/>
<path d="M11.2618 13.4086C11.2618 13.5178 11.2618 13.6271 11.2618 13.7396C11.371 13.7943 11.4803 13.8489 11.5928 13.9052C11.2676 14.0819 10.9359 14.2471 10.5996 14.4018C10.4904 14.3472 10.3811 14.2925 10.2686 14.2363C10.6423 13.4086 10.6423 13.4086 11.2618 13.4086Z" fill="#34412E"/>
<path d="M1.16433 20.1956C1.49371 20.6606 1.51214 21.0022 1.45402 21.5509C1.41305 21.7592 1.37208 21.9674 1.32987 22.182C1.16599 22.2639 1.16599 22.2639 0.998798 22.3475C0.998798 22.2383 0.998798 22.129 0.998798 22.0165C0.889544 22.0165 0.780289 22.0165 0.667725 22.0165C0.814681 21.4041 0.989829 20.8005 1.16433 20.1956Z" fill="#475240"/>
<path d="M14.4069 12.9118C14.243 13.1577 14.243 13.1577 14.0758 13.4084C13.6089 13.4569 13.6089 13.4569 13.0619 13.4395C12.7898 13.4328 12.7898 13.4328 12.5122 13.4259C12.3029 13.4173 12.3029 13.4173 12.0894 13.4084C12.869 12.8887 13.4872 12.6413 14.4069 12.9118Z" fill="#46513F"/>
<path d="M37.9131 25.327C38.2408 25.4909 38.2408 25.4909 38.5752 25.6581C38.6299 25.822 38.6845 25.9859 38.7408 26.1547C38.6315 26.1547 38.5223 26.1547 38.4097 26.1547C38.3004 26.3732 38.1912 26.5917 38.0786 26.8169C38.024 26.3252 37.9694 25.8336 37.9131 25.327Z" fill="#303D2A"/>
<path d="M17.3864 8.77344C17.7071 8.83551 17.7071 8.83551 18.0485 8.93897C18.1031 9.04823 18.1578 9.15748 18.214 9.27005C18.1048 9.3793 17.9955 9.48856 17.883 9.60112C17.883 9.71037 17.883 9.81963 17.883 9.93219C17.7191 9.93219 17.5552 9.93219 17.3864 9.93219C17.2317 9.43388 17.2135 9.29215 17.3864 8.77344Z" fill="#495342"/>
<path d="M46.19 35.2592C46.5417 35.3212 46.5417 35.3212 46.8521 35.4247C46.8521 35.5886 46.8521 35.7525 46.8521 35.9213C46.579 35.9759 46.3058 36.0306 46.0244 36.0868C45.9698 35.923 45.9152 35.7591 45.8589 35.5902C45.9681 35.481 46.0774 35.3717 46.19 35.2592Z" fill="#FBFAF7"/>
<path d="M26.6565 31.4521C26.875 31.4521 27.0935 31.4521 27.3187 31.4521C27.1118 32.0569 27.0421 32.2435 26.491 32.6109C26.491 32.5017 26.491 32.3924 26.491 32.2798C26.3817 32.2252 26.2725 32.1706 26.1599 32.1143C26.2692 32.1143 26.3784 32.1143 26.491 32.1143C26.5456 31.8958 26.6002 31.6773 26.6565 31.4521Z" fill="#313D2A"/>
<path d="M37.5816 23.5062C37.6909 23.5062 37.8001 23.5062 37.9127 23.5062C37.9127 23.6701 37.9127 23.834 37.9127 24.0028C38.0219 24.0028 38.1312 24.0028 38.2438 24.0028C38.1345 24.3852 38.0253 24.7676 37.9127 25.1616C37.5105 24.5583 37.5548 24.216 37.5816 23.5062Z" fill="#2D3B27"/>
<path d="M36.0923 38.4045C35.9285 38.6504 35.9285 38.6504 35.7613 38.9011C35.7066 38.9011 35.652 38.9011 35.5957 38.9011C35.5411 39.0104 35.4865 39.1197 35.4302 39.2322C35.2663 39.123 35.1024 39.0137 34.9336 38.9011C34.9882 38.7373 35.0428 38.5734 35.0991 38.4045C35.5253 38.2396 35.6767 38.1967 36.0923 38.4045Z" fill="#434F3D"/>
<path d="M39.7346 36.5836C40.2933 36.6742 40.5759 36.7582 41.0589 37.0802C40.3255 37.4266 40.3255 37.4266 39.8484 37.3492C39.7563 37.3151 39.6641 37.2809 39.5691 37.2458C39.6783 37.2458 39.7876 37.2458 39.9002 37.2458C39.8455 37.0273 39.7909 36.8087 39.7346 36.5836Z" fill="#2A3624"/>
<path d="M48.1763 33.6041C48.2856 33.768 48.3948 33.9319 48.5074 34.1007C48.8467 34.2981 48.8467 34.2981 49.1695 34.4318C48.7325 34.4864 48.2955 34.5411 47.8452 34.5973C47.9545 34.5427 48.0637 34.4881 48.1763 34.4318C48.0124 34.3226 47.8485 34.2133 47.6797 34.1007C47.8436 33.9369 48.0074 33.773 48.1763 33.6041Z" fill="#2E3B29"/>
<path d="M25.6639 33.6041C25.7731 33.7134 25.8824 33.8226 25.9949 33.9352C25.7218 34.2083 25.4487 34.4815 25.1673 34.7629C25.0034 34.7083 24.8395 34.6536 24.6707 34.5973C24.9984 34.2696 25.3262 33.9418 25.6639 33.6041Z" fill="#EFEDE7"/>
<path d="M38.2437 22.844C38.3983 23.3423 38.4166 23.484 38.2437 24.0028C38.1344 24.0028 38.0252 24.0028 37.9126 24.0028C37.9126 23.8389 37.9126 23.675 37.9126 23.5061C37.8034 23.4515 37.6941 23.3969 37.5815 23.3406C37.5815 23.2313 37.5815 23.1221 37.5815 23.0095C37.9126 22.844 37.9126 22.844 38.2437 22.844Z" fill="#3C4937"/>
<path d="M5.79909 18.3745C5.90834 18.4838 6.0176 18.593 6.13016 18.7056C6.07127 19.2651 5.9055 19.7059 5.63355 20.1954C5.46802 19.8643 5.46802 19.8643 5.62321 19.347C5.68125 19.19 5.73929 19.0329 5.79909 18.8711C5.68984 18.8711 5.58058 18.8711 5.46802 18.8711C5.46802 18.7619 5.46802 18.6526 5.46802 18.54C5.57727 18.4854 5.68653 18.4308 5.79909 18.3745Z" fill="#33402E"/>
<path d="M34.7679 0.496704C35.2024 0.55878 35.2024 0.55878 35.5955 0.662241C35.5409 0.771495 35.4863 0.880749 35.43 0.993314C35.1544 1.04985 34.8785 1.10497 34.6023 1.15885C34.4931 1.2681 34.3838 1.37736 34.2712 1.48992C34.3662 1.01529 34.4138 0.850712 34.7679 0.496704Z" fill="#313D2B"/>
<path d="M56.7847 37.2456C57.0578 37.2456 57.3309 37.2456 57.6124 37.2456C57.3227 37.8871 57.3227 37.8871 56.9502 38.0733C56.841 37.964 56.7317 37.8548 56.6191 37.7422C56.6738 37.5783 56.7284 37.4145 56.7847 37.2456Z" fill="#374330"/>
<path d="M21.3596 31.6177C21.5235 31.6723 21.6874 31.7269 21.8563 31.7832C21.8016 32.111 21.747 32.4387 21.6907 32.7764C21.4176 32.7218 21.1444 32.6672 20.863 32.6109C20.863 32.5016 20.863 32.3924 20.863 32.2798C20.9723 32.2252 21.0815 32.1706 21.1941 32.1143C21.2487 31.9504 21.3034 31.7865 21.3596 31.6177Z" fill="#444F3D"/>
<path d="M21.6912 31.2864C21.6912 31.3956 21.6912 31.5049 21.6912 31.6175C21.582 31.6175 21.4727 31.6175 21.3602 31.6175C21.3055 31.836 21.2509 32.0545 21.1946 32.2796C20.9761 32.1703 20.7576 32.0611 20.5325 31.9485C21.3188 31.2864 21.3188 31.2864 21.6912 31.2864Z" fill="#2E3B27"/>
<path d="M31.1257 31.4521C31.4535 31.4521 31.7813 31.4521 32.119 31.4521C32.0097 31.7253 31.9005 31.9984 31.7879 32.2798C31.5148 32.2252 31.2416 32.1706 30.9602 32.1143C31.0695 32.0597 31.1787 32.005 31.2913 31.9488C31.2367 31.7849 31.182 31.621 31.1257 31.4521Z" fill="#475341"/>
<path d="M8.44852 15.2294C8.55778 15.2294 8.66703 15.2294 8.7796 15.2294C8.54895 15.7868 8.28647 16.0547 7.78638 16.3881C7.78638 16.115 7.78638 15.8419 7.78638 15.5604C8.00489 15.5604 8.22339 15.5604 8.44852 15.5604C8.44852 15.4512 8.44852 15.3419 8.44852 15.2294Z" fill="#2A3724"/>
<path d="M6.95758 11.4221C6.95758 11.586 6.95758 11.7499 6.95758 11.9187C6.54374 12.2808 6.54374 12.2808 6.1299 12.5809C6.02065 12.5262 5.91139 12.4716 5.79883 12.4153C6.2063 11.6208 6.2063 11.6208 6.65755 11.4532C6.80607 11.4378 6.80607 11.4378 6.95758 11.4221Z" fill="#444F3D"/>
<path d="M34.9339 0C35.207 0.0546271 35.4801 0.109254 35.7615 0.165537C35.7615 0.329418 35.7615 0.493299 35.7615 0.662146C35.3791 0.607519 34.9968 0.552892 34.6028 0.49661C34.712 0.441983 34.8213 0.387356 34.9339 0.331073C34.9339 0.221819 34.9339 0.112565 34.9339 0Z" fill="#F0EEE7"/>
<path d="M42.714 37.7423C42.3829 38.0733 42.3829 38.0733 41.7828 38.094C41.5984 38.0872 41.4141 38.0804 41.2241 38.0733C41.7297 37.5677 42.0595 37.5392 42.714 37.7423Z" fill="#2D3926"/>
<path d="M1.66064 27.9757C1.87915 28.0303 2.09766 28.085 2.32279 28.1412C2.32279 28.2505 2.32279 28.3598 2.32279 28.4723C2.48667 28.5269 2.65055 28.5816 2.8194 28.6379C2.49164 28.6925 2.16388 28.7471 1.82618 28.8034C1.77155 28.5303 1.71693 28.2571 1.66064 27.9757Z" fill="#44503D"/>
</svg>
