<svg width="33" height="46" viewBox="0 0 33 46" fill="none" xmlns="http://www.w3.org/2000/svg">
<path d="M16.5013 0.9375C16.7042 0.941161 16.9071 0.944823 17.1162 0.948595C17.1728 1.05203 17.2294 1.15546 17.2877 1.26203C17.8531 2.29486 18.421 3.32636 18.9899 4.3573C19.2125 4.76277 19.4324 5.16943 19.6504 5.57733C21.4312 8.86652 23.6612 11.9634 25.8809 14.9728C26.661 16.0344 27.4372 17.0986 28.2062 18.1682C28.2903 18.2847 28.3744 18.4013 28.461 18.5213C31.453 22.7012 33.2262 27.564 32.3705 32.7416C31.6797 36.2388 30.0097 39.0939 27.4907 41.601C27.3644 41.7306 27.238 41.8601 27.1078 41.9935C24.1112 44.8654 19.9921 45.9488 15.9431 45.9374C11.7563 45.8641 7.86343 44.0605 4.95297 41.0685C1.64759 37.5515 0.455035 33.4251 0.597176 28.6794C0.656931 27.4288 0.80421 26.2881 1.19667 25.0915C1.24855 24.9284 1.24855 24.9284 1.30148 24.7619C2.38051 21.4327 4.33892 18.6725 6.38393 15.8604C6.48464 15.7216 6.58534 15.5828 6.6891 15.4398C7.17393 14.7717 7.65986 14.1045 8.14609 13.4375C8.23977 13.309 8.33344 13.1804 8.42995 13.048C8.61358 12.7962 8.79745 12.5446 8.98158 12.2932C11.3355 9.07236 13.3948 5.70826 15.1716 2.14106C15.7647 0.950326 15.7647 0.950326 16.5013 0.9375Z" fill="#D39F2F"/>
<path d="M16.4903 15.9602C17.0177 16.0518 17.1452 16.1616 17.4741 16.5704C17.5514 16.9079 17.5514 16.9079 17.5656 17.2826C17.572 17.417 17.5783 17.5515 17.5848 17.69C17.5889 17.8295 17.5929 17.969 17.5971 18.1127C17.6032 18.2542 17.6093 18.3957 17.6156 18.5415C17.6303 18.8904 17.6419 19.2393 17.653 19.5883C17.8473 19.4153 17.8473 19.4153 18.0456 19.2388C18.2186 19.0905 18.3915 18.9422 18.5697 18.7895C18.8249 18.567 18.8249 18.567 19.0853 18.3401C19.691 17.9446 19.9835 17.8868 20.6938 17.9906C20.8709 18.1664 20.8709 18.1664 21.0515 18.3457C21.0424 19.066 20.9199 19.3574 20.4374 19.9031C20.26 20.0555 20.0827 20.2079 19.9 20.365C19.6348 20.5977 19.6348 20.5977 19.3641 20.8351C18.9051 21.186 18.9051 21.186 18.5473 21.186C18.4293 21.4203 18.3112 21.6547 18.1896 21.8961C18.0715 21.8961 17.9535 21.8961 17.8318 21.8961C17.6369 22.4764 17.6298 22.9061 17.6292 23.5167C17.629 23.7296 17.6288 23.9425 17.6285 24.1619C17.6292 24.3845 17.6299 24.607 17.6306 24.8363C17.6299 25.0595 17.6292 25.2827 17.6285 25.5127C17.6287 25.7254 17.629 25.9381 17.6292 26.1573C17.6295 26.4506 17.6295 26.4506 17.6298 26.7499C17.6207 27.2174 17.6207 27.2174 17.8318 27.5768C17.9374 27.5132 18.043 27.4496 18.1517 27.384C18.6298 27.0964 19.1084 26.8096 19.587 26.5227C19.7531 26.4226 19.9193 26.3225 20.0904 26.2194C20.2501 26.1238 20.4098 26.0283 20.5743 25.9298C20.7214 25.8415 20.8684 25.7532 21.0199 25.6622C21.4093 25.4465 21.4093 25.4465 21.9459 25.269C21.9714 25.081 21.9714 25.081 21.9974 24.8892C22.0768 24.3198 22.1622 23.7516 22.2477 23.1831C22.2744 22.9859 22.301 22.7886 22.3284 22.5854C22.5543 21.126 22.5543 21.126 23.1099 20.5161C23.5557 20.2984 23.5557 20.2984 23.947 20.3206C24.2712 20.4759 24.2712 20.4759 24.6289 20.831C24.7108 21.8256 24.5159 22.715 24.2712 23.6713C24.4008 23.5944 24.5304 23.5175 24.6639 23.4383C24.8368 23.3394 25.0097 23.2406 25.1879 23.1387C25.3581 23.0399 25.5282 22.941 25.7036 22.8392C26.2939 22.5822 26.6744 22.5345 27.312 22.6062C27.6698 22.9612 27.6698 22.9612 27.7592 23.3717C27.648 23.9649 27.3834 24.1883 26.9068 24.5464C26.4683 24.815 26.0196 24.9625 25.5233 25.0915C25.5233 25.2672 25.5233 25.443 25.5233 25.624C25.6414 25.6387 25.7594 25.6533 25.881 25.6684C26.6038 25.8478 27.4887 26.1544 28.0275 26.6892C28.0834 27.1108 28.0834 27.1108 28.0275 27.5768C27.748 27.9096 27.748 27.9096 27.312 28.1093C26.2109 28.0287 25.3376 27.6647 24.3481 27.221C23.6284 26.9152 23.2301 26.8306 22.4825 27.0442C22.0443 27.2568 22.0443 27.2568 21.6126 27.5275C21.4541 27.6231 21.2955 27.7186 21.1322 27.8171C20.9691 27.9172 20.806 28.0173 20.6379 28.1204C20.4713 28.2212 20.3047 28.322 20.1331 28.4259C19.723 28.6743 19.3137 28.9238 18.9051 29.1745C19.6072 29.898 20.3742 30.4417 21.208 31.0052C21.3494 31.105 21.4907 31.2049 21.6363 31.3078C22.4514 31.8682 22.4514 31.8682 23.4069 32.0231C24.1847 31.7378 24.9081 31.3732 25.6456 30.9989C26.3116 30.7443 26.7829 30.706 27.4909 30.7722C28.0275 31.1272 28.0275 31.1272 28.1281 31.5488C28.0275 32.0148 28.0275 32.0148 27.5803 32.392C26.9034 32.7519 26.2485 33.0093 25.5233 33.2575C25.8925 33.5423 26.2579 33.8012 26.6608 34.0376C27.0863 34.2881 27.4744 34.5334 27.8486 34.8552C27.9716 35.4321 27.9716 35.4321 27.8486 35.9203C27.4909 36.2753 27.4909 36.2753 26.9654 36.3641C25.9591 36.3472 25.1055 35.7133 24.2712 35.2102C24.3144 35.4477 24.3144 35.4477 24.3585 35.6901C24.4346 36.1764 24.4793 36.6279 24.4836 37.1186C24.4861 37.2531 24.4887 37.3877 24.4913 37.5263C24.4501 37.873 24.4501 37.873 24.0923 38.2281C23.5334 38.2503 23.5334 38.2503 23.0191 38.2281C22.452 37.2471 22.3202 36.3456 22.189 35.2438C22.0517 34.3104 21.8214 33.8662 21.0515 33.2575C20.6715 32.9984 20.2835 32.7506 19.8889 32.5141C19.5928 32.3346 19.5928 32.3346 19.2908 32.1514C18.8102 31.884 18.3485 31.6688 17.8318 31.4823C17.6518 32.0182 17.6299 32.381 17.6292 32.9413C17.629 33.1214 17.6288 33.3014 17.6285 33.487C17.6292 33.6749 17.6299 33.8627 17.6306 34.0563C17.6299 34.2442 17.6292 34.4321 17.6285 34.6256C17.6287 34.8057 17.629 34.9858 17.6292 35.1714C17.6295 35.4187 17.6295 35.4187 17.6298 35.671C17.6645 36.3106 17.767 36.5718 18.2483 37.0069C18.4207 37.1426 18.5932 37.2783 18.7709 37.4181C18.9415 37.5534 19.1122 37.6886 19.288 37.828C19.6198 38.0876 19.9533 38.3452 20.2885 38.6005C20.6938 38.9382 20.6938 38.9382 21.0515 39.4707C20.9548 40.2768 20.9548 40.2768 20.6938 40.5359C20.1828 40.6309 19.9338 40.6659 19.4417 40.5359C18.9816 40.2021 18.5826 39.8385 18.1749 39.4437C17.8548 39.105 17.8548 39.105 17.4741 38.9382C17.4803 39.137 17.4866 39.3359 17.493 39.5408C17.498 39.8022 17.5029 40.0636 17.5076 40.325C17.5121 40.4561 17.5166 40.5871 17.5213 40.722C17.5345 41.6906 17.5345 41.6906 17.2316 42.1315C16.8077 42.3903 16.5309 42.3837 16.0431 42.3111C15.749 42.1259 15.749 42.1259 15.5065 41.7785C15.4677 41.3081 15.4558 40.8819 15.473 40.4138C15.4766 40.2269 15.4766 40.2269 15.4803 40.0362C15.4866 39.7293 15.4963 39.4225 15.5065 39.1157C15.3919 39.2182 15.2773 39.3207 15.1593 39.4263C13.7379 40.6373 13.7379 40.6373 12.9911 40.6357C12.4657 40.5359 12.4657 40.5359 12.2868 40.3583C12.3055 39.5581 12.3936 39.1984 12.9276 38.5859C13.1175 38.4191 13.3102 38.2555 13.5054 38.0949C13.601 38.0119 13.6965 37.9288 13.795 37.8432C14.1809 37.5106 14.5514 37.1973 14.9964 36.9455C15.382 36.6408 15.382 36.6408 15.4253 36.081C15.429 35.8607 15.4328 35.6404 15.4366 35.4134C15.4396 35.2959 15.4426 35.1785 15.4456 35.0575C15.4543 34.683 15.4581 34.3088 15.4618 33.9343C15.4668 33.6801 15.4722 33.426 15.4779 33.1718C15.4911 32.5495 15.5 31.9272 15.5065 31.3047C15.2961 31.4102 15.2961 31.4102 15.0814 31.5178C13.3639 32.3751 13.3639 32.3751 12.6607 32.666C11.5528 33.1879 11.5528 33.1879 10.8871 34.1693C10.6749 35.037 10.6019 35.9077 10.5405 36.7964C10.4875 37.255 10.3461 37.638 10.1404 38.0506C9.5367 38.1615 9.5367 38.1615 8.88829 38.2281C8.53055 37.873 8.53055 37.873 8.48932 37.4875C8.49186 37.3364 8.49439 37.1854 8.49701 37.0298C8.49816 36.8806 8.49931 36.7314 8.5005 36.5777C8.53332 36.0535 8.61435 35.549 8.70942 35.0327C8.56692 35.1244 8.42443 35.2162 8.27761 35.3108C8.08808 35.4277 7.89854 35.5446 7.70327 35.6651C7.42312 35.8412 7.42312 35.8412 7.13731 36.0208C6.47909 36.3125 6.17255 36.2955 5.48974 36.0978C5.31087 35.9203 5.31087 35.9203 5.25846 35.5008C5.31087 35.0327 5.31087 35.0327 5.59245 34.7255C5.71719 34.6401 5.84193 34.5548 5.97045 34.4668C6.10027 34.3778 6.23008 34.2888 6.36383 34.1971C6.77431 33.9478 7.17638 33.7551 7.63619 33.6125C7.63619 33.4368 7.63619 33.261 7.63619 33.0799C7.50638 33.06 7.37656 33.0401 7.24281 33.0196C6.71936 32.8972 6.34423 32.7151 5.88102 32.4475C5.73968 32.3667 5.59833 32.286 5.45271 32.2027C5.29395 32.1097 5.29395 32.1097 5.132 32.0148C5.10964 31.5932 5.10964 31.5932 5.132 31.1272C5.48974 30.7722 5.48974 30.7722 6.055 30.716C6.93488 30.788 7.62342 31.1031 8.40652 31.4743C9.24824 31.8437 9.95793 31.9287 10.8559 31.6598C11.3423 31.4363 11.7836 31.1642 12.2309 30.872C12.9495 30.4156 13.6223 29.9887 14.4333 29.707C13.6942 28.9333 12.8641 28.4272 11.9515 27.8763C11.793 27.7765 11.6346 27.6766 11.4714 27.5737C10.5839 27.0241 10.5839 27.0241 9.57513 26.8584C8.8278 27.1318 8.09391 27.4238 7.36404 27.7394C6.71608 28.0096 6.195 28.1932 5.48974 28.1093C5.15435 27.8985 5.15435 27.8985 4.95312 27.5768C4.96221 27.1496 4.96221 27.1496 5.132 26.6892C5.619 26.3695 5.619 26.3695 6.2164 26.1011C6.41401 26.0103 6.61161 25.9194 6.8152 25.8258C6.96807 25.7592 7.12094 25.6926 7.27845 25.624C7.27845 25.5069 7.27845 25.3897 7.27845 25.269C6.92932 24.9991 6.92932 24.9991 6.49589 24.7364C6.05327 24.4575 5.68223 24.2174 5.31087 23.8488C5.41024 23.0401 5.41024 23.0401 5.66861 22.7837C6.55888 22.7008 7.10111 22.9029 7.88214 23.3163C8.07167 23.4151 8.26121 23.514 8.45648 23.6158C8.59898 23.6927 8.74147 23.7696 8.88829 23.8488C8.86039 23.7223 8.83249 23.5957 8.80374 23.4653C8.59945 22.4677 8.45377 21.6472 8.70942 20.6534C8.82747 20.5363 8.94553 20.4191 9.06716 20.2984C9.50316 20.3095 9.50316 20.3095 9.96151 20.4759C10.5087 21.1503 10.5873 21.8022 10.6993 22.632C10.8995 24.1233 10.8995 24.1233 11.6154 25.4125C12.0855 25.7652 12.0855 25.7652 12.5922 26.0206C13.2145 26.3518 13.8124 26.7101 14.4116 27.0803C14.5176 27.1454 14.6237 27.2105 14.7329 27.2776C14.9909 27.4362 15.2488 27.5952 15.5065 27.7543C15.8241 24.6557 15.8241 24.6557 15.0265 21.7551C14.3272 21.002 13.5101 20.4502 12.6037 19.9671C12.2868 19.7658 12.2868 19.7658 11.9291 19.2333C11.9626 18.7784 11.9626 18.7784 12.108 18.3457C12.6446 17.9906 12.6446 17.9906 13.1253 17.9795C13.866 18.2153 14.2797 18.6033 14.8385 19.1279C15.1351 19.4244 15.1351 19.4244 15.5065 19.5883C15.4972 19.2931 15.4972 19.2931 15.4877 18.9919C15.4826 18.7321 15.4777 18.4723 15.473 18.2125C15.4685 18.083 15.464 17.9535 15.4594 17.82C15.4514 17.2379 15.4655 16.8228 15.749 16.3062C16.0431 16.0379 16.0431 16.0379 16.4903 15.9602Z" fill="#F9F5EA"/>
<path d="M17.4736 38.9382C18.0613 39.2299 18.3349 39.4062 18.7816 39.8369C19.415 40.3961 19.8553 40.502 20.6933 40.5359C20.5753 40.6531 20.4572 40.7703 20.3356 40.891C20.1622 40.8617 19.9888 40.8324 19.8101 40.8022C19.2332 40.6453 19.2332 40.6453 18.7257 41.0685C18.7257 40.8927 18.7257 40.717 18.7257 40.5359C18.2743 40.6469 18.2743 40.6469 17.8314 40.891C17.6715 41.3433 17.6715 41.3433 17.6525 41.7786C17.5935 41.7786 17.5344 41.7786 17.4736 41.7786C17.4736 40.8413 17.4736 39.904 17.4736 38.9382Z" fill="#CF961F"/>
<path d="M26.7749 40.0034C26.952 40.062 27.1291 40.1206 27.3115 40.1809C27.3115 40.2981 27.3115 40.4153 27.3115 40.536C27.1935 40.536 27.0754 40.536 26.9538 40.536C27.0128 40.7117 27.0718 40.8875 27.1326 41.0685C26.8965 41.01 26.6604 40.9514 26.4172 40.891C26.3581 41.0082 26.2991 41.1254 26.2383 41.2461C26.3724 40.4028 26.3724 40.4028 26.7749 40.0034ZM28.3847 40.1809C28.3847 40.7135 28.3847 40.7135 28.1108 41.0373C27.9946 41.1465 27.8784 41.2557 27.7587 41.3681C27.6425 41.4786 27.5263 41.5892 27.4065 41.703C27.3161 41.7866 27.2258 41.8701 27.1326 41.9562C27.0146 41.8976 26.8965 41.839 26.7749 41.7786C26.952 41.5443 27.1291 41.31 27.3115 41.0685C27.2525 40.9514 27.1935 40.8342 27.1326 40.7135C27.2507 40.7135 27.3687 40.7135 27.4904 40.7135C27.5494 40.5963 27.6084 40.4792 27.6692 40.3585C27.6692 40.4756 27.6692 40.5928 27.6692 40.7135C27.9054 40.5378 28.1415 40.362 28.3847 40.1809Z" fill="#D09824"/>
<path d="M17.8315 31.3048C18.2742 31.4806 18.2742 31.4806 18.7259 31.6599C18.4897 31.7184 18.2536 31.777 18.0104 31.8374C17.9513 32.8333 17.8923 33.8292 17.8315 34.8552C17.7134 34.9138 17.5954 34.9724 17.4738 35.0328C17.4641 34.5445 17.457 34.0565 17.4514 33.5682C17.4484 33.4302 17.4454 33.2922 17.4423 33.1501C17.4314 31.8863 17.4314 31.8863 17.8315 31.3048Z" fill="#CF941B"/>
<path d="M16.043 15.3279C16.3783 15.3834 16.3783 15.3834 16.7584 15.5054C16.8765 15.6811 16.9945 15.8569 17.1162 16.038C16.9133 16.0892 16.7104 16.1405 16.5013 16.1933C16.291 16.2592 16.0807 16.3251 15.8641 16.393C15.5804 16.9561 15.6175 17.5709 15.5846 18.1904C15.5769 18.3243 15.5691 18.4582 15.5612 18.5961C15.5422 18.9268 15.5242 19.2576 15.5063 19.5884C15.3293 19.5298 15.1522 19.4712 14.9697 19.4109C15.0878 19.3523 15.2058 19.2937 15.3275 19.2334C15.3233 19.0514 15.3192 18.8695 15.3149 18.6821C15.3115 18.4405 15.3083 18.199 15.3051 17.9574C15.3021 17.8379 15.2991 17.7183 15.296 17.5951C15.2889 16.8744 15.3632 16.3309 15.6852 15.6829C15.8033 15.6829 15.9213 15.6829 16.043 15.6829C16.043 15.5658 16.043 15.4486 16.043 15.3279Z" fill="#CE9016"/>
<path d="M13.1806 32.37C13.2397 32.4872 13.2987 32.6043 13.3595 32.725C13.1234 32.7836 12.8873 32.8422 12.644 32.9026C12.585 33.1369 12.526 33.3712 12.4651 33.6126C12.2954 33.6346 12.1257 33.6566 11.9509 33.6792C11.3764 33.7399 11.3764 33.7399 11.0342 34.1452C11.0614 33.8262 11.0614 33.8262 11.2131 33.4351C11.6609 33.1328 11.6609 33.1328 12.208 32.8582C12.389 32.7657 12.57 32.6733 12.7565 32.578C12.8965 32.5094 13.0364 32.4407 13.1806 32.37Z" fill="#CF931C"/>
<path d="M27.6693 34.145C27.8463 34.2622 28.0234 34.3793 28.2059 34.5001C28.1469 34.6758 28.0878 34.8516 28.027 35.0326C28.2631 34.9155 28.4992 34.7983 28.7425 34.6776C28.6835 34.8533 28.6244 35.0291 28.5636 35.2101C28.4456 35.2101 28.3275 35.2101 28.2059 35.2101C28.1469 35.5031 28.0878 35.796 28.027 36.0978C27.968 36.0978 27.909 36.0978 27.8481 36.0978C27.826 35.9037 27.8039 35.7097 27.7811 35.5097C27.7132 34.842 27.7132 34.842 27.3115 34.3225C27.4296 34.264 27.5476 34.2054 27.6693 34.145Z" fill="#CF961E"/>
<path d="M24.2705 35.2102C24.7132 35.386 24.7132 35.386 25.1649 35.5652C24.9878 35.6531 24.9878 35.6531 24.8071 35.7428C24.8071 36.3286 24.8071 36.9144 24.8071 37.518C24.4964 36.9013 24.3956 36.6169 24.3376 35.9647C24.3242 35.8228 24.3108 35.6809 24.2971 35.5347C24.2883 35.4276 24.2795 35.3205 24.2705 35.2102Z" fill="#CE911A"/>
<path d="M4.95345 27.5769C5.13053 27.6941 5.30761 27.8112 5.49006 27.9319C5.85801 27.9747 5.85801 27.9747 6.23908 27.9541C6.46412 27.9468 6.68917 27.9395 6.92103 27.9319C6.51374 28.3362 6.31052 28.3795 5.75837 28.4978C5.61633 28.5296 5.4743 28.5614 5.32796 28.5942C4.95345 28.642 4.95345 28.642 4.5957 28.4645C4.71376 28.2888 4.83181 28.113 4.95345 27.9319C4.95345 27.8148 4.95345 27.6976 4.95345 27.5769Z" fill="#CE941C"/>
<path d="M1.91227 35.2102C2.08935 35.2102 2.26643 35.2102 2.44888 35.2102C2.44888 35.3274 2.44888 35.4445 2.44888 35.5652C2.56694 35.6238 2.68499 35.6824 2.80662 35.7428C2.62954 35.8014 2.45246 35.8599 2.27001 35.9203C2.27001 36.2132 2.27001 36.5061 2.27001 36.8079C1.99053 36.5083 1.99053 36.5083 1.7334 36.0978C1.7893 35.6096 1.7893 35.6096 1.91227 35.2102Z" fill="#CF9621"/>
<path d="M5.13146 26.8667C5.20894 26.9839 5.28641 27.101 5.36623 27.2217C5.51564 27.3975 5.51564 27.3975 5.66808 27.5768C5.84516 27.5768 6.02224 27.5768 6.20469 27.5768C6.26372 27.7525 6.32274 27.9283 6.38356 28.1094C5.87498 28.1503 5.58554 28.1731 5.15382 27.8874C4.95259 27.5768 4.95259 27.5768 5.00849 27.1885C5.04907 27.0823 5.08965 26.9761 5.13146 26.8667Z" fill="#F7F0DC"/>
<path d="M9.60352 20.476C9.95008 20.6202 9.95008 20.6202 10.319 20.831C10.5261 21.4476 10.5102 21.9602 10.4979 22.6062C10.4388 22.6062 10.3798 22.6062 10.319 22.6062C10.2415 22.3041 10.2415 22.3041 10.1625 21.996C10.0961 21.7873 10.0297 21.5786 9.96126 21.3636C9.8432 21.305 9.72515 21.2464 9.60352 21.186C9.60352 20.9517 9.60352 20.7174 9.60352 20.476Z" fill="#FBF9F6"/>
<path d="M6.56282 24.9139C7.00553 25.0897 7.00553 25.0897 7.45718 25.269C7.39815 25.4447 7.33912 25.6205 7.2783 25.8015C6.92414 25.8601 6.56998 25.9187 6.20508 25.9791C6.38216 25.8033 6.55924 25.6276 6.74169 25.4465C6.68266 25.2708 6.62364 25.095 6.56282 24.9139Z" fill="#CE9017"/>
<path d="M28.2061 39.1157C28.7373 39.2036 28.7373 39.2036 29.2793 39.2932C29.1612 39.5276 29.0432 39.7619 28.9215 40.0033C28.6854 39.9447 28.4493 39.8862 28.2061 39.8258C28.2061 39.5915 28.2061 39.3572 28.2061 39.1157Z" fill="#D19823"/>
<path d="M5.31055 35.9204C5.72374 36.0376 6.13693 36.1547 6.56264 36.2755C6.13591 36.6113 5.83433 36.8123 5.31055 36.9855C5.31055 36.634 5.31055 36.2826 5.31055 35.9204Z" fill="#CF951C"/>
<path d="M17.6528 34.8552C17.7709 34.9138 17.8889 34.9724 18.0106 35.0327C18.0106 35.5014 18.0106 35.9701 18.0106 36.4529C17.8335 36.3358 17.6564 36.2186 17.474 36.0979C17.4293 35.5542 17.4293 35.5542 17.474 35.0327C17.533 34.9742 17.592 34.9156 17.6528 34.8552Z" fill="#D6A53C"/>
</svg>
