<svg width="40" height="40" viewBox="0 0 40 40" fill="none" xmlns="http://www.w3.org/2000/svg">
<rect x="1" y="1" width="38" height="38" rx="19" stroke="white" stroke-width="2"/>
<g clip-path="url(#clip0_2_1699)">
<path fill-rule="evenodd" clip-rule="evenodd" d="M23.6667 11.75C24.8822 11.75 26.048 12.2329 26.9076 13.0924C27.7671 13.952 28.25 15.1178 28.25 16.3333V23.6667C28.25 24.8822 27.7671 26.048 26.9076 26.9076C26.048 27.7671 24.8822 28.25 23.6667 28.25H16.3333C15.1178 28.25 13.952 27.7671 13.0924 26.9076C12.2329 26.048 11.75 24.8822 11.75 23.6667V16.3333C11.75 15.1178 12.2329 13.952 13.0924 13.0924C13.952 12.2329 15.1178 11.75 16.3333 11.75H23.6667ZM23.6667 13.5833H16.3333C15.604 13.5833 14.9045 13.8731 14.3888 14.3888C13.8731 14.9045 13.5833 15.604 13.5833 16.3333V23.6667C13.5833 24.396 13.8731 25.0955 14.3888 25.6112C14.9045 26.1269 15.604 26.4167 16.3333 26.4167H23.6667C24.396 26.4167 25.0955 26.1269 25.6112 25.6112C26.1269 25.0955 26.4167 24.396 26.4167 23.6667V16.3333C26.4167 15.604 26.1269 14.9045 25.6112 14.3888C25.0955 13.8731 24.396 13.5833 23.6667 13.5833ZM20 16.3333C20.9725 16.3333 21.9051 16.7196 22.5927 17.4073C23.2804 18.0949 23.6667 19.0275 23.6667 20C23.6667 20.9725 23.2804 21.9051 22.5927 22.5927C21.9051 23.2804 20.9725 23.6667 20 23.6667C19.0275 23.6667 18.0949 23.2804 17.4073 22.5927C16.7196 21.9051 16.3333 20.9725 16.3333 20C16.3333 19.0275 16.7196 18.0949 17.4073 17.4073C18.0949 16.7196 19.0275 16.3333 20 16.3333ZM20 18.1667C19.5138 18.1667 19.0475 18.3598 18.7036 18.7036C18.3598 19.0475 18.1667 19.5138 18.1667 20C18.1667 20.4862 18.3598 20.9525 18.7036 21.2964C19.0475 21.6402 19.5138 21.8333 20 21.8333C20.4862 21.8333 20.9525 21.6402 21.2964 21.2964C21.6402 20.9525 21.8333 20.4862 21.8333 20C21.8333 19.5138 21.6402 19.0475 21.2964 18.7036C20.9525 18.3598 20.4862 18.1667 20 18.1667ZM24.125 14.9583C24.3681 14.9583 24.6013 15.0549 24.7732 15.2268C24.9451 15.3987 25.0417 15.6319 25.0417 15.875C25.0417 16.1181 24.9451 16.3513 24.7732 16.5232C24.6013 16.6951 24.3681 16.7917 24.125 16.7917C23.8819 16.7917 23.6487 16.6951 23.4768 16.5232C23.3049 16.3513 23.2083 16.1181 23.2083 15.875C23.2083 15.6319 23.3049 15.3987 23.4768 15.2268C23.6487 15.0549 23.8819 14.9583 24.125 14.9583Z" fill="white"/>
</g>
<defs>
<clipPath id="clip0_2_1699">
<rect width="22" height="22" fill="white" transform="translate(9 9)"/>
</clipPath>
</defs>
</svg>
