<svg width="16" height="16" viewBox="0 0 16 16" fill="none" xmlns="http://www.w3.org/2000/svg">
<g clip-path="url(#clip0_2_1689)">
<path d="M7.97205 16.0055L7.50733 15.6072C6.86667 15.0707 1.27271 10.2396 1.27271 6.70569C1.27271 3.00575 4.27211 0.00634766 7.97205 0.00634766C11.672 0.00634766 14.6714 3.00575 14.6714 6.70569C14.6714 10.2396 9.07742 15.0708 8.43942 15.6098L7.97205 16.0055ZM7.97205 1.45494C5.07352 1.45822 2.72461 3.80713 2.72133 6.70566C2.72133 8.92572 6.16295 12.4722 7.97205 14.0954C9.78117 12.4716 13.2228 8.92304 13.2228 6.70566C13.2195 3.80713 10.8706 1.45825 7.97205 1.45494Z" fill="white"/>
<path d="M7.97197 9.36142C6.50534 9.36142 5.31641 8.17248 5.31641 6.70586C5.31641 5.23923 6.50534 4.05029 7.97197 4.05029C9.43859 4.05029 10.6275 5.23923 10.6275 6.70586C10.6275 8.17248 9.43862 9.36142 7.97197 9.36142ZM7.97197 5.37804C7.23866 5.37804 6.64419 5.97251 6.64419 6.70582C6.64419 7.43914 7.23866 8.03361 7.97197 8.03361C8.70528 8.03361 9.29975 7.43914 9.29975 6.70582C9.29975 5.97251 8.70531 5.37804 7.97197 5.37804Z" fill="white"/>
</g>
<defs>
<clipPath id="clip0_2_1689">
<rect width="16" height="16" fill="white"/>
</clipPath>
</defs>
</svg>
