<svg width="1052" height="190" viewBox="0 0 1052 190" fill="none" xmlns="http://www.w3.org/2000/svg">
<path d="M3.32 186C1.72 186 0.92 185.2 0.92 183.6V176.88C0.92 175.28 1.72 174.24 3.32 173.76L18.44 169.2C20.84 168.4 22.52 167.52 23.48 166.56C24.44 165.6 25 163.36 25.16 159.84L32.84 29.76C33.16 26.24 32.6 23.76 31.16 22.32C29.88 20.88 28.04 19.92 25.64 19.44L12.2 17.04C10.6 16.72 9.8 15.76 9.8 14.16V7.44C9.8 5.84 10.6 5.04 12.2 5.04H92.12C93.72 5.04 94.68 5.2 95 5.51999C95.32 5.83999 95.48 6.79999 95.48 8.4V10.08C95.48 15.04 95.8 19.28 96.44 22.8C97.24 26.32 98.36 29.76 99.8 33.12L145.88 146.88L119.96 164.4L170.36 34.08C172.12 29.44 173.32 25.36 173.96 21.84C174.6 18.32 174.92 14.8 174.92 11.28V8.4C174.92 6.79999 175.08 5.83999 175.4 5.51999C175.72 5.2 176.68 5.04 178.28 5.04H254.84C256.44 5.04 257.24 5.84 257.24 7.44V14.16C257.24 15.76 256.44 16.72 254.84 17.04L242.84 19.2C239.48 19.84 237.24 20.96 236.12 22.56C235.16 24.16 234.76 26.24 234.92 28.8L247.88 161.28C248.2 164.8 248.84 167.04 249.8 168C250.76 168.8 252.44 169.6 254.84 170.4L269.24 174C270.84 174.32 271.64 175.28 271.64 176.88V183.6C271.64 185.2 270.84 186 269.24 186H176.12C174.52 186 173.72 185.2 173.72 183.6V176.88C173.72 175.28 174.52 174.32 176.12 174L189.56 170.64C192.92 169.68 194.92 168.72 195.56 167.76C196.2 166.64 196.36 164.8 196.04 162.24L182.84 24.96L203 20.88L137 183.84C136.36 185.28 135.24 186 133.64 186H115.88C114.28 186 113.16 185.28 112.52 183.84L39.56 20.88L59.96 18.48L52.28 160.8C52.12 163.36 52.36 165.2 53 166.32C53.8 167.44 55.88 168.48 59.24 169.44L72.68 173.76C74.28 174.24 75.08 175.28 75.08 176.88V183.6C75.08 185.2 74.28 186 72.68 186H3.32ZM412.52 147.12V172.8L407.96 163.68L425.24 171.36C426.68 172 427.4 173.12 427.4 174.72V180.96C427.4 182.4 426.6 183.28 425 183.6L372.68 189.36C370.12 189.68 368.36 189.52 367.4 188.88C366.44 188.4 365.96 187.36 365.96 185.76V156.24L363.08 152.16V147.12H412.52ZM317.96 189.84C304.52 189.84 294.84 186.4 288.92 179.52C283.16 172.64 280.28 161.28 280.28 145.44V112.08H329.72V138.24C329.72 148.8 335.08 154.08 345.8 154.08C352.36 154.08 359.56 151.84 367.4 147.36L371.72 154.08C369.16 160.32 365.32 166.16 360.2 171.6C355.08 177.04 348.92 181.44 341.72 184.8C334.68 188.16 326.76 189.84 317.96 189.84ZM363.08 147.12V112.08H412.52V147.12H363.08ZM280.28 112.08V75.12L285.08 88.32L268.28 83.76C266.68 83.28 265.88 82.24 265.88 80.64V73.44C265.88 71.68 266.68 70.8 268.28 70.8L321.8 62.64C324.68 62.16 326.68 62.32 327.8 63.12C329.08 63.76 329.72 65.28 329.72 67.68V112.08H280.28ZM363.08 112.08V75.12L367.88 88.32L351.08 83.76C349.48 83.28 348.68 82.24 348.68 80.64V73.44C348.68 71.68 349.48 70.8 351.08 70.8L404.6 62.64C407.48 62.16 409.48 62.32 410.6 63.12C411.88 63.76 412.52 65.28 412.52 67.68V112.08H363.08ZM504.995 111.12C514.915 114.48 522.675 117.92 528.275 121.44C533.875 124.8 537.795 128.56 540.035 132.72C542.435 136.88 543.635 142 543.635 148.08C543.635 156.24 541.235 163.44 536.435 169.68C531.635 175.92 524.915 180.88 516.275 184.56C507.795 188.08 498.035 189.84 486.995 189.84C477.395 189.84 468.915 188.96 461.555 187.2C454.195 185.6 448.035 183.92 443.075 182.16C441.635 181.52 440.915 180.48 440.915 179.04L438.995 142.8C438.995 141.36 439.795 140.48 441.395 140.16L448.835 139.92C450.435 139.6 451.555 140.24 452.195 141.84L453.155 144C456.835 151.68 461.475 157.76 467.075 162.24C472.835 166.56 479.395 168.72 486.755 168.72C492.035 168.72 496.195 167.84 499.235 166.08C502.435 164.16 504.035 161.68 504.035 158.64C504.035 156.72 503.315 154.96 501.875 153.36C500.595 151.76 498.115 150.08 494.435 148.32C490.755 146.56 485.555 144.4 478.835 141.84C468.115 137.68 459.715 133.84 453.635 130.32C447.715 126.64 443.555 122.64 441.155 118.32C438.915 113.84 437.795 108.48 437.795 102.24C437.795 89.92 442.915 80.16 453.155 72.96C463.395 65.76 477.155 62.16 494.435 62.16C502.595 62.16 509.875 62.88 516.275 64.32C522.675 65.76 527.875 67.36 531.875 69.12C533.315 69.76 534.035 70.88 534.035 72.48L533.315 102C533.315 103.44 532.515 104.32 530.915 104.64L522.995 104.88C521.395 105.2 520.435 104.48 520.115 102.72L519.635 101.04C518.515 95.76 516.115 91.6 512.435 88.56C508.755 85.52 503.235 84 495.875 84C490.915 84 486.915 84.88 483.875 86.64C480.995 88.4 479.555 90.88 479.555 94.08C479.555 96.16 480.275 98.08 481.715 99.84C483.155 101.44 485.715 103.12 489.395 104.88C493.235 106.64 498.435 108.72 504.995 111.12ZM599.894 189.84C586.454 189.84 576.854 186.4 571.094 179.52C565.334 172.64 562.454 161.2 562.454 145.2V78.24L564.614 66V41.76C564.614 40.16 565.414 39.12 567.014 38.64C570.374 37.68 574.694 36.8 579.974 36C585.414 35.04 590.774 34.24 596.054 33.6C601.494 32.96 605.974 32.72 609.494 32.88C611.094 33.2 611.894 34.08 611.894 35.52V144C611.894 150.08 613.334 154.32 616.214 156.72C619.094 159.12 624.214 160.32 631.574 160.32C632.854 160.32 634.374 160.24 636.134 160.08C638.054 159.92 640.054 159.68 642.134 159.36C643.574 159.04 644.454 159.68 644.774 161.28L645.494 170.64C645.814 172.08 645.334 173.44 644.054 174.72C641.174 177.28 637.174 179.76 632.054 182.16C627.094 184.4 621.734 186.24 615.974 187.68C610.374 189.12 605.014 189.84 599.894 189.84ZM549.974 85.2C548.374 85.2 547.734 84.4 548.054 82.8L550.694 70.8C551.014 69.2 551.974 68.24 553.574 67.92L564.614 66H623.654L643.334 64.56C644.934 64.24 645.734 64.96 645.734 66.72C645.894 69.28 645.894 71.92 645.734 74.64C645.574 77.36 645.174 80.08 644.534 82.8C644.054 84.4 643.014 85.2 641.414 85.2H549.974ZM681.967 189.84C672.047 189.84 663.967 186.88 657.727 180.96C651.647 174.88 648.607 166.96 648.607 157.2C648.607 146.8 652.447 138.56 660.127 132.48C667.967 126.4 679.647 122.72 695.167 121.44L721.567 119.28L720.607 135.36L703.087 137.52C698.767 138 695.567 139.12 693.487 140.88C691.407 142.48 690.367 144.88 690.367 148.08C690.367 151.44 691.487 154.16 693.727 156.24C695.967 158.32 698.847 159.36 702.367 159.36C705.567 159.36 708.207 159.04 710.287 158.4C712.367 157.76 714.047 157.12 715.327 156.48C716.607 155.68 717.487 155.12 717.967 154.8L720.847 157.68C720.207 161.04 718.847 164.56 716.767 168.24C714.847 171.92 712.207 175.44 708.847 178.8C705.647 182 701.727 184.64 697.087 186.72C692.607 188.8 687.567 189.84 681.967 189.84ZM715.807 111.36C715.807 103.84 714.367 98.16 711.487 94.32C708.767 90.48 704.687 88.56 699.247 88.56C696.687 88.56 694.287 88.88 692.047 89.52C689.807 90.16 687.727 91.6 685.807 93.84C684.047 95.92 682.447 99.28 681.007 103.92L679.087 109.92C678.607 111.52 677.567 112.32 675.967 112.32H665.887C664.287 112.32 663.327 111.52 663.007 109.92C661.407 104.16 659.887 98.4 658.447 92.64C657.167 86.88 655.887 81.44 654.607 76.32C654.447 74.88 655.007 73.76 656.287 72.96C662.367 70.72 670.127 68.4 679.567 66C689.167 63.44 699.007 62.16 709.087 62.16C726.367 62.16 740.047 66.48 750.127 75.12C760.207 83.76 765.247 95.6 765.247 110.64V147.12H715.807V111.36ZM765.247 147.12V172.8L760.447 163.68L777.727 171.36C779.167 172 779.887 173.12 779.887 174.72V180.72C779.887 182.32 779.087 183.28 777.487 183.6L764.287 186C753.727 187.92 745.087 188.8 738.367 188.64C731.647 188.64 726.687 187.28 723.487 184.56C720.287 181.68 718.687 177.28 718.687 171.36V161.04L715.807 159.12V147.12H765.247ZM797.889 186V112.08H847.329V186H797.889ZM892.689 99.84C892.689 101.44 891.889 102.24 890.289 102.24H871.569C868.689 102.24 866.209 102.4 864.129 102.72C862.209 103.04 860.289 103.6 858.369 104.4C855.809 105.52 853.249 106.88 850.689 108.48C848.289 109.92 846.049 111.44 843.969 113.04L844.449 102.24C845.889 95.68 847.809 89.92 850.209 84.96C852.609 79.84 855.409 75.6 858.609 72.24C861.809 68.88 865.409 66.4 869.409 64.8C873.409 63.04 877.809 62.16 882.609 62.16C889.329 62.16 892.689 63.76 892.689 66.96V99.84ZM789.249 186C787.649 186 786.849 185.2 786.849 183.6V177.6C786.849 176 787.569 174.88 789.009 174.24L791.169 173.28C794.369 171.68 796.289 170.48 796.929 169.68C797.569 168.72 797.889 166.72 797.889 163.68V142.8H847.329V162.72C847.329 166.24 847.569 168.48 848.049 169.44C848.689 170.24 850.449 171.2 853.329 172.32L859.089 174.48C860.529 175.12 861.249 176.16 861.249 177.6V183.6C861.249 185.2 860.449 186 858.849 186H789.249ZM797.889 112.08V75.12L802.689 88.32L785.889 83.76C784.289 83.28 783.489 82.24 783.489 80.64V73.44C783.489 71.84 784.289 70.88 785.889 70.56L836.529 62.64C839.409 62.16 841.409 62.32 842.529 63.12C843.809 63.76 844.449 65.28 844.449 67.68V96.48L847.329 100.08V112.08H797.889ZM986.881 147.12V45.12H1036.32V147.12H986.881ZM994.801 91.92C993.201 91.44 990.801 90.96 987.601 90.48C984.561 90 980.241 89.76 974.641 89.76C965.361 89.76 958.081 92.88 952.801 99.12C947.681 105.36 945.121 114.16 945.121 125.52C945.121 134.96 947.201 142.24 951.361 147.36C955.521 152.48 961.361 155.04 968.881 155.04C971.921 155.04 975.201 154.4 978.721 153.12C982.241 151.84 985.921 149.92 989.761 147.36L992.641 154.08C989.281 164.8 983.201 173.44 974.401 180C965.761 186.56 956.001 189.84 945.121 189.84C935.201 189.84 926.481 187.44 918.961 182.64C911.601 177.68 905.841 170.8 901.681 162C897.681 153.04 895.681 142.56 895.681 130.56C895.681 116.32 898.241 104.08 903.361 93.84C908.641 83.6 916.081 75.76 925.681 70.32C935.441 64.88 947.041 62.16 960.481 62.16C969.761 62.16 977.761 63.52 984.481 66.24C991.201 68.8 998.401 73.44 1006.08 80.16L994.801 91.92ZM986.881 50.88V13.92L991.681 27.12L974.881 22.56C973.281 22.08 972.481 21.04 972.481 19.44V12.24C972.481 10.48 973.281 9.6 974.881 9.6L1028.4 1.43999C1031.28 0.959993 1033.28 1.12 1034.4 1.92C1035.68 2.56 1036.32 4.08 1036.32 6.47999V50.88H986.881ZM1036.32 147.12V172.8L1031.76 163.68L1049.04 171.36C1050.48 172 1051.2 173.12 1051.2 174.72V180.96C1051.2 182.4 1050.4 183.28 1048.8 183.6L996.481 189.36C993.921 189.68 992.161 189.52 991.201 188.88C990.241 188.4 989.761 187.36 989.761 185.76V156.24L986.881 152.16V147.12H1036.32Z" fill="white"/>
</svg>
