<svg width="858" height="185" viewBox="0 0 858 185" fill="none" xmlns="http://www.w3.org/2000/svg">
<path d="M23.56 181V0.0399981H75.88V181H23.56ZM2.68 181C1.08 181 0.28 180.2 0.28 178.6V171.88C0.28 170.44 1 169.4 2.44 168.76L16.6 163.48C19.8 162.2 21.72 161 22.36 159.88C23.16 158.76 23.56 156.92 23.56 154.36V132.76H75.88V151.96C75.88 155.48 76.28 157.72 77.08 158.68C78.04 159.64 79.72 160.44 82.12 161.08L108.76 168.76C110.36 169.24 111.16 170.28 111.16 171.88V178.6C111.16 180.2 110.36 181 108.76 181H2.68ZM0.28 2.44C0.28 0.839997 1.08 0.0399981 2.68 0.0399981H75.88V48.28H23.56V26.68C23.56 24.12 23.16 22.28 22.36 21.16C21.72 19.88 19.8 18.68 16.6 17.56L2.44 12.28C1 11.64 0.28 10.6 0.28 9.16V2.44ZM75.88 89.08C77.32 89.24 78.76 89.4 80.2 89.56C81.8 89.72 83.32 89.8 84.76 89.8C94.04 89.8 100.76 87.08 104.92 81.64C109.24 76.04 111.4 67.4 111.4 55.72C111.4 33.96 102.52 23.08 84.76 23.08H75.88V0.0399981H91C113.88 0.0399981 131.8 5 144.76 14.92C157.88 24.84 164.44 38.44 164.44 55.72C164.44 73.64 158.68 87.72 147.16 97.96C135.64 108.04 119.56 113.08 98.92 113.08C94.6 113.08 90.52 113 86.68 112.84C82.84 112.52 79.24 112.04 75.88 111.4V89.08ZM233.551 184.84C222.031 184.84 211.231 182.44 201.151 177.64C191.231 172.84 183.151 165.72 176.911 156.28C170.831 146.68 167.791 134.84 167.791 120.76C167.791 106.84 170.911 95.16 177.151 85.72C183.391 76.28 191.551 69.16 201.631 64.36C211.871 59.56 222.751 57.16 234.271 57.16C245.471 57.16 255.391 59.48 264.031 64.12C272.671 68.76 279.471 75.32 284.431 83.8C289.391 92.12 291.871 101.88 291.871 113.08C291.871 115 291.791 117 291.631 119.08C291.631 121.16 291.551 123.48 291.391 126.04C291.071 127.64 290.191 128.44 288.751 128.44H212.911V108.04H257.071L250.111 110.68C250.111 109.88 250.111 109.24 250.111 108.76C250.111 108.28 250.111 107.72 250.111 107.08C250.111 102.76 249.391 98.84 247.951 95.32C246.511 91.8 244.511 89 241.951 86.92C239.551 84.84 236.831 83.8 233.791 83.8C227.871 83.8 223.311 86.68 220.111 92.44C217.071 98.04 215.551 106.44 215.551 117.64C215.551 124.84 216.911 131.32 219.631 137.08C222.351 142.84 226.271 147.4 231.391 150.76C236.671 154.12 242.911 155.8 250.111 155.8C259.391 155.8 268.191 153.48 276.511 148.84C278.111 148.04 279.151 148.36 279.631 149.8L284.191 158.92C284.671 160.2 284.511 161.56 283.711 163C277.791 169.88 270.431 175.24 261.631 179.08C252.831 182.92 243.471 184.84 233.551 184.84ZM334.832 184.84C324.912 184.84 316.832 181.88 310.592 175.96C304.512 169.88 301.472 161.96 301.472 152.2C301.472 141.8 305.312 133.56 312.992 127.48C320.832 121.4 332.512 117.72 348.032 116.44L374.432 114.28L373.472 130.36L355.952 132.52C351.632 133 348.432 134.12 346.352 135.88C344.272 137.48 343.232 139.88 343.232 143.08C343.232 146.44 344.352 149.16 346.592 151.24C348.832 153.32 351.712 154.36 355.232 154.36C358.432 154.36 361.072 154.04 363.152 153.4C365.232 152.76 366.912 152.12 368.192 151.48C369.472 150.68 370.352 150.12 370.832 149.8L373.712 152.68C373.072 156.04 371.712 159.56 369.633 163.24C367.712 166.92 365.072 170.44 361.712 173.8C358.512 177 354.592 179.64 349.952 181.72C345.472 183.8 340.432 184.84 334.832 184.84ZM368.672 106.36C368.672 98.84 367.232 93.16 364.352 89.32C361.632 85.48 357.552 83.56 352.112 83.56C349.552 83.56 347.152 83.88 344.912 84.52C342.672 85.16 340.592 86.6 338.672 88.84C336.912 90.92 335.312 94.28 333.872 98.92L331.952 104.92C331.472 106.52 330.432 107.32 328.832 107.32H318.752C317.152 107.32 316.192 106.52 315.872 104.92C314.272 99.16 312.752 93.4 311.312 87.64C310.032 81.88 308.752 76.44 307.472 71.32C307.312 69.88 307.872 68.76 309.152 67.96C315.232 65.72 322.992 63.4 332.432 61C342.032 58.44 351.872 57.16 361.952 57.16C379.232 57.16 392.912 61.48 402.993 70.12C413.073 78.76 418.113 90.6 418.113 105.64V142.12H368.672V106.36ZM418.113 142.12V167.8L413.312 158.68L430.593 166.36C432.033 167 432.753 168.12 432.753 169.72V175.72C432.753 177.32 431.953 178.28 430.353 178.6L417.153 181C406.593 182.92 397.953 183.8 391.233 183.64C384.512 183.64 379.552 182.28 376.352 179.56C373.152 176.68 371.552 172.28 371.552 166.36V156.04L368.672 154.12V142.12H418.113ZM534.994 108.76C534.994 103.96 533.394 100.28 530.194 97.72C527.154 95 522.834 93.64 517.234 93.64C514.354 93.64 511.234 94.2 507.874 95.32C504.514 96.28 500.994 97.64 497.314 99.4L492.754 92.92C495.794 85.88 499.954 79.72 505.234 74.44C510.674 69 516.914 64.76 523.954 61.72C531.154 58.68 538.754 57.16 546.754 57.16C560.514 57.16 570.194 60.68 575.794 67.72C581.554 74.6 584.434 85.88 584.434 101.56V181H534.994V108.76ZM450.754 181V107.08H500.194V181H450.754ZM442.114 181C440.514 181 439.714 180.2 439.714 178.6V172.6C439.714 171 440.434 169.88 441.874 169.24L444.034 168.28C447.234 166.68 449.154 165.48 449.794 164.68C450.434 163.72 450.754 161.72 450.754 158.68V137.8H500.194V157.72C500.194 161.24 500.434 163.48 500.914 164.44C501.554 165.24 503.314 166.2 506.194 167.32L511.954 169.48C513.394 170.12 514.114 171.16 514.114 172.6V178.6C514.114 180.2 513.314 181 511.714 181H442.114ZM526.354 181C524.754 181 523.954 180.2 523.954 178.6V172.6C523.954 171 524.674 169.88 526.114 169.24L528.274 168.28C531.474 166.68 533.394 165.48 534.034 164.68C534.674 163.72 534.994 161.72 534.994 158.68V137.8H584.434V157.72C584.434 161.24 584.674 163.48 585.154 164.44C585.794 165.24 587.554 166.2 590.434 167.32L596.194 169.48C597.634 170.12 598.354 171.16 598.354 172.6V178.6C598.354 180.2 597.554 181 595.954 181H526.354ZM450.754 107.08V70.12L455.554 83.32L438.754 78.76C437.154 78.28 436.354 77.24 436.354 75.64V68.44C436.354 66.84 437.154 65.88 438.754 65.56L489.394 57.64C492.274 57.16 494.274 57.32 495.394 58.12C496.674 58.76 497.314 60.28 497.314 62.68V91.48L500.194 95.08V107.08H450.754ZM745.448 142.12V167.8L740.888 158.68L758.168 166.36C759.608 167 760.328 168.12 760.328 169.72V175.96C760.328 177.4 759.528 178.28 757.928 178.6L705.608 184.36C703.048 184.68 701.288 184.52 700.328 183.88C699.368 183.4 698.888 182.36 698.888 180.76V151.24L696.008 147.16V142.12H745.448ZM650.888 184.84C637.448 184.84 627.768 181.4 621.848 174.52C616.088 167.64 613.208 156.28 613.208 140.44V107.08H662.648V133.24C662.648 143.8 668.008 149.08 678.728 149.08C685.288 149.08 692.488 146.84 700.328 142.36L704.648 149.08C702.088 155.32 698.248 161.16 693.128 166.6C688.008 172.04 681.848 176.44 674.648 179.8C667.608 183.16 659.688 184.84 650.888 184.84ZM696.008 142.12V107.08H745.448V142.12H696.008ZM613.208 107.08V70.12L618.008 83.32L601.208 78.76C599.608 78.28 598.808 77.24 598.808 75.64V68.44C598.808 66.68 599.608 65.8 601.208 65.8L654.728 57.64C657.608 57.16 659.608 57.32 660.728 58.12C662.008 58.76 662.648 60.28 662.648 62.68V107.08H613.208ZM696.008 107.08V70.12L700.808 83.32L684.008 78.76C682.408 78.28 681.608 77.24 681.608 75.64V68.44C681.608 66.68 682.408 65.8 684.008 65.8L737.528 57.64C740.408 57.16 742.408 57.32 743.528 58.12C744.808 58.76 745.448 60.28 745.448 62.68V107.08H696.008ZM811.763 184.84C798.323 184.84 788.723 181.4 782.963 174.52C777.203 167.64 774.323 156.2 774.323 140.2V73.24L776.483 61V36.76C776.483 35.16 777.283 34.12 778.883 33.64C782.243 32.68 786.563 31.8 791.843 31C797.283 30.04 802.643 29.24 807.923 28.6C813.363 27.96 817.843 27.72 821.363 27.88C822.963 28.2 823.763 29.08 823.763 30.52V139C823.763 145.08 825.203 149.32 828.083 151.72C830.963 154.12 836.083 155.32 843.443 155.32C844.723 155.32 846.243 155.24 848.003 155.08C849.923 154.92 851.923 154.68 854.003 154.36C855.443 154.04 856.323 154.68 856.643 156.28L857.363 165.64C857.683 167.08 857.203 168.44 855.923 169.72C853.043 172.28 849.043 174.76 843.923 177.16C838.963 179.4 833.603 181.24 827.843 182.68C822.243 184.12 816.883 184.84 811.763 184.84ZM761.843 80.2C760.243 80.2 759.603 79.4 759.923 77.8L762.563 65.8C762.883 64.2 763.843 63.24 765.443 62.92L776.483 61H835.523L855.203 59.56C856.803 59.24 857.603 59.96 857.603 61.72C857.763 64.28 857.763 66.92 857.603 69.64C857.443 72.36 857.043 75.08 856.403 77.8C855.923 79.4 854.883 80.2 853.283 80.2H761.843Z" fill="white"/>
</svg>
