<svg width="16" height="16" viewBox="0 0 16 16" fill="none" xmlns="http://www.w3.org/2000/svg">
<g clip-path="url(#clip0_2_1674)">
<path d="M14.7866 14.7801L15.3933 14.0801C16.2 13.2735 16.2 11.9668 15.3933 11.1601C15.3733 11.1401 13.7666 9.90679 13.7666 9.90679C12.9666 9.14679 11.7066 9.14679 10.9133 9.90679L9.93996 10.6801C7.73329 9.70679 6.21329 8.19346 5.30662 6.06013L6.08662 5.08679C6.85329 4.29346 6.85329 3.02679 6.08662 2.23346C6.08662 2.23346 4.85329 0.626791 4.83329 0.606791C4.02662 -0.199876 2.71996 -0.199875 1.94662 0.573458L1.17996 1.24012C0.41329 2.00679 -0.00671005 3.04012 -0.00671005 4.16012C-0.00671005 9.25346 6.74662 16.0001 11.8333 16.0001C12.9466 16.0001 13.9866 15.5801 14.78 14.7801H14.7866ZM1.33329 4.16012C1.33329 3.40012 1.61329 2.70012 2.09996 2.22012L2.86662 1.55346C3.13996 1.28012 3.58662 1.26679 3.87329 1.52679C3.87329 1.52679 5.09996 3.12013 5.11996 3.14013C5.39329 3.41346 5.39329 3.89346 5.11996 4.17346C5.09996 4.19346 4.02662 5.53346 4.02662 5.53346C3.87996 5.72013 3.83996 5.96679 3.92662 6.18679C4.97996 8.94679 6.95329 10.9268 9.79996 12.0668C10.02 12.1535 10.2733 12.1201 10.4666 11.9668C10.4666 11.9668 11.8133 10.8935 11.8266 10.8801C12.1133 10.5935 12.5733 10.5935 12.86 10.8801C12.88 10.9001 14.4733 12.1268 14.4733 12.1268C14.7333 12.4135 14.7266 12.8601 14.42 13.1668L13.8133 13.8668C13.3 14.3801 12.6 14.6668 11.84 14.6668C7.19996 14.6668 1.33329 8.15346 1.33329 4.16012Z" fill="white"/>
</g>
<defs>
<clipPath id="clip0_2_1674">
<rect width="16" height="16" fill="white" transform="matrix(0 1 -1 0 16 0)"/>
</clipPath>
</defs>
</svg>
