<svg width="15" height="14" viewBox="0 0 15 14" fill="none" xmlns="http://www.w3.org/2000/svg">
<g clip-path="url(#clip0_33_153)">
<path d="M13.7493 2.37825C13.5852 2.18134 13.3797 2.02297 13.1476 1.91439C12.9154 1.80581 12.6621 1.74969 12.4058 1.75H2.9745L2.95 1.54525C2.89986 1.11966 2.69531 0.72726 2.37512 0.442445C2.05493 0.15763 1.64137 0.00019938 1.21283 0L1.08333 0C0.928624 0 0.780251 0.0614582 0.670854 0.170854C0.561458 0.280251 0.5 0.428624 0.5 0.583333C0.5 0.738043 0.561458 0.886416 0.670854 0.995812C0.780251 1.10521 0.928624 1.16667 1.08333 1.16667H1.21283C1.35571 1.16669 1.49361 1.21914 1.60038 1.31408C1.70715 1.40903 1.77537 1.53985 1.79208 1.68175L2.59475 8.50675C2.67808 9.21654 3.01911 9.87104 3.55311 10.346C4.08711 10.821 4.77692 11.0833 5.49158 11.0833H11.5833C11.738 11.0833 11.8864 11.0219 11.9958 10.9125C12.1052 10.8031 12.1667 10.6547 12.1667 10.5C12.1667 10.3453 12.1052 10.1969 11.9958 10.0875C11.8864 9.97812 11.738 9.91667 11.5833 9.91667H5.49158C5.13053 9.91565 4.77863 9.80299 4.48413 9.59412C4.18962 9.38525 3.96693 9.0904 3.84658 8.75H10.7999C11.4838 8.75004 12.1459 8.5098 12.6706 8.07125C13.1953 7.63271 13.5492 7.02374 13.6705 6.35075L14.1284 3.81092C14.1741 3.55892 14.1639 3.29996 14.0983 3.05237C14.0328 2.80479 13.9136 2.57464 13.7493 2.37825ZM12.9833 3.60383L12.5248 6.14367C12.452 6.54792 12.2393 6.91366 11.9239 7.17687C11.6086 7.44007 11.2107 7.58396 10.7999 7.58333H3.66108L3.11217 2.91667H12.4058C12.4915 2.91615 12.5763 2.93453 12.6541 2.97048C12.7318 3.00644 12.8008 3.05909 12.8559 3.12469C12.911 3.19029 12.951 3.26723 12.9731 3.35005C12.9951 3.43286 12.9986 3.51951 12.9833 3.60383Z" fill="#FFFCE7"/>
<path d="M4.58317 13.9998C5.2275 13.9998 5.74984 13.4775 5.74984 12.8332C5.74984 12.1888 5.2275 11.6665 4.58317 11.6665C3.93884 11.6665 3.4165 12.1888 3.4165 12.8332C3.4165 13.4775 3.93884 13.9998 4.58317 13.9998Z" fill="#FFFCE7"/>
<path d="M10.4167 13.9998C11.061 13.9998 11.5833 13.4775 11.5833 12.8332C11.5833 12.1888 11.061 11.6665 10.4167 11.6665C9.77233 11.6665 9.25 12.1888 9.25 12.8332C9.25 13.4775 9.77233 13.9998 10.4167 13.9998Z" fill="#FFFCE7"/>
</g>
<defs>
<clipPath id="clip0_33_153">
<rect width="14" height="14" fill="white" transform="translate(0.5)"/>
</clipPath>
</defs>
</svg>
