<svg width="24" height="24" viewBox="0 0 24 24" fill="none" xmlns="http://www.w3.org/2000/svg">
<g clip-path="url(#clip0_94_109)">
<path d="M0 3C0 3.55 0.450001 4 1 4H23C23.55 4 24 3.55 24 3C24 2.45 23.55 2 23 2H1C0.450001 2 0 2.45 0 3ZM17 20H23C23.55 20 24 20.45 24 21C24 21.55 23.55 22 23 22H17C16.45 22 16 21.55 16 21C16 20.45 16.45 20 17 20ZM9 11H23C23.55 11 24 11.45 24 12C24 12.55 23.55 13 23 13H9C8.45 13 8 12.55 8 12C8 11.45 8.45 11 9 11Z" fill="white"/>
</g>
<defs>
<clipPath id="clip0_94_109">
<rect width="24" height="24" fill="white" transform="matrix(-1 0 0 1 24 0)"/>
</clipPath>
</defs>
</svg>
